0
SECTION
2
HEADER
9
$INSUNITS
70
4
9
$ACADVER
1
AC1014
9
$HANDSEED
5
FFFF
0
ENDSEC
0
SECTION
2
TABLES
0
TABLE
2
VPORT
5
8
100
AcDbSymbolTable
0
ENDTAB
0
TABLE
2
LTYPE
5
5
100
AcDbSymbolTable
0
LTYPE
5
14
100
AcDbSymbolTableRecord
100
AcDbLinetypeTableRecord
2
BYBLOCK
70
0
0
LTYPE
5
15
100
AcDbSymbolTableRecord
100
AcDbLinetypeTableRecord
2
BYLAYER
70
0
0
ENDTAB
0
TABLE
2
LAYER
5
2
100
AcDbSymbolTable
70
2
0
LAYER
5
50
100
AcDbSymbolTableRecord
100
AcDbLayerTableRecord
2
0
70
0
6
CONTINUOUS
0
ENDTAB
0
TABLE
2
STYLE
5
3
100
AcDbSymbolTable
70
1
0
STYLE
5
11
100
AcDbSymbolTableRecord
100
AcDbTextStyleTableRecord
2
STANDARD
70
0
0
ENDTAB
0
TABLE
2
VIEW
5
6
100
AcDbSymbolTable
70
0
0
ENDTAB
0
TABLE
2
UCS
5
7
100
AcDbSymbolTable
70
0
0
ENDTAB
0
TABLE
2
APPID
5
9
100
AcDbSymbolTable
70
2
0
APPID
5
12
100
AcDbSymbolTableRecord
100
AcDbRegAppTableRecord
2
ACAD
70
0
0
ENDTAB
0
TABLE
2
DIMSTYLE
5
A
100
AcDbSymbolTable
70
1
0
ENDTAB
0
TABLE
2
BLOCK_RECORD
5
1
100
AcDbSymbolTable
70
1
0
BLOCK_RECORD
5
1F
100
AcDbSymbolTableRecord
100
AcDbBlockTableRecord
2
*MODEL_SPACE
0
BLOCK_RECORD
5
1B
100
AcDbSymbolTableRecord
100
AcDbBlockTableRecord
2
*PAPER_SPACE
0
ENDTAB
0
ENDSEC
0
SECTION
2
BLOCKS
0
BLOCK
5
20
100
AcDbEntity
100
AcDbBlockBegin
2
*MODEL_SPACE
0
ENDBLK
5
21
100
AcDbEntity
100
AcDbBlockEnd
0
BLOCK
5
1C
100
AcDbEntity
100
AcDbBlockBegin
2
*PAPER_SPACE
0
ENDBLK
5
1D
100
AcDbEntity
100
AcDbBlockEnd
0
ENDSEC
0
SECTION
2
ENTITIES
0
LWPOLYLINE
5
100
100
AcDbEntity
8
0
100
AcDbPolyline
90
54
70
1
43
0.0
10
-89.113671979107565
20
-6.8731082316915426
42
0.76879319595559881
10
-82.336328020800636
20
-6.8731082313471425
42
-0.33996856710606749
10
-80.886725703670294
20
-5.7586638329787103
10
-23.888274297252305
20
-5.7586638300822681
42
-0.33996856730136776
10
-22.43867197973875
20
-6.8731082293185271
42
0.7687931965126914
10
-15.661328020169424
20
-6.8731082289741146
42
-0.33996856730137515
10
-14.211725702769101
20
-5.7586638295905406
10
0.97500000020314559
20
-5.7586638288190697
42
0.41421356235821022
10
4.9749999999997252
20
-1.7586638288192102
10
4.9749999999999082
20
42.707978324461102
42
-0.36902337389711898
10
6.2408902459864741
20
44.189596569177255
42
0.85439704222127799
10
6.2408902459864919
20
51.103815044519251
42
-0.36902337389712225
10
4.9749999999999108
20
52.585433289235404
10
4.9749999999999197
20
97.052066821182393
42
0.41421365519964504
10
0.97499873228119993
20
101.05206682118211
10
-10.049999998432902
20
101.05206332703202
10
-14.211723564651402
20
101.05206334697699
42
-0.33996903090818442
10
-15.661326517674974
20
102.16651016290899
42
0.76879451890937123
10
-22.438673473686308
20
102.166510195387
42
-0.33996903090830927
10
-23.888276437391404
20
101.05206339334805
10
-112.88672369042203
20
101.05206381984802
42
-0.33996900365009414
10
-114.33632660576257
20
102.16651049410214
42
0.76879444115864992
10
-121.11367338559893
20
102.16651052658099
42
-0.33996900365006039
10
-122.56327631162101
20
101.05206386622103
10
-248.56172386335203
20
101.05206447003195
42
-0.33996896617156541
10
-250.01132672688183
20
102.16651094948406
42
0.7687943342536061
10
-256.78867326447943
20
102.16651098196186
42
-0.33996896617152988
10
-258.23827613869003
20
101.05206451640296
10
-328.53672396528799
20
101.0520648532879
42
-0.33996894407935785
10
-329.98632679827608
20
102.16651121791301
42
0.76879427123742639
10
-336.76367319308468
20
102.16651125039091
42
-0.33996894407932804
10
-338.21327603675508
20
101.05206489966099
10
-342.37500006626999
20
101.05206491960402
10
-353.39999943813007
20
101.052066468258
42
0.41421360351506731
10
-357.39999999999975
20
97.052066468257919
10
-357.39999999999998
20
52.585432784254003
42
-0.36902337389719037
10
-358.66589024598704
20
51.103814539537815
42
0.85439704222126744
10
-358.66589024598704
20
44.18959606419584
42
-0.36902337389720602
10
-357.40000000000009
20
42.707977819479702
10
-357.40000000000003
20
-1.7586638468268134
42
0.41421356238795481
10
-353.39999999979705
20
-5.7586638468268809
10
-340.71327429297008
20
-5.7586638461820812
42
-0.33996856637327677
10
-339.26367197673954
20
-6.8731082405947044
42
0.76879319386549383
10
-332.48632802316865
20
-6.873108240250259
42
-0.33996856637336809
10
-331.036725707051
20
-5.7586638456904007
10
-281.06327429377598
20
-5.758663843150944
42
-0.33996856654800534
10
-279.61367197730402
20
-6.873108238471664
42
0.76879319436389293
10
-272.83632802260411
20
-6.8731082381271937
42
-0.33996856654807206
10
-271.38672570624499
20
-5.7586638426592103
10
-181.050774295064
20
-5.7586638380686672
42
-0.33996856682713295
10
-179.60117197820546
20
-6.873108234839286
42
0.76879319515977429
10
-172.82382802170187
20
-6.8731082344952652
42
-0.33996856682692556
10
-171.37422570495801
20
-5.7586638375769406
10
-90.563274296351196
20
-5.7586638334704361
42
-0.33996856710607615
0
LWPOLYLINE
5
101
100
AcDbEntity
8
0
100
AcDbPolyline
90
8
70
1
43
0.0
10
-304.65625
20
60.425000000000004
10
-304.65625000000006
20
72.925000000000011
42
-0.41421356237309503
10
-303.90625
20
73.675000000000068
10
-291.40625
20
73.674999999999997
42
-0.41421356237309503
10
-290.65625
20
72.925000000000011
10
-290.65625
20
60.425000000000004
42
-0.41421356237309503
10
-291.40625
20
59.675000000000004
10
-303.90625
20
59.674999999999976
42
-0.41421356237309503
0
LWPOLYLINE
5
102
100
AcDbEntity
8
0
100
AcDbPolyline
90
8
70
1
43
0.0
10
-246.16250000000002
20
59.675000000000004
10
-258.66250000000002
20
59.67500000000004
42
-0.4142135623730569
10
-259.41250000000014
20
60.425000000000004
10
-259.41250000000002
20
72.925000000000011
42
-0.41421356237309503
10
-258.66250000000002
20
73.674999999999997
10
-246.16250000000002
20
73.674999999999955
42
-0.41421356237309503
10
-245.41250000000005
20
72.925000000000011
10
-245.41250000000002
20
60.425000000000004
42
-0.41421356237309503
0
LWPOLYLINE
5
103
100
AcDbEntity
8
0
100
AcDbPolyline
90
8
70
1
43
0.0
10
-90.34375
20
79.474999999999994
10
-90.34375
20
91.974999999999994
42
-0.41421356237309503
10
-89.59375
20
92.725000000000009
10
-77.09375
20
92.725000000000009
42
-0.41421356237309503
10
-76.34375
20
91.974999999999994
10
-76.343750000000014
20
79.474999999999994
42
-0.41421356237309503
10
-77.09375
20
78.725000000000009
10
-89.59375
20
78.724999999999994
42
-0.41421356237309503
0
LWPOLYLINE
5
104
100
AcDbEntity
8
0
100
AcDbPolyline
90
8
70
1
43
0.0
10
-201.51250000000002
20
73.674999999999997
10
-189.01250000000002
20
73.675000000000097
42
-0.41421356237313323
10
-188.26250000000002
20
72.925000000000011
10
-188.26249999999993
20
60.425000000000004
42
-0.4142135623730569
10
-189.01250000000002
20
59.675000000000026
10
-201.51250000000002
20
59.675000000000011
42
-0.41421356237309503
10
-202.26249999999999
20
60.425000000000004
10
-202.26249999999999
20
72.925000000000011
42
-0.41421356237309503
0
LWPOLYLINE
5
105
100
AcDbEntity
8
0
100
AcDbPolyline
90
8
70
1
43
0.0
10
-277.71249999999998
20
73.674999999999955
42
0.41421356237309503
10
-278.46249999999992
20
72.925000000000011
10
-278.46250000000003
20
60.425000000000004
42
0.4142135623730569
10
-277.71249999999998
20
59.675000000000004
10
-265.21249999999998
20
59.675000000000011
42
0.41421356237309503
10
-264.46249999999998
20
60.425000000000004
10
-264.46249999999998
20
72.925000000000011
42
0.41421356237309503
10
-265.21249999999998
20
73.674999999999997
0
LWPOLYLINE
5
106
100
AcDbEntity
8
0
100
AcDbPolyline
90
8
70
1
43
0.0
10
-15.775000000000002
20
92.725000000000009
42
0.41421356237309503
10
-16.525000000000002
20
91.974999999999994
10
-16.525000000000002
20
79.474999999999994
42
0.41421356237309503
10
-15.775000000000002
20
78.724999999999994
10
-3.2750000000000101
20
78.724999999999994
42
0.41421356237309503
10
-2.5249999999999999
20
79.474999999999994
10
-2.524999999999999
20
91.974999999999994
42
0.41421356237309503
10
-3.2750000000000101
20
92.724999999999994
0
LWPOLYLINE
5
107
100
AcDbEntity
8
0
100
AcDbPolyline
90
8
70
1
43
0.0
10
-330.85000000000002
20
60.425000000000004
10
-330.85000000000008
20
72.925000000000011
42
-0.41421356237309503
10
-330.10000000000002
20
73.67500000000004
10
-317.60000000000002
20
73.67500000000004
42
-0.41421356237309503
10
-316.85000000000002
20
72.925000000000011
10
-316.85000000000008
20
60.425000000000004
42
-0.41421356237309503
10
-317.60000000000002
20
59.675000000000047
10
-330.10000000000002
20
59.675000000000146
42
-0.4142135623730569
0
LWPOLYLINE
5
108
100
AcDbEntity
8
0
100
AcDbPolyline
90
8
70
1
43
0.0
10
-53.28125
20
78.725000000000009
42
0.41421356237309503
10
-52.531250000000014
20
79.474999999999994
10
-52.531249999999986
20
91.974999999999994
42
0.41421356237309503
10
-53.28125
20
92.724999999999994
10
-68.162499999999994
20
92.725000000000009
42
0.41421356237309503
10
-68.912499999999994
20
91.974999999999994
10
-68.912500000000009
20
79.474999999999994
42
0.41421356237309503
10
-68.162499999999994
20
78.724999999999994
0
LWPOLYLINE
5
109
100
AcDbEntity
8
0
100
AcDbPolyline
90
8
70
1
43
0.0
10
-98.525000000000006
20
78.724999999999994
10
-113.40625000000001
20
78.725000000000037
42
-0.41421356237309503
10
-114.15624999999997
20
79.474999999999994
10
-114.15625000000003
20
91.974999999999994
42
-0.41421356237309503
10
-113.40625000000001
20
92.725000000000009
10
-98.525000000000006
20
92.724999999999966
42
-0.41421356237309503
10
-97.775000000000034
20
91.974999999999994
10
-97.775000000000006
20
79.474999999999994
42
-0.41421356237309503
0
LWPOLYLINE
5
110
100
AcDbEntity
8
0
100
AcDbPolyline
90
8
70
1
43
0.0
10
-297.80000000000001
20
91.974999999999994
10
-297.80000000000007
20
79.474999999999994
42
-0.41421356237309503
10
-298.55000000000007
20
78.725000000000009
10
-311.05000000000007
20
78.725000000000037
42
-0.41421356237309503
10
-311.80000000000001
20
79.474999999999994
10
-311.80000000000001
20
91.974999999999994
42
-0.41421356237309503
10
-311.05000000000007
20
92.724999999999952
10
-298.55000000000007
20
92.725000000000023
42
-0.41421356237309503
0
LWPOLYLINE
5
111
100
AcDbEntity
8
0
100
AcDbPolyline
90
8
70
1
43
0.0
10
-22.324999999999999
20
78.724999999999994
10
-34.825000000000003
20
78.724999999999994
42
-0.41421356237309503
10
-35.575000000000003
20
79.474999999999994
10
-35.575000000000017
20
91.974999999999994
42
-0.41421356237309503
10
-34.825000000000003
20
92.725000000000009
10
-22.324999999999999
20
92.725000000000009
42
-0.41421356237309503
10
-21.574999999999996
20
91.974999999999994
10
-21.574999999999996
20
79.474999999999994
42
-0.41421356237309503
0
LWPOLYLINE
5
112
100
AcDbEntity
8
0
100
AcDbPolyline
90
8
70
1
43
0.0
10
-192.73750000000004
20
79.474999999999994
10
-192.73750000000004
20
91.974999999999994
42
-0.41421356237309503
10
-191.98750000000001
20
92.725000000000023
10
-172.34375
20
92.724999999999994
42
-0.41421356237309503
10
-171.59375
20
91.974999999999994
10
-171.59375
20
79.474999999999994
42
-0.41421356237309503
10
-172.34375
20
78.725000000000009
10
-191.98750000000001
20
78.724999999999966
42
-0.41421356237309503
0
LWPOLYLINE
5
113
100
AcDbEntity
8
0
100
AcDbPolyline
90
8
70
1
43
0.0
10
-335.89999999999998
20
72.925000000000011
42
0.41421356237309503
10
-336.64999999999998
20
73.675000000000054
10
-349.14999999999998
20
73.67500000000004
42
0.41421356237309503
10
-349.90000000000003
20
72.925000000000011
10
-349.90000000000009
20
60.425000000000004
42
0.4142135623730569
10
-349.14999999999998
20
59.675000000000004
10
-336.64999999999998
20
59.674999999999976
42
0.41421356237309503
10
-335.89999999999998
20
60.425000000000004
0
LWPOLYLINE
5
114
100
AcDbEntity
8
0
100
AcDbPolyline
90
14
70
1
43
0.0
10
-246.38750000000002
20
77.275000000000006
10
-246.38750000000002
20
78.724999999999994
10
-256.28125
20
78.725000000000009
42
-0.41421356237309503
10
-257.03125
20
79.474999999999994
10
-257.03124999999994
20
91.974999999999994
42
-0.41421356237309503
10
-256.28125
20
92.724999999999952
10
-246.38750000000002
20
92.724999999999994
10
-246.38749999999993
20
93.474999999999994
42
-0.41421356237309503
10
-245.63749999999999
20
94.224999999999966
10
-240.13750000000002
20
94.225000000000023
42
-0.41421356237309503
10
-239.38749999999999
20
93.474999999999994
10
-239.38750000000002
20
77.275000000000006
42
-0.41421356237309503
10
-240.13750000000002
20
76.52500000000002
10
-245.63749999999999
20
76.525000000000077
42
-0.4142135623730569
0
LWPOLYLINE
5
115
100
AcDbEntity
8
0
100
AcDbPolyline
90
8
70
1
43
0.0
10
-336.64999999999998
20
78.724999999999994
10
-349.14999999999998
20
78.724999999999923
42
-0.4142135623730569
10
-349.90000000000015
20
79.474999999999994
10
-349.89999999999998
20
91.974999999999994
42
-0.41421356237309503
10
-349.14999999999998
20
92.724999999999952
10
-336.64999999999998
20
92.725000000000023
42
-0.41421356237309503
10
-335.89999999999998
20
91.974999999999994
10
-335.89999999999998
20
79.474999999999994
42
-0.41421356237309503
0
LWPOLYLINE
5
116
100
AcDbEntity
8
0
100
AcDbPolyline
90
8
70
1
43
0.0
10
-330.10000000000002
20
92.724999999999994
10
-317.60000000000002
20
92.724999999999952
42
-0.41421356237309503
10
-316.85000000000008
20
91.974999999999994
10
-316.85000000000008
20
79.474999999999994
42
-0.41421356237313323
10
-317.60000000000002
20
78.724999999999952
10
-330.10000000000002
20
78.724999999999994
42
-0.4142135623730569
10
-330.85000000000014
20
79.474999999999994
10
-330.85000000000014
20
91.974999999999994
42
-0.4142135623730534
0
LWPOLYLINE
5
117
100
AcDbEntity
8
0
100
AcDbPolyline
90
8
70
1
43
0.0
10
-181.97500000000002
20
95.2250011438841
10
-313.32500005674899
20
95.225001143884086
42
-1.0000000166600047
10
-313.32500004108101
20
96.2250011438841
10
-305.80000004951302
20
96.224996832401104
10
-303.80000004951199
20
96.22499686069402
10
-296.275000043099
20
96.224996837456715
10
-294.275000041081
20
96.224996837456715
10
-181.97500001053669
20
96.224996024285304
42
-1.0000000105367122
0
LWPOLYLINE
5
118
100
AcDbEntity
8
0
100
AcDbPolyline
90
4
70
1
43
0.0
10
-241.88750005658602
20
98.224997736535812
10
-115.33632662115123
20
98.224999526785112
42
-0.99999998709521587
10
-115.33632661991
20
97.224999526785098
10
-241.88750005909804
20
97.224997736535798
42
-0.9999999833399954
0
LWPOLYLINE
5
119
100
AcDbEntity
8
0
100
AcDbPolyline
90
8
70
1
43
0.0
10
-260.45000000000005
20
78.724999999999994
10
-280.09375
20
78.725000000000009
42
-0.41421356237309503
10
-280.84375
20
79.474999999999994
10
-280.84375000000011
20
91.974999999999994
42
-0.4142135623730534
10
-280.09375
20
92.724999999999952
10
-260.45000000000005
20
92.724999999999952
42
-0.41421356237309503
10
-259.70000000000005
20
91.974999999999994
10
-259.70000000000005
20
79.474999999999994
42
-0.41421356237309503
0
LWPOLYLINE
5
120
100
AcDbEntity
8
0
100
AcDbPolyline
90
4
70
1
43
0.0
10
-243.88750004243903
20
97.22499770824291
10
-350.90000003787998
20
97.224996194396425
42
-0.9999999833399954
10
-350.90000003536602
20
98.224996194396397
10
-243.88750004605029
20
98.224997708242881
42
-0.99999998946328783
0
LWPOLYLINE
5
121
100
AcDbEntity
8
0
100
AcDbPolyline
90
4
70
1
43
0.0
10
-354.39999999998395
20
93.724991230761702
42
0.99999999999999989
10
-355.39999999999804
20
93.724991230761901
10
-355.39999999999407
20
1.52499618732298
42
0.99999999999999989
10
-354.40000000000799
20
1.5249961873226425
0
LWPOLYLINE
5
122
100
AcDbEntity
8
0
100
AcDbPolyline
90
7
70
1
43
0.0
10
-181.975000007956
20
-0.97499983773989884
10
-294.27500004928902
20
-0.97499903154601608
10
-296.27500010705501
20
-0.9750027887732271
10
-303.800000050395
20
-0.97499887998396595
10
-313.32500004434024
20
-0.97499885611598591
42
-1.0000000129047841
10
-313.32500005724501
20
0.025001143884011923
10
-181.97500000258077
20
0.02500212550800077
42
-1.0000000105367122
0
LWPOLYLINE
5
123
100
AcDbEntity
8
0
100
AcDbPolyline
90
8
70
1
43
0.0
10
-352.39999999999299
20
46.624997013416504
10
-352.39999999999498
20
1.0249978395100356
42
0.41421259454467618
10
-351.39999999999998
20
0.02500114388364949
10
-315.32500005417694
20
0.02499330196193484
42
-1.0000000182501207
10
-315.32500010705508
20
-0.97499885611591597
10
-351.39999999999998
20
-0.97499885611569548
42
-0.41421283650884877
10
-353.39999999999361
20
1.0249961873717
10
-353.39999999999304
20
46.624997013416504
42
-0.99999999999999989
0
LWPOLYLINE
5
124
100
AcDbEntity
8
0
100
AcDbPolyline
90
8
70
1
43
0.0
10
-353.399999999996
20
48.624997013416504
42
0.99999999999999989
10
-352.39999999999606
20
48.624997013416611
10
-352.39999999998781
20
94.224996187326994
42
-0.41421501411580935
10
-351.39999999999998
20
95.225001143884199
10
-315.32500005724501
20
95.2250011438841
42
0.9999999833399954
10
-315.325000040585
20
96.2250011438841
10
-351.400000007073
20
96.2250011438841
42
0.41421452916634205
10
-353.39999999998901
20
94.224994535136105
0
LWPOLYLINE
5
125
100
AcDbEntity
8
0
100
AcDbPolyline
90
6
70
1
43
0.0
10
-243.887500060587
20
-2.9749998285032904
10
-305.80000003890302
20
-2.9749988561159304
10
-350.89999999999998
20
-2.9749988561159202
42
-0.99999999999999989
10
-350.89999999999998
20
-1.9749988561159204
10
-305.80000003890302
20
-1.9749988561159202
10
-243.88750003197626
20
-1.9749998285032502
42
-0.99999998709521587
0
LWPOLYLINE
5
126
100
AcDbEntity
8
0
100
AcDbPolyline
90
4
70
1
43
0.0
10
-1.5249999929268301
20
97.225001136810917
10
-113.33632660700519
20
97.224999555078014
42
-1.0000000129047841
10
-113.33632663405601
20
98.224999555078
10
-1.5250000070733103
20
98.225001136811102
42
-0.99999999999999989
0
LWPOLYLINE
5
127
100
AcDbEntity
8
0
100
AcDbPolyline
90
4
70
1
43
0.0
10
-115.300000031412
20
-2.9750018480770102
10
-241.88750006058706
20
-2.9749998599149681
42
-0.99999999999999989
10
-241.88750004488099
20
-1.9749998599149321
10
-115.30000001570599
20
-1.9750018480770104
42
-0.99999999999999989
0
LWPOLYLINE
5
128
100
AcDbEntity
8
0
100
AcDbPolyline
90
8
70
1
43
0.0
10
-37.099999942755701
20
0.024997222923001102
10
-1.0250000000000981
20
0.025001143884000321
42
0.4142121106307311
10
-0.025000000008273821
20
1.02499618732298
10
-0.025000000004263001
20
46.625000000000007
42
-0.99999999999999989
10
0.97499999999573705
20
46.625000000000007
10
0.97499999999308207
20
1.0249945351359102
42
-0.41421258933641281
10
-1.0249999644358201
20
-0.97499885611599013
10
-37.099999893191281
20
-0.97500277707699623
42
-1.0000000210734243
0
LWPOLYLINE
5
129
100
AcDbEntity
8
0
100
AcDbPolyline
90
6
70
1
43
0.0
10
-58.1499999589197
20
96.224996837456715
10
-56.149999956902199
20
96.224996837456715
10
-39.099999959415811
20
96.2250011438841
42
-1.0000000166600047
10
-39.099999942755801
20
95.225001143884086
10
-179.97500000049573
20
95.2250011438841
42
-0.9999999833399954
10
-179.97500001616424
20
96.225001143884086
0
LWPOLYLINE
5
130
100
AcDbEntity
8
0
100
AcDbPolyline
90
8
70
1
43
0.0
10
-231.34375000000003
20
94.22500000000008
42
0.41421356237309503
10
-232.09375
20
93.475000000000094
10
-232.09374999999997
20
77.275000000000105
42
0.41421356237309503
10
-231.34375000000003
20
76.525000000000105
10
-225.84375
20
76.525000000000119
42
0.41421356237309503
10
-225.09375000000003
20
77.275000000000105
10
-225.09375000000003
20
93.475000000000094
42
0.41421356237309503
10
-225.84375
20
94.225000000000108
0
LWPOLYLINE
5
131
100
AcDbEntity
8
0
100
AcDbPolyline
90
8
70
1
43
0.0
10
-0.025000000006887305
20
48.625000000000007
10
-0.02500000000553726
20
94.224997839520114
42
0.41421452812753184
10
-1.0249999929268601
20
95.2250011438841
10
-37.099999945269104
20
95.2250011438841
42
-0.9999999833399954
10
-37.099999956902309
20
96.225001143884086
10
-1.0250000000000805
20
96.225001143884157
42
-0.41421428824484718
10
0.97499999999379816
20
94.224996187323015
10
0.97499999999311737
20
48.625000000000007
42
-0.99999999999999989
0
LWPOLYLINE
5
132
100
AcDbEntity
8
0
100
AcDbPolyline
90
6
70
1
43
0.0
10
-179.97499999999999
20
0.025001143884050975
42
0.99999998946328783
10
-179.975000007956
20
-0.97500284446527896
10
-58.149999950711901
20
-0.97500278877322211
10
-56.1499998929459
20
-0.97500277707699312
10
-39.099999950711897
20
-0.97499885611599002
42
1.0000000105367122
10
-39.099999945336705
20
0.025001143884008099
0
LWPOLYLINE
5
133
100
AcDbEntity
8
0
100
AcDbPolyline
90
6
70
1
43
0.0
10
-56.149999750688906
20
-2.97500277707698
10
-113.300000031412
20
-2.9750018794886768
42
-0.99999999999999989
10
-113.30000001570602
20
-1.9750018794886635
10
-56.149999821817403
20
-1.97500277707698
10
-1.5249998933073003
20
-1.9749988916802712
42
-0.99999999999999989
10
-1.52499982217872
20
-2.974998891680269
0
LWPOLYLINE
5
134
100
AcDbEntity
8
0
100
AcDbPolyline
90
4
70
1
43
0.0
10
1.97499999998367
20
1.5249912307623603
10
1.9750000000083552
20
93.724996187323285
42
-0.99999999999999989
10
2.974999999993825
20
93.724996187323114
10
2.9749999999978103
20
1.52499123076222
42
-0.99999999999999989
0
LWPOLYLINE
5
135
100
AcDbEntity
8
0
100
AcDbPolyline
90
8
70
1
43
0.0
10
-125.83750000000002
20
76.525000000000134
42
0.41421356237309503
10
-125.08750000000005
20
77.275000000000105
10
-125.08749999999993
20
93.475000000000094
42
0.414213546677139
10
-125.83749995980801
20
94.225000000000108
10
-131.33750000000001
20
94.225000000000136
42
0.41421356237312978
10
-132.08750000000003
20
93.474999999999994
10
-132.08749999999799
20
77.274999999999906
42
0.4142135623730569
10
-131.33749999999799
20
76.525000000000006
0
LWPOLYLINE
5
136
100
AcDbEntity
8
0
100
AcDbPolyline
90
8
70
1
43
0.0
10
-120.55
20
16.524999999999999
10
-108.05
20
16.525000000000013
42
-0.41421356237309503
10
-107.29999999999998
20
15.775000000000002
10
-107.30000000000001
20
3.2750000000000012
42
-0.41421356237310331
10
-108.05
20
2.5249999999999959
10
-120.55
20
2.5249999999999995
42
-0.41421356237309115
10
-121.30000000000001
20
3.2750000000000004
10
-121.29999999999998
20
15.775000000000002
42
-0.41421356237309503
0
LWPOLYLINE
5
137
100
AcDbEntity
8
0
100
AcDbPolyline
90
8
70
1
43
0.0
10
-102.25
20
3.2750000000000004
42
0.41421356237309892
10
-101.5
20
2.5249999999999972
10
-89
20
2.5250000000000039
42
0.41421356237310719
10
-88.250000000000014
20
3.2750000000000012
10
-88.25
20
15.775000000000002
42
0.41421356237309503
10
-89
20
16.524999999999999
10
-101.5
20
16.524999999999999
42
0.41421356237309503
10
-102.25000000000001
20
15.775000000000002
0
LWPOLYLINE
5
138
100
AcDbEntity
8
0
100
AcDbPolyline
90
8
70
1
43
0.0
10
-35.57500000000001
20
3.2750000000000004
42
0.41421356237309115
10
-34.825000000000003
20
2.525000000000003
10
-22.324999999999999
20
2.525000000000003
42
0.41421356237309548
10
-21.575000000000003
20
3.2750000000000012
10
-21.574999999999996
20
15.775000000000002
42
0.41421356237309503
10
-22.324999999999999
20
16.524999999999999
10
-34.825000000000003
20
16.524999999999999
42
0.41421356237309503
10
-35.575000000000003
20
15.775000000000002
0
LWPOLYLINE
5
139
100
AcDbEntity
8
0
100
AcDbPolyline
90
8
70
1
43
0.0
10
-3.2750000000000101
20
2.5249999999999999
10
-15.775000000000002
20
2.5250000000000004
42
-0.41421356237309503
10
-16.525000000000002
20
3.2750000000000004
10
-16.525000000000002
20
15.775000000000002
42
-0.41421356237309503
10
-15.775000000000002
20
16.525000000000002
10
-3.2750000000000101
20
16.525000000000002
42
-0.41421356237309809
10
-2.5249999999999999
20
15.775000000000004
10
-2.5249999999999999
20
3.2750000000000012
42
-0.41421356237309936
0
LWPOLYLINE
5
140
100
AcDbEntity
8
0
100
AcDbPolyline
90
8
70
1
43
0.0
10
-50.899999999999999
20
2.5249999999999999
10
-63.399999999999999
20
2.5249999999999986
42
-0.41421356237309503
10
-64.150000000000006
20
3.2750000000000004
10
-64.150000000000006
20
15.775000000000002
42
-0.41421356237309503
10
-63.399999999999999
20
16.525000000000002
10
-50.899999999999999
20
16.525000000000002
42
-0.41421356237309503
10
-50.149999999999999
20
15.775000000000002
10
-50.150000000000006
20
3.2750000000000012
42
-0.41421356237309936
0
LWPOLYLINE
5
141
100
AcDbEntity
8
0
100
AcDbPolyline
90
8
70
1
43
0.0
10
-82.450000000000017
20
16.524999999999995
42
0.41421356237309503
10
-83.200000000000003
20
15.775000000000002
10
-83.199999999999989
20
3.2750000000000004
42
0.41421356237310281
10
-82.450000000000017
20
2.5250000000000101
10
-69.950000000000017
20
2.5249999999999986
42
0.41421356237309548
10
-69.200000000000003
20
3.2750000000000012
10
-69.200000000000003
20
15.775000000000002
42
0.41421356237309503
10
-69.950000000000017
20
16.524999999999999
0
LWPOLYLINE
5
142
100
AcDbEntity
8
0
100
AcDbPolyline
90
8
70
1
43
0.0
10
-216.55000000000004
20
3.2750000000000004
42
0.41421356237307944
10
-215.80000000000001
20
2.5250000000000088
10
-203.30000000000001
20
2.5250000000000075
42
0.41421356237309548
10
-202.55000000000001
20
3.2750000000000012
10
-202.54999999999995
20
15.775000000000002
42
0.41421356237305601
10
-203.30000000000001
20
16.524999999999999
10
-215.80000000000001
20
16.524999999999995
42
0.41421356237309503
10
-216.55000000000001
20
15.775000000000002
0
LWPOLYLINE
5
143
100
AcDbEntity
8
0
100
AcDbPolyline
90
8
70
1
43
0.0
10
-240.65000000000001
20
15.775000000000002
10
-240.65000000000001
20
3.2750000000000012
42
-0.41421356237309548
10
-241.40000000000001
20
2.5250000000000075
10
-253.90000000000001
20
2.5250000000000061
42
-0.41421356237306772
10
-254.65000000000006
20
3.2750000000000004
10
-254.64999999999998
20
15.775000000000002
42
-0.41421356237309503
10
-253.90000000000001
20
16.524999999999959
10
-241.40000000000001
20
16.524999999999995
42
-0.41421356237309503
0
LWPOLYLINE
5
144
100
AcDbEntity
8
0
100
AcDbPolyline
90
8
70
1
43
0.0
10
-272.95000000000005
20
16.525000000000059
42
0.41421356237313406
10
-273.69999999999999
20
15.775000000000002
10
-273.69999999999999
20
3.2750000000000004
42
0.41421356237308721
10
-272.95000000000005
20
2.5250000000000101
10
-260.45000000000005
20
2.5250000000000075
42
0.41421356237309548
10
-259.69999999999999
20
3.2750000000000012
10
-259.69999999999993
20
15.775000000000002
42
0.41421356237305601
10
-260.45000000000005
20
16.524999999999999
0
LWPOLYLINE
5
145
100
AcDbEntity
8
0
100
AcDbPolyline
90
8
70
1
43
0.0
10
-184.25
20
2.525000000000003
42
0.41421356237307944
10
-183.49999999999997
20
3.2750000000000012
10
-183.5
20
15.775000000000002
42
0.41421356237309503
10
-184.25
20
16.524999999999999
10
-196.75
20
16.525000000000038
42
0.41421356237309503
10
-197.5
20
15.775000000000002
10
-197.5
20
3.2750000000000004
42
0.41421356237309503
10
-196.75
20
2.5249999999999999
0
LWPOLYLINE
5
146
100
AcDbEntity
8
0
100
AcDbPolyline
90
8
70
1
43
0.0
10
-234.84999999999999
20
16.524999999999959
42
0.41421356237309503
10
-235.59999999999997
20
15.775000000000002
10
-235.60000000000005
20
3.2750000000000004
42
0.41421356237306772
10
-234.84999999999999
20
2.5250000000000101
10
-222.34999999999999
20
2.5250000000000075
42
0.41421356237309548
10
-221.59999999999999
20
3.2750000000000012
10
-221.59999999999999
20
15.775000000000002
42
0.41421356237309503
10
-222.34999999999999
20
16.524999999999999
0
LWPOLYLINE
5
147
100
AcDbEntity
8
0
100
AcDbPolyline
90
8
70
1
43
0.0
10
-177.69999999999999
20
16.524999999999999
10
-165.19999999999999
20
16.524999999999995
42
-0.41421356237309503
10
-164.44999999999999
20
15.775000000000002
10
-164.44999999999996
20
3.2750000000000012
42
-0.41421356237307988
10
-165.19999999999999
20
2.525000000000003
10
-177.69999999999999
20
2.5250000000000075
42
-0.41421356237309503
10
-178.44999999999999
20
3.2750000000000004
10
-178.44999999999999
20
15.775000000000002
42
-0.41421356237309503
0
LWPOLYLINE
5
148
100
AcDbEntity
8
0
100
AcDbPolyline
90
8
70
1
43
0.0
10
-126.35000000000002
20
15.775000000000002
42
0.41421356237309503
10
-127.10000000000001
20
16.524999999999995
10
-139.60000000000002
20
16.524999999999995
42
0.41421356237309503
10
-140.34999999999999
20
15.775000000000002
10
-140.34999999999999
20
3.2750000000000004
42
0.41421356237310281
10
-139.60000000000002
20
2.5250000000000101
10
-127.10000000000001
20
2.5250000000000048
42
0.41421356237310331
10
-126.34999999999999
20
3.2750000000000012
0
LWPOLYLINE
5
149
100
AcDbEntity
8
0
100
AcDbPolyline
90
8
70
1
43
0.0
10
-145.40000000000001
20
15.775000000000002
42
0.41421356237309503
10
-146.15000000000003
20
16.525000000000013
10
-158.65000000000003
20
16.524999999999981
42
0.41421356237309503
10
-159.40000000000001
20
15.775000000000002
10
-159.40000000000001
20
3.2750000000000004
42
0.41421356237309503
10
-158.65000000000003
20
2.5249999999999999
10
-146.15000000000003
20
2.5249999999999972
42
0.41421356237309936
10
-145.40000000000001
20
3.2750000000000012
0
LWPOLYLINE
5
150
100
AcDbEntity
8
0
100
AcDbPolyline
90
8
70
1
43
0.0
10
-3.2750000000000101
20
21.575000000000003
42
0.41421356237309892
10
-2.525000000000003
20
22.324999999999999
10
-2.5250000000000039
20
34.825000000000003
42
0.41421356237309503
10
-3.2750000000000101
20
35.575000000000003
10
-15.775000000000002
20
35.57500000000001
42
0.41421356237309503
10
-16.524999999999999
20
34.825000000000003
10
-16.524999999999999
20
22.324999999999999
42
0.41421356237309503
10
-15.775000000000002
20
21.575000000000003
0
LWPOLYLINE
5
151
100
AcDbEntity
8
0
100
AcDbPolyline
90
8
70
1
43
0.0
10
-78.724999999999994
20
34.825000000000003
10
-78.724999999999994
20
22.324999999999999
42
-0.41421356237309503
10
-79.474999999999994
20
21.574999999999996
10
-91.974999999999994
20
21.574999999999989
42
-0.41421356237309503
10
-92.725000000000009
20
22.324999999999999
10
-92.725000000000023
20
34.825000000000003
42
-0.41421356237309503
10
-91.974999999999994
20
35.575000000000031
10
-79.474999999999994
20
35.575000000000003
42
-0.41421356237309503
0
LWPOLYLINE
5
152
100
AcDbEntity
8
0
100
AcDbPolyline
90
8
70
1
43
0.0
10
-349.90000000000003
20
3.2750000000000004
42
0.41421356237308721
10
-349.14999999999998
20
2.5249999999999924
10
-336.64999999999998
20
2.5249999999999999
42
0.41421356237308377
10
-335.89999999999998
20
3.2750000000000012
10
-335.90000000000003
20
15.775000000000002
42
0.41421356237309503
10
-336.64999999999998
20
16.524999999999999
10
-349.14999999999998
20
16.524999999999963
42
0.41421356237301699
10
-349.90000000000003
20
15.775000000000002
0
LWPOLYLINE
5
153
100
AcDbEntity
8
0
100
AcDbPolyline
90
8
70
1
43
0.0
10
-292.75
20
3.2750000000000004
42
0.41421356237309503
10
-292
20
2.5250000000000075
10
-279.5
20
2.5250000000000039
42
0.41421356237307599
10
-278.75
20
3.2750000000000012
10
-278.75000000000006
20
15.775000000000002
42
0.41421356237313406
10
-279.5
20
16.524999999999999
10
-292
20
16.524999999999999
42
0.41421356237309503
10
-292.75
20
15.775000000000002
0
LWPOLYLINE
5
154
100
AcDbEntity
8
0
100
AcDbPolyline
90
32
70
1
43
0.0
10
-305.88699999999994
20
1.2750000000000903
42
0.41421356237310675
10
-305.137
20
0.52500000000010028
10
-299.63700000000006
20
0.52500000000005631
42
0.4142135623730599
10
-298.887
20
1.2750000000000303
10
-298.887
20
2.5249999999999999
10
-298.55000000000007
20
2.5250000000000075
42
0.41421356237309548
10
-297.80000000000001
20
3.2750000000000012
10
-297.80000000000001
20
15.775000000000002
42
0.41421356237309503
10
-298.55000000000007
20
16.524999999999999
10
-298.887
20
16.524999999999999
10
-298.887
20
17.774999999999999
42
0.4142135623730569
10
-299.63700000000006
20
18.524999999999999
10
-305.137
20
18.524999999999956
42
0.41421356237309503
10
-305.88700000000006
20
17.774999999999999
10
-305.88700000000006
20
16.524999999999999
10
-322.76299999999998
20
16.524999999999999
10
-322.76299999999998
20
17.774999999999999
42
0.41421356237309503
10
-323.51300000000003
20
18.524999999999999
10
-329.01299999999998
20
18.524999999999956
42
0.41421356237309503
10
-329.76300000000003
20
17.774999999999999
10
-329.76300000000003
20
16.524999999999999
10
-330.10000000000002
20
16.525000000000002
42
0.41421356237305601
10
-330.85000000000002
20
15.775000000000002
10
-330.85000000000014
20
3.2750000000000004
42
0.4142135623730599
10
-330.10000000000002
20
2.5249999999999702
10
-329.76300000000003
20
2.5249999999999999
10
-329.76300000000009
20
1.2750000000001402
42
0.41421356237308332
10
-329.01299999999998
20
0.52500000000003899
10
-323.51300000000003
20
0.52500000000015212
42
0.41421356237308721
10
-322.76299999999998
20
1.2750000000001602
10
-322.76299999999998
20
2.5249999999999999
10
-305.88700000000006
20
2.5249999999999999
0
LWPOLYLINE
5
155
100
AcDbEntity
8
0
100
AcDbPolyline
90
8
70
1
43
0.0
10
-207.02500000000001
20
22.324999999999999
10
-207.02500000000001
20
34.825000000000003
42
-0.41421356237309503
10
-206.27500000000001
20
35.574999999999996
10
-193.77500000000001
20
35.575000000000031
42
-0.41421356237309503
10
-193.02499999999998
20
34.825000000000003
10
-193.02500000000006
20
22.324999999999999
42
-0.41421356237309503
10
-193.77500000000001
20
21.575000000000042
10
-206.27500000000001
20
21.575000000000006
42
-0.41421356237309503
0
LWPOLYLINE
5
156
100
AcDbEntity
8
0
100
AcDbPolyline
90
8
70
1
43
0.0
10
-187.22499999999999
20
35.575000000000045
42
0.41421356237309503
10
-187.97500000000002
20
34.825000000000003
10
-187.97499999999999
20
22.324999999999999
42
0.41421356237309503
10
-187.22499999999999
20
21.575000000000003
10
-174.72499999999999
20
21.574999999999992
42
0.41421356237309503
10
-173.97500000000002
20
22.324999999999999
10
-173.97500000000005
20
34.825000000000003
42
0.41421356237309503
10
-174.72499999999999
20
35.575000000000003
0
LWPOLYLINE
5
157
100
AcDbEntity
8
0
100
AcDbPolyline
90
8
70
1
43
0.0
10
-154.92500000000004
20
34.825000000000003
42
0.41421356237309503
10
-155.67500000000001
20
35.574999999999982
10
-168.17500000000001
20
35.575000000000031
42
0.41421356237309503
10
-168.92500000000001
20
34.825000000000003
10
-168.92499999999995
20
22.324999999999999
42
0.41421356237313323
10
-168.17500000000001
20
21.575000000000003
10
-155.67500000000001
20
21.575000000000024
42
0.41421356237309503
10
-154.92500000000001
20
22.324999999999999
0
LWPOLYLINE
5
158
100
AcDbEntity
8
0
100
AcDbPolyline
90
8
70
1
43
0.0
10
-149.125
20
35.575000000000003
10
-136.625
20
35.574999999999982
42
-0.41421356237309503
10
-135.87500000000003
20
34.825000000000003
10
-135.87500000000003
20
22.324999999999999
42
-0.41421356237309503
10
-136.625
20
21.575000000000024
10
-149.125
20
21.574999999999989
42
-0.41421356237309503
10
-149.87500000000003
20
22.324999999999999
10
-149.875
20
34.825000000000003
42
-0.41421356237309503
0
LWPOLYLINE
5
159
100
AcDbEntity
8
0
100
AcDbPolyline
90
8
70
1
43
0.0
10
-68.162499999999994
20
35.575000000000003
10
-55.662500000000001
20
35.575000000000003
42
-0.41421356237309503
10
-54.912500000000001
20
34.825000000000003
10
-54.912500000000001
20
22.324999999999999
42
-0.41421356237309503
10
-55.662500000000001
20
21.574999999999996
10
-68.162499999999994
20
21.575000000000006
42
-0.41421356237309503
10
-68.912499999999994
20
22.324999999999999
10
-68.912500000000009
20
34.825000000000003
42
-0.41421356237309503
0
LWPOLYLINE
5
160
100
AcDbEntity
8
0
100
AcDbPolyline
90
8
70
1
43
0.0
10
-111.77500000000002
20
22.324999999999999
10
-111.77500000000001
20
34.825000000000003
42
-0.41421356237309503
10
-111.02500000000001
20
35.574999999999996
10
-98.525000000000006
20
35.574999999999982
42
-0.41421356237309503
10
-97.775000000000034
20
34.825000000000003
10
-97.775000000000006
20
22.324999999999999
42
-0.41421356237309503
10
-98.525000000000006
20
21.574999999999989
10
-111.02500000000001
20
21.574999999999989
42
-0.41421356237309503
0
LWPOLYLINE
5
161
100
AcDbEntity
8
0
100
AcDbPolyline
90
8
70
1
43
0.0
10
-21.574999999999989
20
34.825000000000003
42
0.41421356237309503
10
-22.324999999999999
20
35.575000000000017
10
-34.825000000000003
20
35.575000000000017
42
0.41421356237309503
10
-35.575000000000003
20
34.825000000000003
10
-35.575000000000003
20
22.324999999999999
42
0.41421356237309503
10
-34.825000000000003
20
21.575000000000003
10
-22.324999999999999
20
21.57500000000001
42
0.41421356237309503
10
-21.575000000000003
20
22.324999999999999
0
LWPOLYLINE
5
162
100
AcDbEntity
8
0
100
AcDbPolyline
90
8
70
1
43
0.0
10
-116.82500000000003
20
34.825000000000003
42
0.41421356237309503
10
-117.575
20
35.574999999999982
10
-130.07499999999999
20
35.575000000000017
42
0.41421356237309503
10
-130.82499999999999
20
34.825000000000003
10
-130.82500000000002
20
22.324999999999999
42
0.41421356237309503
10
-130.07499999999999
20
21.575000000000003
10
-117.575
20
21.575000000000024
42
0.41421356237309503
10
-116.82500000000002
20
22.324999999999999
0
LWPOLYLINE
5
163
100
AcDbEntity
8
0
100
AcDbPolyline
90
8
70
1
43
0.0
10
-22.324999999999999
20
40.625
10
-34.825000000000003
20
40.625
42
-0.41421356237309503
10
-35.575000000000003
20
41.375
10
-35.574999999999996
20
53.875
42
-0.41421356237309503
10
-34.825000000000003
20
54.624999999999993
10
-22.324999999999999
20
54.624999999999993
42
-0.41421356237309503
10
-21.575000000000006
20
53.875
10
-21.574999999999996
20
41.375
42
-0.41421356237309503
0
LWPOLYLINE
5
164
100
AcDbEntity
8
0
100
AcDbPolyline
90
8
70
1
43
0.0
10
-225.32499999999999
20
35.574999999999996
42
0.41421356237309503
10
-226.07499999999999
20
34.825000000000003
10
-226.07499999999993
20
22.324999999999999
42
0.41421356237309503
10
-225.32499999999999
20
21.575000000000003
10
-212.82499999999999
20
21.575000000000006
42
0.41421356237309503
10
-212.07499999999999
20
22.324999999999999
10
-212.07499999999999
20
34.825000000000003
42
0.41421356237309503
10
-212.82499999999999
20
35.575000000000003
0
LWPOLYLINE
5
165
100
AcDbEntity
8
0
100
AcDbPolyline
90
8
70
1
43
0.0
10
-283.22500000000002
20
22.324999999999999
10
-283.22500000000002
20
34.825000000000003
42
-0.41421356237309503
10
-282.47500000000002
20
35.575000000000017
10
-269.97500000000002
20
35.575000000000031
42
-0.41421356237309503
10
-269.22500000000002
20
34.825000000000003
10
-269.22500000000002
20
22.324999999999999
42
-0.41421356237309503
10
-269.97500000000002
20
21.575000000000006
10
-282.47500000000002
20
21.574999999999971
42
-0.41421356237309503
0
LWPOLYLINE
5
166
100
AcDbEntity
8
0
100
AcDbPolyline
90
8
70
1
43
0.0
10
-263.42500000000001
20
35.574999999999996
42
0.41421356237309503
10
-264.17500000000001
20
34.825000000000003
10
-264.17500000000007
20
22.324999999999999
42
0.41421356237309503
10
-263.42500000000001
20
21.575000000000003
10
-250.92500000000001
20
21.575000000000006
42
0.41421356237309503
10
-250.17500000000001
20
22.324999999999999
10
-250.17500000000001
20
34.825000000000003
42
0.41421356237309503
10
-250.92500000000001
20
35.575000000000003
0
LWPOLYLINE
5
167
100
AcDbEntity
8
0
100
AcDbPolyline
90
8
70
1
43
0.0
10
-231.125
20
34.825000000000003
42
0.41421356237309503
10
-231.875
20
35.575000000000003
10
-244.375
20
35.574999999999996
42
0.41421356237309503
10
-245.12500000000003
20
34.825000000000003
10
-245.12499999999994
20
22.324999999999999
42
0.41421356237309503
10
-244.375
20
21.575000000000003
10
-231.875
20
21.575000000000006
42
0.41421356237309503
10
-231.125
20
22.324999999999999
0
LWPOLYLINE
5
168
100
AcDbEntity
8
0
100
AcDbPolyline
90
8
70
1
43
0.0
10
-302.27499999999998
20
22.324999999999999
10
-302.27499999999998
20
34.825000000000003
42
-0.41421356237309503
10
-301.52499999999998
20
35.574999999999996
10
-289.02499999999998
20
35.575000000000031
42
-0.41421356237309503
10
-288.27499999999998
20
34.825000000000003
10
-288.27499999999998
20
22.324999999999999
42
-0.41421356237309503
10
-289.02499999999998
20
21.575000000000006
10
-301.52499999999998
20
21.575000000000006
42
-0.41421356237309503
0
LWPOLYLINE
5
169
100
AcDbEntity
8
0
100
AcDbPolyline
90
8
70
1
43
0.0
10
-349.14999999999998
20
35.575000000000003
10
-336.64999999999998
20
35.575000000000031
42
-0.41421356237309503
10
-335.89999999999998
20
34.825000000000003
10
-335.89999999999998
20
22.324999999999999
42
-0.41421356237309503
10
-336.64999999999998
20
21.574999999999971
10
-349.14999999999998
20
21.574999999999971
42
-0.41421356237309503
10
-349.90000000000003
20
22.324999999999999
10
-349.9000000000002
20
34.825000000000003
42
-0.41421356237301532
0
LWPOLYLINE
5
170
100
AcDbEntity
8
0
100
AcDbPolyline
90
8
70
1
43
0.0
10
-160.4375
20
40.625
10
-172.9375
20
40.625000000000043
42
-0.41421356237309503
10
-173.68749999999994
20
41.375
10
-173.6875
20
53.875
42
-0.41421356237309503
10
-172.9375
20
54.624999999999993
10
-160.4375
20
54.624999999999972
42
-0.4142135623730569
10
-159.68749999999994
20
53.875
10
-159.6875
20
41.375
42
-0.41421356237309503
0
LWPOLYLINE
5
171
100
AcDbEntity
8
0
100
AcDbPolyline
90
8
70
1
43
0.0
10
-71.293750000000003
20
41.375
10
-71.293749999999974
20
53.875
42
-0.41421356237309503
10
-70.543750000000003
20
54.624999999999979
10
-53.28125
20
54.624999999999993
42
-0.41421356237309503
10
-52.531250000000007
20
53.875
10
-52.531250000000007
20
41.375
42
-0.41421356237309503
10
-53.28125
20
40.625000000000007
10
-70.543750000000003
20
40.625
42
-0.41421356237309503
0
LWPOLYLINE
5
172
100
AcDbEntity
8
0
100
AcDbPolyline
90
8
70
1
43
0.0
10
-236.63749999999999
20
40.625000000000007
42
0.41421356237309503
10
-235.88750000000002
20
41.375
10
-235.88750000000002
20
53.875
42
0.41421356237309503
10
-236.63749999999999
20
54.625
10
-249.13749999999999
20
54.624999999999993
42
0.41421356237309503
10
-249.88749999999999
20
53.875
10
-249.88749999999999
20
41.375
42
0.41421356237309503
10
-249.13749999999999
20
40.625
0
LWPOLYLINE
5
173
100
AcDbEntity
8
0
100
AcDbPolyline
90
8
70
1
43
0.0
10
-16.524999999999999
20
41.375
10
-16.525000000000002
20
53.875
42
-0.41421356237309503
10
-15.775000000000002
20
54.625
10
-3.2750000000000101
20
54.624999999999986
42
-0.41421356237310675
10
-2.5249999999999972
20
53.875
10
-2.5250000000000083
20
41.375
42
-0.41421356237309503
10
-3.2750000000000101
20
40.625
10
-15.775000000000002
20
40.625
42
-0.41421356237309503
0
LWPOLYLINE
5
174
100
AcDbEntity
8
0
100
AcDbPolyline
90
8
70
1
43
0.0
10
-83.487500000000011
20
53.875
10
-83.487499999999983
20
41.375
42
-0.41421356237309503
10
-84.237499999999997
20
40.624999999999993
10
-96.737499999999997
20
40.624999999999972
42
-0.41421356237309503
10
-97.487500000000026
20
41.375
10
-97.487499999999983
20
53.875
42
-0.41421356237309503
10
-96.737499999999997
20
54.624999999999979
10
-84.237499999999997
20
54.624999999999993
42
-0.41421356237309503
0
LWPOLYLINE
5
175
100
AcDbEntity
8
0
100
AcDbPolyline
90
8
70
1
43
0.0
10
-135.58750000000001
20
41.375
42
0.41421356237309503
10
-134.83750000000001
20
40.625000000000007
10
-122.33750000000001
20
40.624999999999993
42
0.41421356237309503
10
-121.58750000000001
20
41.375
10
-121.58750000000001
20
53.875
42
0.41421356237309503
10
-122.33750000000001
20
54.625
10
-134.83750000000001
20
54.625000000000014
42
0.41421356237309503
10
-135.58750000000001
20
53.875
0
LWPOLYLINE
5
176
100
AcDbEntity
8
0
100
AcDbPolyline
90
8
70
1
43
0.0
10
-115.78749999999999
20
54.625
42
0.41421356237309503
10
-116.53750000000001
20
53.875
10
-116.53750000000001
20
41.375
42
0.41421356237309503
10
-115.78749999999999
20
40.625
10
-103.28749999999999
20
40.625
42
0.41421356237309503
10
-102.53749999999999
20
41.375
10
-102.53749999999998
20
53.875
42
0.41421356237309503
10
-103.28749999999999
20
54.625
0
LWPOLYLINE
5
177
100
AcDbEntity
8
0
100
AcDbPolyline
90
8
70
1
43
0.0
10
-197.78750000000002
20
53.875
42
0.41421356237309503
10
-198.53750000000002
20
54.624999999999993
10
-211.03750000000002
20
54.625000000000043
42
0.41421356237309503
10
-211.78750000000002
20
53.875
10
-211.78750000000002
20
41.375
42
0.41421356237309503
10
-211.03750000000002
20
40.625
10
-198.53750000000002
20
40.624999999999964
42
0.41421356237309503
10
-197.78750000000002
20
41.375
0
LWPOLYLINE
5
178
100
AcDbEntity
8
0
100
AcDbPolyline
90
8
70
1
43
0.0
10
-287.23750000000001
20
54.625
10
-274.73750000000001
20
54.624999999999993
42
-0.41421356237309503
10
-273.98750000000001
20
53.875
10
-273.98750000000001
20
41.375
42
-0.41421356237309503
10
-274.73750000000001
20
40.625000000000007
10
-287.23750000000001
20
40.625000000000007
42
-0.41421356237309503
10
-287.98750000000001
20
41.375
10
-287.98750000000001
20
53.875
42
-0.41421356237309503
0
LWPOLYLINE
5
179
100
AcDbEntity
8
0
100
AcDbPolyline
90
8
70
1
43
0.0
10
-268.9375
20
41.375
42
0.41421356237309503
10
-268.1875
20
40.625000000000014
10
-255.6875
20
40.624999999999943
42
0.41421356237313323
10
-254.93750000000003
20
41.375
10
-254.93750000000006
20
53.875
42
0.41421356237309503
10
-255.6875
20
54.625
10
-268.1875
20
54.624999999999993
42
0.41421356237309503
10
-268.9375
20
53.875
0
LWPOLYLINE
5
180
100
AcDbEntity
8
0
100
AcDbPolyline
90
8
70
1
43
0.0
10
-154.63749999999999
20
41.375
10
-154.63750000000002
20
53.875
42
-0.41421356237309503
10
-153.88749999999999
20
54.625000000000028
10
-141.38749999999999
20
54.625000000000028
42
-0.41421356237309503
10
-140.63749999999996
20
53.875
10
-140.63750000000002
20
41.375
42
-0.41421356237309503
10
-141.38749999999999
20
40.625000000000028
10
-153.88749999999999
20
40.625000000000007
42
-0.41421356237309503
0
LWPOLYLINE
5
181
100
AcDbEntity
8
0
100
AcDbPolyline
90
8
70
1
43
0.0
10
-192.73750000000004
20
41.375
10
-192.73750000000007
20
53.875
42
-0.41421356237309503
10
-191.98750000000001
20
54.625000000000057
10
-179.48750000000001
20
54.624999999999993
42
-0.41421356237309503
10
-178.73750000000001
20
53.875
10
-178.73749999999998
20
41.375
42
-0.41421356237309503
10
-179.48750000000001
20
40.624999999999964
10
-191.98750000000001
20
40.624999999999972
42
-0.41421356237309503
0
LWPOLYLINE
5
182
100
AcDbEntity
8
0
100
AcDbPolyline
90
8
70
1
43
0.0
10
-217.58750000000003
20
40.625
10
-230.08750000000003
20
40.625000000000007
42
-0.41421356237309503
10
-230.83750000000003
20
41.375
10
-230.83750000000003
20
53.875
42
-0.41421356237309503
10
-230.08750000000003
20
54.624999999999993
10
-217.58750000000003
20
54.624999999999957
42
-0.41421356237309503
10
-216.83750000000006
20
53.875
10
-216.83749999999992
20
41.375
42
-0.4142135623730569
0
LWPOLYLINE
5
183
100
AcDbEntity
8
0
100
AcDbPolyline
90
8
70
1
43
0.0
10
-349.14999999999998
20
54.625000000000028
42
0.41421356237309503
10
-349.90000000000003
20
53.875
10
-349.90000000000009
20
41.375
42
0.4142135623730569
10
-349.14999999999998
20
40.625
10
-336.64999999999998
20
40.625000000000043
42
0.41421356237309503
10
-335.89999999999998
20
41.375
10
-335.89999999999998
20
53.875
42
0.41421356237309503
10
-336.64999999999998
20
54.625
0
LWPOLYLINE
5
184
100
AcDbEntity
8
0
100
AcDbPolyline
90
54
70
1
43
0.0
10
-293.78750000000002
20
40.625
10
-296.50574999999998
20
40.625
10
-296.50574999999998
20
39.375000000000199
42
-0.41421356237309503
10
-297.25574999999998
20
38.625000000000171
10
-302.75574999999901
20
38.625000000000071
42
-0.41421356237309503
10
-303.50574999999907
20
39.375000000000099
10
-303.50574999999901
20
40.625
10
-314.46875
20
40.625
10
-314.46875
20
35.575000000000003
10
-312.83749999999998
20
35.574999999999996
42
-0.41421356237309503
10
-312.08749999999998
20
34.825000000000003
10
-312.08749999999998
20
29.650426325031809
42
-0.36358160544332607
10
-311.46875
20
28.911999999999999
10
-311.46875
20
23.412000000000003
42
-0.36358160544332724
10
-312.08749999999998
20
22.673573674968182
10
-312.08749999999998
20
22.324999999999999
42
-0.41421356237309503
10
-312.83749999999998
20
21.574999999999996
10
-325.33749999999998
20
21.574999999999971
42
-0.41421356237309503
10
-326.08749999999998
20
22.324999999999999
10
-326.08749999999998
20
22.661999999999999
10
-328.71875
20
22.661999999999974
42
-0.41421356237309503
10
-329.46875000000006
20
23.412000000000003
10
-329.46875000000006
20
28.911999999999999
42
-0.41421356237309503
10
-328.71875
20
29.662000000000003
10
-326.08749999999998
20
29.662000000000003
10
-326.08749999999998
20
31.100000000000001
10
-327.71875
20
31.099999999999977
42
-0.41421356237309503
10
-328.46875000000006
20
31.850000000000005
10
-328.46875000000006
20
44.350000000000009
42
-0.41421356237309503
10
-327.71875
20
45.100000000000009
10
-327.38175000000007
20
45.100000000000009
10
-327.38175000000007
20
46.537999999999997
10
-328.71875
20
46.537999999999968
42
-0.41421356237309503
10
-329.46875000000006
20
47.287999999999997
10
-329.46875000000006
20
52.788000000000004
42
-0.41421356237309503
10
-328.71875
20
53.537999999999997
10
-327.38175000000007
20
53.537999999999997
10
-327.38175000000007
20
55.875
42
-0.41421356237309503
10
-326.63175000000001
20
56.625000000000007
10
-321.13175000000007
20
56.625000000000028
42
-0.41421356237309503
10
-320.38175000000001
20
55.875
10
-320.38175000000001
20
53.537999999999997
10
-318.94375000000002
20
53.537999999999997
10
-318.94375000000002
20
53.875
42
-0.41421356237309503
10
-318.19375000000002
20
54.625
10
-303.50574999999998
20
54.625
10
-303.50574999999998
20
55.875
42
-0.41421356237309503
10
-302.75574999999998
20
56.625000000000007
10
-297.25574999999998
20
56.625
42
-0.41421356237309503
10
-296.50574999999998
20
55.875
10
-296.50574999999998
20
54.625
10
-293.78750000000002
20
54.624999999999993
42
-0.41421356237309503
10
-293.03750000000002
20
53.875
10
-293.03750000000002
20
41.375
42
-0.41421356237309503
0
LWPOLYLINE
5
185
100
AcDbEntity
8
0
100
AcDbPolyline
90
8
70
1
43
0.0
10
-15.775000000000002
20
73.675000000000011
42
0.41421356237309503
10
-16.525000000000002
20
72.925000000000011
10
-16.525000000000009
20
60.425000000000004
42
0.41421356237309503
10
-15.775000000000002
20
59.675000000000004
10
-3.2750000000000101
20
59.674999999999997
42
0.41421356237309503
10
-2.5249999999999999
20
60.425000000000004
10
-2.5249999999999986
20
72.925000000000011
42
0.41421356237311063
10
-3.2750000000000101
20
73.674999999999997
0
LWPOLYLINE
5
186
100
AcDbEntity
8
0
100
AcDbPolyline
90
32
70
1
43
0.0
10
-84.494249999999994
20
58.425000000000004
10
-84.494249999999994
20
59.675000000000004
10
-87.212500000000006
20
59.674999999999997
42
-0.41421356237309503
10
-87.96250000000002
20
60.425000000000004
10
-87.962499999999977
20
72.925000000000011
42
-0.41421356237309503
10
-87.212500000000006
20
73.674999999999955
10
-84.494249999999994
20
73.674999999999997
10
-84.494250000000022
20
74.924999999999997
42
-0.41421356237309503
10
-83.744250000000008
20
75.675000000000011
10
-78.244249999999994
20
75.674999999999983
42
-0.41421356237309503
10
-77.494250000000008
20
74.924999999999997
10
-77.494249999999994
20
73.674999999999997
10
-60.618250000000003
20
73.674999999999997
10
-60.618249999999982
20
74.924999999999997
42
-0.41421356237309503
10
-59.868250000000003
20
75.674999999999969
10
-54.368250000000003
20
75.675000000000011
42
-0.41421356237309503
10
-53.618249999999996
20
74.924999999999997
10
-53.618250000000003
20
73.674999999999997
10
-53.28125
20
73.674999999999997
42
-0.41421356237309503
10
-52.531250000000007
20
72.925000000000011
10
-52.53125
20
60.425000000000004
42
-0.41421356237309503
10
-53.28125
20
59.675000000000004
10
-53.618250000000003
20
59.675000000000004
10
-53.618250000000003
20
58.425000000000004
42
-0.41421356237309503
10
-54.368250000000003
20
57.674999999999997
10
-59.868250000000003
20
57.675000000000011
42
-0.41421356237309503
10
-60.618249999999996
20
58.425000000000004
10
-60.618250000000003
20
59.675000000000004
10
-77.494249999999994
20
59.675000000000004
10
-77.494250000000008
20
58.425000000000004
42
-0.41421356237309503
10
-78.244249999999994
20
57.675000000000018
10
-83.744250000000008
20
57.675000000000011
42
-0.41421356237309503
0
LWPOLYLINE
5
187
100
AcDbEntity
8
0
100
AcDbPolyline
90
8
70
1
43
0.0
10
-35.575000000000024
20
60.425000000000004
42
0.41421356237309503
10
-34.825000000000003
20
59.674999999999983
10
-22.324999999999999
20
59.675000000000004
42
0.41421356237309503
10
-21.575000000000003
20
60.425000000000004
10
-21.574999999999996
20
72.925000000000011
42
0.41421356237309503
10
-22.324999999999999
20
73.674999999999997
10
-34.825000000000003
20
73.674999999999997
42
0.41421356237309503
10
-35.575000000000003
20
72.925000000000011
0
LWPOLYLINE
5
188
100
AcDbEntity
8
0
100
AcDbPolyline
90
8
70
1
43
0.0
10
-182.46250000000001
20
73.675000000000068
42
0.41421356237309503
10
-183.21250000000006
20
72.925000000000011
10
-183.21250000000003
20
60.425000000000004
42
0.41421356237309503
10
-182.46250000000001
20
59.675000000000004
10
-169.96250000000001
20
59.674999999999976
42
0.41421356237309503
10
-169.21250000000001
20
60.425000000000004
10
-169.21250000000001
20
72.925000000000011
42
0.41421356237309503
10
-169.96250000000001
20
73.674999999999997
0
LWPOLYLINE
5
189
100
AcDbEntity
8
0
100
AcDbPolyline
90
8
70
1
43
0.0
10
-107.01250000000002
20
60.425000000000004
10
-107.01250000000002
20
72.925000000000011
42
-0.41421356237309503
10
-106.2625
20
73.675000000000011
10
-93.762500000000003
20
73.675000000000011
42
-0.41421356237309503
10
-93.012499999999989
20
72.925000000000011
10
-93.012500000000031
20
60.425000000000004
42
-0.41421356237309503
10
-93.762500000000003
20
59.675000000000026
10
-106.2625
20
59.674999999999997
42
-0.41421356237309503
0
LWPOLYLINE
5
190
100
AcDbEntity
8
0
100
AcDbPolyline
90
8
70
1
43
0.0
10
-164.16250000000002
20
60.425000000000004
10
-164.16250000000002
20
72.925000000000011
42
-0.41421356237309503
10
-163.41249999999999
20
73.67500000000004
10
-150.91249999999999
20
73.675000000000082
42
-0.41421356237313323
10
-150.16250000000002
20
72.925000000000011
10
-150.16249999999999
20
60.425000000000004
42
-0.41421356237309503
10
-150.91249999999999
20
59.674999999999997
10
-163.41249999999999
20
59.674999999999976
42
-0.41421356237309503
0
LWPOLYLINE
5
191
100
AcDbEntity
8
0
100
AcDbPolyline
90
8
70
1
43
0.0
10
-112.06250000000004
20
72.925000000000011
42
0.41421356237309503
10
-112.8125
20
73.674999999999955
10
-125.3125
20
73.675000000000011
42
0.41421356237309503
10
-126.06250000000001
20
72.925000000000011
10
-126.06250000000003
20
60.425000000000004
42
0.41421356237309503
10
-125.3125
20
59.675000000000004
10
-112.8125
20
59.675000000000011
42
0.41421356237309503
10
-112.0625
20
60.425000000000004
0
LWPOLYLINE
5
192
100
AcDbEntity
8
0
100
AcDbPolyline
90
8
70
1
43
0.0
10
-221.31249999999997
20
60.425000000000004
42
0.41421356237309503
10
-220.56250000000003
20
59.675000000000054
10
-208.06250000000003
20
59.675000000000011
42
0.41421356237309503
10
-207.31250000000003
20
60.425000000000004
10
-207.3125
20
72.925000000000011
42
0.41421356237309503
10
-208.06250000000003
20
73.674999999999997
10
-220.56250000000003
20
73.675000000000054
42
0.41421356237313323
10
-221.3125
20
72.925000000000011
0
LWPOLYLINE
5
193
100
AcDbEntity
8
0
100
AcDbPolyline
90
8
70
1
43
0.0
10
-239.61250000000004
20
73.674999999999997
42
0.41421356237309503
10
-240.36250000000001
20
72.925000000000011
10
-240.36249999999998
20
60.425000000000004
42
0.41421356237309503
10
-239.61250000000004
20
59.675000000000004
10
-227.11250000000004
20
59.675000000000011
42
0.41421356237309503
10
-226.36250000000004
20
60.425000000000004
10
-226.36250000000001
20
72.925000000000011
42
0.41421356237309503
10
-227.11250000000004
20
73.674999999999997
0
LWPOLYLINE
5
194
100
AcDbEntity
8
0
100
AcDbPolyline
90
8
70
1
43
0.0
10
-144.36250000000001
20
73.674999999999997
42
0.41421356237309503
10
-145.11250000000001
20
72.925000000000011
10
-145.11250000000001
20
60.425000000000004
42
0.41421356237309503
10
-144.36250000000001
20
59.675000000000004
10
-131.86250000000001
20
59.674999999999997
42
0.41421356237309503
10
-131.11250000000001
20
60.425000000000004
10
-131.11250000000007
20
72.925000000000011
42
0.41421356237309503
10
-131.86250000000001
20
73.674999999999997
0
CIRCLE
5
195
100
AcDbEntity
8
0
100
AcDbCircle
10
-335.875
20
-5.9782961924190801
30
0
40
1.7499999999999702
210
0
220
0
230
1
0
CIRCLE
5
196
100
AcDbEntity
8
0
100
AcDbCircle
10
-358.11963415328898
20
47.646705301866803
30
0
40
1.7499999999999702
210
0
220
0
230
1
0
CIRCLE
5
197
100
AcDbEntity
8
0
100
AcDbCircle
10
-333.375
20
101.27170377541302
30
0
40
1.7500000000000402
210
0
220
0
230
1
0
CIRCLE
5
198
100
AcDbEntity
8
0
100
AcDbCircle
10
-253.40000000000003
20
101.27170377541302
30
0
40
1.7500000000000102
210
0
220
0
230
1
0
CIRCLE
5
199
100
AcDbEntity
8
0
100
AcDbCircle
10
5.6946341532884599
20
47.646705806848303
30
0
40
1.7500000000000002
210
0
220
0
230
1
0
CIRCLE
5
200
100
AcDbEntity
8
0
100
AcDbCircle
10
-276.22500000000002
20
-5.9718117528826511
30
0
40
1.7500000000000102
210
0
220
0
230
1
0
CIRCLE
5
201
100
AcDbEntity
8
0
100
AcDbCircle
10
-19.050000000000004
20
101.27170377541302
30
0
40
1.7499999999999902
210
0
220
0
230
1
0
CIRCLE
5
202
100
AcDbEntity
8
0
100
AcDbCircle
10
-117.72500000000001
20
101.27170377541302
30
0
40
1.7499999999999902
210
0
220
0
230
1
0
CIRCLE
5
203
100
AcDbEntity
8
0
100
AcDbCircle
10
-19.049999999999901
20
-5.9718117528826999
30
0
40
1.7500000000000002
210
0
220
0
230
1
0
CIRCLE
5
204
100
AcDbEntity
8
0
100
AcDbCircle
10
-176.21250000000001
20
-5.9782961921771003
30
0
40
1.7500000000000102
210
0
220
0
230
1
0
CIRCLE
5
205
100
AcDbEntity
8
0
100
AcDbCircle
10
-85.724999999999895
20
-5.9718117528826911
30
0
40
1.7500000000000102
210
0
220
0
230
1
0
CIRCLE
5
206
100
AcDbEntity
8
0
100
AcDbCircle
10
-73.818749999999994
20
24.175000000000004
30
0
40
2
210
0
220
0
230
1
0
ENDSEC
0
SECTION
2
OBJECTS
0
DICTIONARY
5
C
100
AcDbDictionary
3
ACAD_GROUP
350
D
3
ACAD_MLINESTYLE
350
17
0
DICTIONARY
5
D
100
AcDbDictionary
0
DICTIONARY
5
1A
330
C
100
AcDbDictionary
0
DICTIONARY
5
17
100
AcDbDictionary
0
ENDSEC
0
EOF
