0
SECTION
2
HEADER
9
$INSUNITS
70
4
9
$ACADVER
1
AC1014
9
$HANDSEED
5
FFFF
0
ENDSEC
0
SECTION
2
TABLES
0
TABLE
2
VPORT
5
8
100
AcDbSymbolTable
0
ENDTAB
0
TABLE
2
LTYPE
5
5
100
AcDbSymbolTable
0
LTYPE
5
14
100
AcDbSymbolTableRecord
100
AcDbLinetypeTableRecord
2
BYBLOCK
70
0
0
LTYPE
5
15
100
AcDbSymbolTableRecord
100
AcDbLinetypeTableRecord
2
BYLAYER
70
0
0
ENDTAB
0
TABLE
2
LAYER
5
2
100
AcDbSymbolTable
70
2
0
LAYER
5
50
100
AcDbSymbolTableRecord
100
AcDbLayerTableRecord
2
0
70
0
6
CONTINUOUS
0
ENDTAB
0
TABLE
2
STYLE
5
3
100
AcDbSymbolTable
70
1
0
STYLE
5
11
100
AcDbSymbolTableRecord
100
AcDbTextStyleTableRecord
2
STANDARD
70
0
0
ENDTAB
0
TABLE
2
VIEW
5
6
100
AcDbSymbolTable
70
0
0
ENDTAB
0
TABLE
2
UCS
5
7
100
AcDbSymbolTable
70
0
0
ENDTAB
0
TABLE
2
APPID
5
9
100
AcDbSymbolTable
70
2
0
APPID
5
12
100
AcDbSymbolTableRecord
100
AcDbRegAppTableRecord
2
ACAD
70
0
0
ENDTAB
0
TABLE
2
DIMSTYLE
5
A
100
AcDbSymbolTable
70
1
0
ENDTAB
0
TABLE
2
BLOCK_RECORD
5
1
100
AcDbSymbolTable
70
1
0
BLOCK_RECORD
5
1F
100
AcDbSymbolTableRecord
100
AcDbBlockTableRecord
2
*MODEL_SPACE
0
BLOCK_RECORD
5
1B
100
AcDbSymbolTableRecord
100
AcDbBlockTableRecord
2
*PAPER_SPACE
0
ENDTAB
0
ENDSEC
0
SECTION
2
BLOCKS
0
BLOCK
5
20
100
AcDbEntity
100
AcDbBlockBegin
2
*MODEL_SPACE
0
ENDBLK
5
21
100
AcDbEntity
100
AcDbBlockEnd
0
BLOCK
5
1C
100
AcDbEntity
100
AcDbBlockBegin
2
*PAPER_SPACE
0
ENDBLK
5
1D
100
AcDbEntity
100
AcDbBlockEnd
0
ENDSEC
0
SECTION
2
ENTITIES
0
LINE
5
100
100
AcDbEntity
8
0
100
AcDbLine
10
-78.724999999999895
20
33.3963927419138
30
0
11
-78.724999999999895
21
20.896392741913804
31
0
0
ARC
5
101
100
AcDbEntity
8
0
100
AcDbCircle
10
-79.474999999999895
20
20.896392741913804
30
0
40
0.75000000000000178
210
0
220
0
230
1
100
AcDbArc
50
-90
51
0
0
ARC
5
102
100
AcDbEntity
8
0
100
AcDbCircle
10
-91.974999999999881
20
20.896392741913804
30
0
40
0.75000000000001066
210
0
220
0
230
1
100
AcDbArc
50
180
51
270
0
ARC
5
103
100
AcDbEntity
8
0
100
AcDbCircle
10
-108.05
20
14.3463927419138
30
0
40
0.75000000000001066
210
0
220
0
230
1
100
AcDbArc
50
0
51
90
0
ARC
5
104
100
AcDbEntity
8
0
100
AcDbCircle
10
-79.474999999999895
20
33.3963927419138
30
0
40
0.75000000000000178
210
0
220
0
230
1
100
AcDbArc
50
0
51
90
0
LINE
5
105
100
AcDbEntity
8
0
100
AcDbLine
10
-120.54999995980801
20
15.096392741913807
30
0
11
-108.05
21
15.096392741913807
31
-3.4160852480091819e-08
0
LINE
5
106
100
AcDbEntity
8
0
100
AcDbLine
10
-121.30000000000001
20
1.8463927821061701
30
0
11
-121.30000000000001
21
14.3463928217255
31
0
0
LINE
5
107
100
AcDbEntity
8
0
100
AcDbLine
10
-92.724999999999881
20
20.896392741913804
30
0
11
-92.724999999999923
21
33.3963927419138
31
-7.9470758307387244e-08
0
LINE
5
108
100
AcDbEntity
8
0
100
AcDbLine
10
-197.5
20
1.8463927419138304
30
0
11
-197.5
21
14.3463927419138
31
0
0
LINE
5
109
100
AcDbEntity
8
0
100
AcDbLine
10
-79.474999999999895
20
20.1463927419138
30
0
11
-91.974999999999881
21
20.146392741913793
31
0
0
ARC
5
110
100
AcDbEntity
8
0
100
AcDbCircle
10
-120.55
20
14.3463927419138
30
0
40
0.75000000000000733
210
0
220
-0
230
1
100
AcDbArc
50
89.999996929557994
51
179.99999396290866
0
LINE
5
111
100
AcDbEntity
8
0
100
AcDbLine
10
-107.29999999999998
20
14.3463927419138
30
0
11
-107.30000000000001
21
1.8463926628884697
31
0
0
ARC
5
112
100
AcDbEntity
8
0
100
AcDbCircle
10
-91.974999999999881
20
33.3963927419138
30
0
40
0.75000000000002842
210
0
220
-0
230
1
100
AcDbArc
50
90
51
179.99999402358449
0
LINE
5
113
100
AcDbEntity
8
0
100
AcDbLine
10
-91.974999999999881
20
34.146392741913829
30
0
11
-79.474999999999895
21
34.146392741913807
31
0
0
ARC
5
114
100
AcDbEntity
8
0
100
AcDbCircle
10
-108.05
20
1.8463927419138104
30
0
40
0.74999999999998024
210
0
220
0
230
1
100
AcDbArc
50
270
51
359.99999396290866
0
ARC
5
115
100
AcDbEntity
8
0
100
AcDbCircle
10
-120.55
20
1.8463927419138402
30
0
40
0.75000000000001177
210
0
220
0
230
1
100
AcDbArc
50
179.99999692167535
51
269.9999939629347
0
LINE
5
116
100
AcDbEntity
8
0
100
AcDbLine
10
-225.32499999999999
20
34.146392741913793
30
0
11
-212.82499999999999
21
34.1463927419138
31
0
0
ARC
5
117
100
AcDbEntity
8
0
100
AcDbCircle
10
-212.82499999999999
20
33.3963927419138
30
0
40
0.74999999999999289
210
0
220
0
230
1
100
AcDbArc
50
0
51
90
0
LINE
5
118
100
AcDbEntity
8
0
100
AcDbLine
10
-183.5
20
14.3463927419138
30
0
11
-183.5
21
1.8463927419138293
31
-1.6470352859343509e-09
0
ARC
5
119
100
AcDbEntity
8
0
100
AcDbCircle
10
-225.32499999999999
20
33.3963927419138
30
0
40
0.74999999999999289
210
0
220
-0
230
1
100
AcDbArc
50
90
51
180
0
LINE
5
120
100
AcDbEntity
8
0
100
AcDbLine
10
-159.40000000000001
20
1.8463927419138304
30
0
11
-159.40000000000003
21
14.346392741913805
31
-3.2330806365443721e-08
0
ARC
5
121
100
AcDbEntity
8
0
100
AcDbCircle
10
-196.75
20
14.3463927419138
30
0
40
0.75000000000003508
210
0
220
-0
230
1
100
AcDbArc
50
90
51
180
0
LINE
5
122
100
AcDbEntity
8
0
100
AcDbLine
10
-196.75
20
15.096392741913835
30
0
11
-184.24999992018797
21
15.0963927419138
31
0
0
ARC
5
123
100
AcDbEntity
8
0
100
AcDbCircle
10
-184.25
20
14.3463927419138
30
0
40
0.74999999999999289
210
0
220
0
230
1
100
AcDbArc
50
0
51
89.999993902810388
0
ARC
5
124
100
AcDbEntity
8
0
100
AcDbCircle
10
-184.25
20
1.8463927419138704
30
0
40
0.75000000000003619
210
0
220
0
230
1
100
AcDbArc
50
-90
51
0
0
LINE
5
125
100
AcDbEntity
8
0
100
AcDbLine
10
-184.25
20
1.0963927419138342
30
0
11
-196.750000079025
21
1.09639274191384
31
0
0
ARC
5
126
100
AcDbEntity
8
0
100
AcDbCircle
10
-196.75
20
1.8463927419138304
30
0
40
0.74999999999999289
210
0
220
0
230
1
100
AcDbArc
50
180
51
269.9999939629347
0
LINE
5
127
100
AcDbEntity
8
0
100
AcDbLine
10
-212.07499999999999
20
33.3963927419138
30
0
11
-212.07499999999999
21
20.896392741913804
31
0
0
LINE
5
128
100
AcDbEntity
8
0
100
AcDbLine
10
-212.82499999999999
20
20.146392741913811
30
0
11
-225.32499999999999
21
20.146392741913811
31
-4.6870520797881454e-08
0
ARC
5
129
100
AcDbEntity
8
0
100
AcDbCircle
10
-212.82499999999999
20
20.896392741913804
30
0
40
0.74999999999999289
210
0
220
0
230
1
100
AcDbArc
50
-90
51
0
0
ARC
5
130
100
AcDbEntity
8
0
100
AcDbCircle
10
-225.32499999999999
20
20.896392741913804
30
0
40
0.74999999999996159
210
0
220
0
230
1
100
AcDbArc
50
179.99999396290866
51
270
0
LINE
5
131
100
AcDbEntity
8
0
100
AcDbLine
10
-226.07499999999993
20
20.896392821725485
30
0
11
-226.07499999999999
21
33.3963927419138
31
0
0
LINE
5
132
100
AcDbEntity
8
0
100
AcDbLine
10
-172.9375
20
53.196392741913897
30
0
11
-160.4375
21
53.196392741913812
31
-1.0547118733938987e-14
0
LINE
5
133
100
AcDbEntity
8
0
100
AcDbLine
10
-244.375
20
34.1463927419138
30
0
11
-231.875
21
34.146392741913793
31
-8.1316053335278569e-08
0
ARC
5
134
100
AcDbEntity
8
0
100
AcDbCircle
10
-146.15000000000003
20
14.3463927419138
30
0
40
0.75000000000001066
210
0
220
0
230
1
100
AcDbArc
50
0
51
90
0
LINE
5
135
100
AcDbEntity
8
0
100
AcDbLine
10
-145.40000000000003
20
14.3463927419138
30
0
11
-145.39999999999995
21
1.8463927419138293
31
-1.6470352859343509e-09
0
LINE
5
136
100
AcDbEntity
8
0
100
AcDbLine
10
-231.875
20
20.146392741913811
30
0
11
-244.375
21
20.1463927419138
31
0
0
ARC
5
137
100
AcDbEntity
8
0
100
AcDbCircle
10
-244.375
20
20.896392741913804
30
0
40
0.74999999999996159
210
0
220
0
230
1
100
AcDbArc
50
179.99999396290866
51
270
0
LINE
5
138
100
AcDbEntity
8
0
100
AcDbLine
10
-245.12499999999994
20
20.896392821725485
30
0
11
-245.12500000000003
21
33.3963927419139
31
0
0
ARC
5
139
100
AcDbEntity
8
0
100
AcDbCircle
10
-158.65000000000003
20
1.8463927419138304
30
0
40
0.74999999999999289
210
0
220
0
230
1
100
AcDbArc
50
180
51
269.99999396293686
0
ARC
5
140
100
AcDbEntity
8
0
100
AcDbCircle
10
-231.875
20
20.896392741913804
30
0
40
0.74999999999999289
210
0
220
0
230
1
100
AcDbArc
50
-90
51
0
0
LINE
5
141
100
AcDbEntity
8
0
100
AcDbLine
10
-158.65000000000003
20
15.096392741913881
30
0
11
-146.15000000000003
21
15.096392741913807
31
-3.4160852480091819e-08
0
LINE
5
142
100
AcDbEntity
8
0
100
AcDbLine
10
-146.15000000000003
20
1.0963927419138262
30
1.3322676295501878e-14
11
-158.65000007902501
21
1.0963927419138415
31
0
0
ARC
5
143
100
AcDbEntity
8
0
100
AcDbCircle
10
-158.65000000000003
20
14.346392741913904
30
0
40
0.74999999999997957
210
0
220
-0
230
1
100
AcDbArc
50
90
51
180.00000225887271
0
ARC
5
144
100
AcDbEntity
8
0
100
AcDbCircle
10
-231.875
20
33.3963927419138
30
0
40
0.74999999999999289
210
0
220
0
230
1
100
AcDbArc
50
0
51
90
0
LINE
5
145
100
AcDbEntity
8
0
100
AcDbLine
10
-231.125
20
33.3963927419138
30
0
11
-231.125
21
20.896392741913804
31
0
0
ARC
5
146
100
AcDbEntity
8
0
100
AcDbCircle
10
-146.15000000000003
20
1.8463927419138202
30
0
40
0.749999999999994
210
0
220
1.776356839400265e-14
230
1
100
AcDbArc
50
-90
51
0
0
ARC
5
147
100
AcDbEntity
8
0
100
AcDbCircle
10
-244.375
20
33.3963927419138
30
0
40
0.74999999999999734
210
0
220
-0
230
1
100
AcDbArc
50
90
51
180
0
ARC
5
148
100
AcDbEntity
8
0
100
AcDbCircle
10
-160.4375
20
39.946392741913797
30
0
40
0.74999999999995737
210
0
220
0
230
1
100
AcDbArc
50
-90
51
0
0
LINE
5
149
100
AcDbEntity
8
0
100
AcDbLine
10
-160.4375
20
39.19639274191384
30
0
11
-172.9375
21
39.19639274191384
31
-9.3741047701989544e-08
0
LINE
5
150
100
AcDbEntity
8
0
100
AcDbLine
10
-159.68749999999994
20
52.446392741913797
30
-1.0547118733938987e-14
11
-159.68750000000003
21
39.946392741913797
31
0
0
ARC
5
151
100
AcDbEntity
8
0
100
AcDbCircle
10
-172.9375
20
39.946392741913797
30
0
40
0.74999999999995737
210
0
220
0
230
1
100
AcDbArc
50
180
51
270
0
LINE
5
152
100
AcDbEntity
8
0
100
AcDbLine
10
-173.68749999999994
20
39.946392741913797
30
0
11
-173.68750000000003
21
52.446392741913897
31
-1.2668933180304265e-07
0
ARC
5
153
100
AcDbEntity
8
0
100
AcDbCircle
10
-336.64999999999998
20
58.996392741913901
30
0
40
0.75000000000002842
210
0
220
0
230
1
100
AcDbArc
50
-90
51
1.0866764427531615e-05
0
ARC
5
154
100
AcDbEntity
8
0
100
AcDbCircle
10
-349.14999999999998
20
58.996392741913901
30
-1.0547118733938987e-14
40
0.75000000000009948
210
0
220
0
230
1
100
AcDbArc
50
180
51
270
0
ARC
5
155
100
AcDbEntity
8
0
100
AcDbCircle
10
-349.14999999999998
20
71.496392741913795
30
-1.0547118733938987e-14
40
0.75000000000003275
210
0
220
-0
230
1
100
AcDbArc
50
89.999993859042149
51
180
0
LINE
5
156
100
AcDbEntity
8
0
100
AcDbLine
10
-349.14999991961503
20
72.246392741913823
30
-1.0547118733938987e-14
11
-336.64999999999998
21
72.246392741913894
31
-1.0547118733938987e-14
0
LINE
5
157
100
AcDbEntity
8
0
100
AcDbLine
10
-349.90000000000009
20
58.996392741913901
30
-1.0547118733938987e-14
11
-349.90000000000003
21
71.496392741913795
31
-1.0547118733938987e-14
0
ARC
5
158
100
AcDbEntity
8
0
100
AcDbCircle
10
-172.9375
20
52.446392741913897
30
0
40
0.75000000000000178
210
0
220
-0
230
1
100
AcDbArc
50
90
51
179.99999034065385
0
ARC
5
159
100
AcDbEntity
8
0
100
AcDbCircle
10
-160.4375
20
52.446392741913797
30
-1.0547118733938987e-14
40
0.75000000000006395
210
0
220
0
230
1
100
AcDbArc
50
0
51
90
0
ARC
5
160
100
AcDbEntity
8
0
100
AcDbCircle
10
-336.64999999999998
20
71.496392741913795
30
-1.0547118733938987e-14
40
0.75000000000002842
210
0
220
0
230
1
100
AcDbArc
50
0
51
90
0
LINE
5
161
100
AcDbEntity
8
0
100
AcDbLine
10
-106.2625
20
72.246392741913894
30
-1.0547118733938987e-14
11
-93.762499999999903
21
72.246392741913922
31
-1.7553936915160054e-07
0
LINE
5
162
100
AcDbEntity
8
0
100
AcDbLine
10
-335.89999999999998
20
71.496392741913795
30
-1.0547118733938987e-14
11
-335.89999999999998
21
58.996392741913901
31
-1.4284931848518312e-07
0
LINE
5
163
100
AcDbEntity
8
0
100
AcDbLine
10
-336.64999999999998
20
58.246392741913873
30
0
11
-349.14999999999998
21
58.246392741913802
31
-1.0547118733938987e-14
0
ARC
5
164
100
AcDbEntity
8
0
100
AcDbCircle
10
-22.324999999999907
20
1.8463927419138304
30
0
40
0.74999999999999722
210
0
220
0
230
1
100
AcDbArc
50
-90
51
0
0
ARC
5
165
100
AcDbEntity
8
0
100
AcDbCircle
10
-93.762500000000003
20
71.496392741913894
30
-1.0547118733938987e-14
40
0.75000000000001066
210
0
220
0
230
1
100
AcDbArc
50
0
51
89.999999999992397
0
ARC
5
166
100
AcDbEntity
8
0
100
AcDbCircle
10
-93.762499999999903
20
58.996392741913795
30
-1.0547118733938987e-14
40
0.74999999999997513
210
0
220
0
230
1
100
AcDbArc
50
270.00000000000324
51
359.99999692167529
0
ARC
5
167
100
AcDbEntity
8
0
100
AcDbCircle
10
-106.2625
20
71.496392741913894
30
-1.0547118733938987e-14
40
0.74999999999999289
210
0
220
-0
230
1
100
AcDbArc
50
90
51
179.99999692167535
0
LINE
5
168
100
AcDbEntity
8
0
100
AcDbLine
10
-34.824999999999903
20
15.0963927419138
30
0
11
-22.324999999999907
21
15.0963927419138
31
0
0
ARC
5
169
100
AcDbEntity
8
0
100
AcDbCircle
10
-22.324999999999907
20
14.3463927419138
30
0
40
0.75000000000000178
210
0
220
0
230
1
100
AcDbArc
50
0
51
90
0
LINE
5
170
100
AcDbEntity
8
0
100
AcDbLine
10
-21.574999999999903
20
14.3463927419138
30
0
11
-21.57499999999991
21
1.8463927419138304
31
0
0
LINE
5
171
100
AcDbEntity
8
0
100
AcDbLine
10
-93.762499999999861
20
58.246392741913823
30
-1.0547118733938987e-14
11
-106.2625
21
58.246392741913908
31
-1.4099894529717716e-07
0
LINE
5
172
100
AcDbEntity
8
0
100
AcDbLine
10
-107.01250000000002
20
58.996392741913901
30
-1.0547118733938987e-14
11
-107.0125
21
71.496392782209071
31
-1.0547118733938987e-14
0
LINE
5
173
100
AcDbEntity
8
0
100
AcDbLine
10
-93.012499999999989
20
71.496392741913894
30
-1.0547118733938987e-14
11
-93.012499999999932
21
58.996392701618618
31
-1.0547118733938987e-14
0
ARC
5
174
100
AcDbEntity
8
0
100
AcDbCircle
10
-106.2625
20
58.996392741913901
30
-1.0547118733938987e-14
40
0.74999999999999289
210
0
220
0
230
1
100
AcDbArc
50
180
51
270
0
LINE
5
175
100
AcDbEntity
8
0
100
AcDbLine
10
-22.324999999999907
20
1.0963927419138333
30
0
11
-34.824999999999903
21
1.09639274191383
31
0
0
ARC
5
176
100
AcDbEntity
8
0
100
AcDbCircle
10
-34.824999999999903
20
1.8463927419138402
30
0
40
0.75000000000001066
210
0
220
0
230
1
100
AcDbArc
50
180
51
270
0
LINE
5
177
100
AcDbEntity
8
0
100
AcDbLine
10
-35.574999999999918
20
1.8463927419138402
30
0
11
-35.574999999999903
21
14.346392741913805
31
-3.2330806365443721e-08
0
ARC
5
178
100
AcDbEntity
8
0
100
AcDbCircle
10
-34.824999999999903
20
14.3463927419138
30
0
40
0.74999999999999956
210
0
220
-0
230
1
100
AcDbArc
50
90
51
179.99999758516347
0
LINE
5
179
100
AcDbEntity
8
0
100
AcDbLine
10
-35.574999999999903
20
39.946392741913797
30
0
11
-35.574999999999903
21
52.446392741913897
31
-1.2668933180304265e-07
0
LINE
5
180
100
AcDbEntity
8
0
100
AcDbLine
10
-21.574999999999914
20
52.44639274191389
30
0
11
-21.574999999999903
21
39.946392741913797
31
-9.5586342729880882e-08
0
ARC
5
181
100
AcDbEntity
8
0
100
AcDbCircle
10
-22.324999999999907
20
39.946392741913797
30
0
40
0.74999999999997513
210
0
220
0
230
1
100
AcDbArc
50
-89.999999999992426
51
7.2946452312270284e-06
0
LINE
5
182
100
AcDbEntity
8
0
100
AcDbLine
10
-22.324999999999807
20
39.196392741913826
30
0
11
-34.824999999999903
21
39.196392741913797
31
0
0
LINE
5
183
100
AcDbEntity
8
0
100
AcDbLine
10
-84.237499999999898
20
39.196392741913797
30
0
11
-96.737499999999926
21
39.196392741913826
31
-9.3741047701989544e-08
0
ARC
5
184
100
AcDbEntity
8
0
100
AcDbCircle
10
-96.737499999999926
20
39.946392741913897
30
0
40
0.75000000000002842
210
0
220
0
230
1
100
AcDbArc
50
180
51
270
0
ARC
5
185
100
AcDbEntity
8
0
100
AcDbCircle
10
-84.237499999999898
20
52.446392741913897
30
0
40
0.74999999999997624
210
0
220
0
230
1
100
AcDbArc
50
-3.0783246822254177e-06
51
90
0
ARC
5
186
100
AcDbEntity
8
0
100
AcDbCircle
10
-34.824999999999903
20
52.446392741913897
30
0
40
0.74999999999999289
210
0
220
-0
230
1
100
AcDbArc
50
90
51
179.99999034065385
0
LINE
5
187
100
AcDbEntity
8
0
100
AcDbLine
10
-34.824999999999903
20
53.19639274191389
30
0
11
-22.324999999999907
21
53.196392741913918
31
-1.285397122074983e-07
0
LINE
5
188
100
AcDbEntity
8
0
100
AcDbLine
10
-96.737499999999926
20
53.196392741913883
30
0
11
-84.237499999999898
21
53.196392741913876
31
0
0
ARC
5
189
100
AcDbEntity
8
0
100
AcDbCircle
10
-84.237499999999898
20
39.946392741913797
30
0
40
0.75000000000000178
210
0
220
0
230
1
100
AcDbArc
50
-90
51
7.2946452312270284e-06
0
LINE
5
190
100
AcDbEntity
8
0
100
AcDbLine
10
-97.487499999999955
20
39.946392741913897
30
0
11
-97.487499999999869
21
52.446392741913897
31
0
0
LINE
5
191
100
AcDbEntity
8
0
100
AcDbLine
10
-83.487499999999926
20
52.446392701618727
30
0
11
-83.487499999999869
21
39.946392741913797
31
-9.5586342729880882e-08
0
ARC
5
192
100
AcDbEntity
8
0
100
AcDbCircle
10
-96.737499999999926
20
52.446392741913897
30
0
40
0.74999999999997513
210
0
220
-0
230
1
100
AcDbArc
50
90
51
180
0
LINE
5
193
100
AcDbEntity
8
0
100
AcDbLine
10
-169.21250000000001
20
71.496392741913894
30
-1.0547118733938987e-14
11
-169.21250000000001
21
58.996392741913901
31
-1.4284932403629824e-07
0
ARC
5
194
100
AcDbEntity
8
0
100
AcDbCircle
10
-22.324999999999907
20
52.446392741913897
30
0
40
0.74999999999999289
210
0
220
0
230
1
100
AcDbArc
50
0
51
90.00000000000027
0
ARC
5
195
100
AcDbEntity
8
0
100
AcDbCircle
10
-34.824999999999903
20
39.946392741913797
30
0
40
0.74999999999999734
210
0
220
0
230
1
100
AcDbArc
50
180
51
270
0
ARC
5
196
100
AcDbEntity
8
0
100
AcDbCircle
10
-131.33749999999799
20
75.846392741913917
30
-1.0547118733938987e-14
40
0.74999999999999289
210
0
220
0
230
1
100
AcDbArc
50
180
51
270
0
ARC
5
197
100
AcDbEntity
8
0
100
AcDbCircle
10
-182.46250000000001
20
58.996392741913901
30
0
40
0.75000000000002842
210
0
220
0
230
1
100
AcDbArc
50
180
51
269.99999692955794
0
LINE
5
198
100
AcDbEntity
8
0
100
AcDbLine
10
-183.21250000000003
20
58.996392741913901
30
0
11
-183.21250000000003
21
71.496392741913795
31
-1.0547118733938987e-14
0
LINE
5
199
100
AcDbEntity
8
0
100
AcDbLine
10
-132.08749999999799
20
75.846392741913917
30
-1.0547118733938987e-14
11
-132.08750000000012
21
92.046392741913792
31
-2.2438939539792815e-07
0
LINE
5
200
100
AcDbEntity
8
0
100
AcDbLine
10
-125.08749999999992
20
92.046392742016693
30
-1.0547118733938987e-14
11
-125.08750000000001
21
75.846392741914002
31
-1.8442118943085009e-07
0
ARC
5
201
100
AcDbEntity
8
0
100
AcDbCircle
10
-125.83750000000002
20
75.846392741913917
30
-1.0547118733938987e-14
40
0.74999999999997513
210
0
220
0
230
1
100
AcDbArc
50
-90
51
1.4080795695456234e-05
0
LINE
5
202
100
AcDbEntity
8
0
100
AcDbLine
10
-125.83750000000002
20
75.096392741913945
30
-1.0547118733938987e-14
11
-131.33749999999799
21
75.096392741913931
31
-1.0547118733938987e-14
0
ARC
5
203
100
AcDbEntity
8
0
100
AcDbCircle
10
-169.96250000000001
20
71.496392741913894
30
-1.0547118733938987e-14
40
0.74999999999999289
210
0
220
0
230
1
100
AcDbArc
50
0
51
90
0
LINE
5
204
100
AcDbEntity
8
0
100
AcDbLine
10
-169.962500040192
20
58.246392741913873
30
-1.0547118733938987e-14
11
-182.462500040192
21
58.246392741913873
31
0
0
ARC
5
205
100
AcDbEntity
8
0
100
AcDbCircle
10
-125.83750000000002
20
92.046392741913934
30
-1.0547118733938987e-14
40
0.75000000000008171
210
0
220
-0
230
1
100
AcDbArc
50
0
51
89.999996929557994
0
LINE
5
206
100
AcDbEntity
8
0
100
AcDbLine
10
-182.46250000000001
20
72.246392741913866
30
-1.0547118733938987e-14
11
-169.96250000000001
21
72.246392741913894
31
-1.7553936915160054e-07
0
LINE
5
207
100
AcDbEntity
8
0
100
AcDbLine
10
-245.41250000000002
20
71.496392741913894
30
-1.0547118733938987e-14
11
-245.41250000000005
21
58.996392741913901
31
-1.4284932348118673e-07
0
ARC
5
208
100
AcDbEntity
8
0
100
AcDbCircle
10
-169.96250000000001
20
58.996392741913901
30
-1.0547118733938987e-14
40
0.75000000000002953
210
0
220
0
230
1
100
AcDbArc
50
-90.000003070442048
51
1.0900252224719401e-05
0
ARC
5
209
100
AcDbEntity
8
0
100
AcDbCircle
10
-131.33750000000001
20
92.046392741913934
30
-1.0547118733938987e-14
40
0.75000000000004619
210
0
220
-0
230
1
100
AcDbArc
50
90
51
180.00001713938633
0
ARC
5
210
100
AcDbEntity
8
0
100
AcDbCircle
10
-182.46250000000001
20
71.496392741913795
30
-1.0547118733938987e-14
40
0.75000000000006395
210
0
220
-0
230
1
100
AcDbArc
50
90
51
180
0
LINE
5
211
100
AcDbEntity
8
0
100
AcDbLine
10
-131.33750000000001
20
92.796392741913976
30
-1.0547118733938987e-14
11
-125.83749995980804
21
92.796392741913948
31
-2.2623977413704921e-07
0
LINE
5
212
100
AcDbEntity
8
0
100
AcDbLine
10
-258.66250000000002
20
72.246392741913922
30
-8.3266726846886725e-15
11
-246.16250000000002
21
72.246392741913795
31
-1.0547118733938987e-14
0
ARC
5
213
100
AcDbEntity
8
0
100
AcDbCircle
10
-258.66250000000002
20
58.996392741913901
30
0
40
0.75000000000006395
210
0
220
0
230
1
100
AcDbArc
50
180
51
269.99999692955794
0
ARC
5
214
100
AcDbEntity
8
0
100
AcDbCircle
10
-34.824999999999903
20
90.546392741913792
30
-1.0547118733938987e-14
40
0.75000000000001066
210
0
220
-0
230
1
100
AcDbArc
50
90
51
179.99998313932144
0
LINE
5
215
100
AcDbEntity
8
0
100
AcDbLine
10
-246.16250000000002
20
58.246392741913908
30
-1.0547118733938987e-14
11
-258.66250004019201
21
58.246392741913837
31
0
0
LINE
5
216
100
AcDbEntity
8
0
100
AcDbLine
10
-259.41250000000014
20
58.996392741913901
30
0
11
-259.41250000000014
21
71.496392741913894
31
-1.736889848613643e-07
0
ARC
5
217
100
AcDbEntity
8
0
100
AcDbCircle
10
-258.66250000000002
20
71.496392741913894
30
-1.0547118733938987e-14
40
0.75000000000001066
210
0
220
-2.9605947323336397e-15
230
1
100
AcDbArc
50
90
51
179.99998674586877
0
ARC
5
218
100
AcDbEntity
8
0
100
AcDbCircle
10
-22.324999999999907
20
78.046392741913792
30
-1.0547118733938987e-14
40
0.74999999999999289
210
0
220
0
230
1
100
AcDbArc
50
-90
51
1.4489019236708836e-05
0
LINE
5
219
100
AcDbEntity
8
0
100
AcDbLine
10
-22.324999999999907
20
77.296392741913806
30
-1.0547118733938987e-14
11
-34.825000079025195
21
77.29639274191382
31
-1.0547118733938987e-14
0
LINE
5
220
100
AcDbEntity
8
0
100
AcDbLine
10
-21.5749999999999
20
90.546392741913792
30
-1.0547118733938987e-14
11
-21.574999999999903
21
78.046392741913792
31
-1.898489715435048e-07
0
ARC
5
221
100
AcDbEntity
8
0
100
AcDbCircle
10
-246.16250000000002
20
58.996392741913901
30
-1.0547118733938987e-14
40
0.74999999999999289
210
0
220
0
230
1
100
AcDbArc
50
-90
51
1.0866764427531615e-05
0
ARC
5
222
100
AcDbEntity
8
0
100
AcDbCircle
10
-246.16250000000002
20
71.496392741913894
30
-1.0547118733938987e-14
40
0.74999999999999289
210
0
220
0
230
1
100
AcDbArc
50
0
51
90
0
LINE
5
223
100
AcDbEntity
8
0
100
AcDbLine
10
-35.574999999999903
20
78.046392741913792
30
-1.0547118733938987e-14
11
-35.574999999999903
21
90.546392741913792
31
-2.2068863791968607e-07
0
ARC
5
224
100
AcDbEntity
8
0
100
AcDbCircle
10
-22.324999999999907
20
90.546392741913792
30
-1.0547118733938987e-14
40
0.75000000000000178
210
0
220
0
230
1
100
AcDbArc
50
0
51
90.00000000000027
0
LINE
5
225
100
AcDbEntity
8
0
100
AcDbLine
10
-34.824999999999903
20
91.296392741913792
30
-1.0547118733938987e-14
11
-22.324999999999907
21
91.29639274191382
31
-2.2253901443836097e-07
0
ARC
5
226
100
AcDbEntity
8
0
100
AcDbCircle
10
-34.824999999999903
20
78.046392741913792
30
-1.0547118733938987e-14
40
0.74999999999999734
210
0
220
0
230
1
100
AcDbArc
50
180
51
269.99999396291241
0
LINE
5
227
100
AcDbEntity
8
0
100
AcDbLine
10
-335.89999999999998
20
14.3463927419138
30
0
11
-335.89999999999998
21
1.8463927419138293
31
-1.6470352859343509e-09
0
LINE
5
228
100
AcDbEntity
8
0
100
AcDbLine
10
-296.50574999999998
20
54.446392741913897
30
-1.0547118733938987e-14
11
-296.50575000000009
21
53.196392741913918
31
-2.5708215278807955e-07
0
ARC
5
229
100
AcDbEntity
8
0
100
AcDbCircle
10
-336.64999999999998
20
1.8463927419138602
30
0
40
0.7500000000000302
210
0
220
0
230
1
100
AcDbArc
50
-90
51
0
0
ARC
5
230
100
AcDbEntity
8
0
100
AcDbCircle
10
-349.14999999999998
20
1.8463927419138504
30
0
40
0.75000000000002953
210
0
220
0
230
1
100
AcDbArc
50
179.99999692167535
51
269.99999390281039
0
ARC
5
231
100
AcDbEntity
8
0
100
AcDbCircle
10
-336.64999999999998
20
14.3463927419138
30
0
40
0.75000000000002842
210
0
220
0
230
1
100
AcDbArc
50
0
51
90
0
LINE
5
232
100
AcDbEntity
8
0
100
AcDbLine
10
-264.17500000000007
20
20.896392741913804
30
0
11
-264.17500000000007
21
33.3963927419138
31
-7.9470758307387244e-08
0
LINE
5
233
100
AcDbEntity
8
0
100
AcDbLine
10
-349.90000000000003
20
1.8463927822090256
30
0
11
-349.90000000000009
21
14.346392741913601
31
-3.2330806365443721e-08
0
LINE
5
234
100
AcDbEntity
8
0
100
AcDbLine
10
-349.14999999999998
20
15.096392741913862
30
0
11
-336.64999999999998
21
15.096392741913769
31
-3.4160852480091819e-08
0
ARC
5
235
100
AcDbEntity
8
0
100
AcDbCircle
10
-263.42500000000001
20
33.3963927419138
30
0
40
0.74999999999999289
210
0
220
-0
230
1
100
AcDbArc
50
90
51
179.99999396290866
0
LINE
5
236
100
AcDbEntity
8
0
100
AcDbLine
10
-336.64999999999998
20
1.09639274191383
30
0
11
-349.150000079812
21
1.0963927419138251
31
0
0
ARC
5
237
100
AcDbEntity
8
0
100
AcDbCircle
10
-349.14999999999998
20
14.3463927419137
30
0
40
0.75000000000016165
210
0
220
-0
230
1
100
AcDbArc
50
90
51
180.0000024148365
0
LINE
5
238
100
AcDbEntity
8
0
100
AcDbLine
10
-263.42500000000001
20
34.146392741913793
30
0
11
-250.92500000000001
21
34.1463927419138
31
0
0
LINE
5
239
100
AcDbEntity
8
0
100
AcDbLine
10
-250.17500000000001
20
33.3963927419138
30
0
11
-250.17500000000001
21
20.896392741913804
31
0
0
ARC
5
240
100
AcDbEntity
8
0
100
AcDbCircle
10
-250.92500000000001
20
20.896392741913804
30
0
40
0.74999999999999289
210
0
220
0
230
1
100
AcDbArc
50
-90
51
0
0
LINE
5
241
100
AcDbEntity
8
0
100
AcDbLine
10
-250.92500000000001
20
20.146392741913811
30
0
11
-263.42500000000001
21
20.146392741913829
31
-4.6870520797881454e-08
0
ARC
5
242
100
AcDbEntity
8
0
100
AcDbCircle
10
-250.92500000000001
20
33.3963927419138
30
0
40
0.74999999999999289
210
0
220
0
230
1
100
AcDbArc
50
0
51
90
0
ARC
5
243
100
AcDbEntity
8
0
100
AcDbCircle
10
-263.42500000000001
20
20.8963927419139
30
0
40
0.75000000000002842
210
0
220
0
230
1
100
AcDbArc
50
180
51
270
0
LINE
5
244
100
AcDbEntity
8
0
100
AcDbLine
10
-293.78750000000002
20
39.196392741913797
30
0
11
-296.50574999999998
21
39.19639274191379
31
-1.8748806895896308e-07
0
LINE
5
245
100
AcDbEntity
8
0
100
AcDbLine
10
-296.50574999999998
20
39.19639274191379
30
-1.8748806895896308e-07
11
-296.50574999999998
21
37.946392662102397
31
0
0
ARC
5
246
100
AcDbEntity
8
0
100
AcDbCircle
10
-302.75574999999901
20
37.946392741913897
30
0
40
0.75000000000002842
210
0
220
0
230
1
100
AcDbArc
50
180
51
270
0
LINE
5
247
100
AcDbEntity
8
0
100
AcDbLine
10
-314.46875
20
34.1463927419138
30
-1.6263987823172957e-07
11
-312.83749999999998
21
34.146392741913793
31
-8.1316053335278569e-08
0
LINE
5
248
100
AcDbEntity
8
0
100
AcDbLine
10
-312.08749999999998
20
33.396392701721503
30
0
11
-312.08749992085603
21
28.221819052878306
31
0
0
ARC
5
249
100
AcDbEntity
8
0
100
AcDbCircle
10
-312.21875
20
27.483392741913804
30
0
40
0.74999999999999289
210
0
220
0
230
1
100
AcDbArc
50
0
51
79.921335751294023
0
LINE
5
250
100
AcDbEntity
8
0
100
AcDbLine
10
-296.50575000000009
20
53.196392741913918
30
-2.5708215278807955e-07
11
-293.78749992097494
21
53.196392741913897
31
-1.0547118733938987e-14
0
ARC
5
251
100
AcDbEntity
8
0
100
AcDbCircle
10
-293.78750000000002
20
52.446392741913897
30
-1.0547118733938987e-14
40
0.74999999999999289
210
0
220
0
230
1
100
AcDbArc
50
0
51
89.999993962928201
0
LINE
5
252
100
AcDbEntity
8
0
100
AcDbLine
10
-303.50574999999907
20
37.946392741913897
30
0
11
-303.50574999999924
21
39.196392741913797
31
-1.8748806895896308e-07
0
LINE
5
253
100
AcDbEntity
8
0
100
AcDbLine
10
-303.50574999999924
20
39.196392741913797
30
-1.8748806895896308e-07
11
-314.46875
21
39.196392741913812
31
-1.8748807228963216e-07
0
LINE
5
254
100
AcDbEntity
8
0
100
AcDbLine
10
-314.46875
20
39.196392741913812
30
-1.8748807228963216e-07
11
-314.46875
21
34.1463927419138
31
-1.6263987823172957e-07
0
ARC
5
255
100
AcDbEntity
8
0
100
AcDbCircle
10
-312.83749999999998
20
33.3963927419138
30
0
40
0.749999999999994
210
0
220
0
230
1
100
AcDbArc
50
-3.0783246822254177e-06
51
90
0
LINE
5
256
100
AcDbEntity
8
0
100
AcDbLine
10
-297.25574999999998
20
37.196392741913968
30
0
11
-302.75574999999901
21
37.196392741913868
31
0
0
LINE
5
257
100
AcDbEntity
8
0
100
AcDbLine
10
-293.03750000000002
20
52.446392741913897
30
-1.0547118733938987e-14
11
-293.03750000000002
21
39.946392741913797
31
-9.5586347170772967e-08
0
ARC
5
258
100
AcDbEntity
8
0
100
AcDbCircle
10
-297.25574999999998
20
37.946392741914003
30
0
40
0.75000000000003286
210
0
220
0
230
1
100
AcDbArc
50
270
51
359.99999396290866
0
ARC
5
259
100
AcDbEntity
8
0
100
AcDbCircle
10
-293.78750000000002
20
39.946392741913797
30
0
40
0.75000000000000178
210
0
220
0
230
1
100
AcDbArc
50
-90
51
7.2946452312270284e-06
0
LINE
5
260
100
AcDbEntity
8
0
100
AcDbLine
10
-329.46875000000006
20
21.9833927419138
30
0
11
-329.46875
21
27.483392821725499
31
0
0
LINE
5
261
100
AcDbEntity
8
0
100
AcDbLine
10
-326.08749999999992
20
21.2333927419138
30
-9.9097040018314431e-08
11
-328.71875007902509
21
21.2333927419138
31
0
0
LINE
5
262
100
AcDbEntity
8
0
100
AcDbLine
10
-312.08750007914398
20
21.244966402814708
30
0
11
-312.08749999999998
21
20.896392741913811
31
-4.8715819711553372e-08
0
ARC
5
263
100
AcDbEntity
8
0
100
AcDbCircle
10
-312.83749999999998
20
20.896392741913804
30
0
40
0.75000000000000178
210
0
220
0
230
1
100
AcDbArc
50
-90
51
3.5201989238640496e-06
0
LINE
5
264
100
AcDbEntity
8
0
100
AcDbLine
10
-328.71875
20
28.233392741913804
30
0
11
-326.08749999999998
21
28.2333927419138
31
-1.3354185035563404e-07
0
LINE
5
265
100
AcDbEntity
8
0
100
AcDbLine
10
-326.08749999999998
20
28.2333927419138
30
-1.3354185035563404e-07
11
-326.08749999999998
21
29.671392741913802
31
-1.4061828756961606e-07
0
LINE
5
266
100
AcDbEntity
8
0
100
AcDbLine
10
-326.08749999999998
20
29.671392741913802
30
-1.4061828756961606e-07
11
-327.71875
21
29.671392741913785
31
-7.030578563771428e-08
0
ARC
5
267
100
AcDbEntity
8
0
100
AcDbCircle
10
-327.71875
20
30.421392741913799
30
0
40
0.75000000000002842
210
0
220
0
230
1
100
AcDbArc
50
180
51
270
0
LINE
5
268
100
AcDbEntity
8
0
100
AcDbLine
10
-326.08749999999998
20
20.896392741913804
30
0
11
-326.08749999999992
21
21.2333927419138
31
-9.9097040018314431e-08
0
ARC
5
269
100
AcDbEntity
8
0
100
AcDbCircle
10
-328.71875
20
27.483392741913804
30
0
40
0.75000000000000178
210
0
220
-0
230
1
100
AcDbArc
50
90
51
179.99999396290866
0
LINE
5
270
100
AcDbEntity
8
0
100
AcDbLine
10
-328.46875000000006
20
30.421392741913799
30
0
11
-328.46875000000006
21
42.921392741913913
31
-1.0290602092677405e-07
0
ARC
5
271
100
AcDbEntity
8
0
100
AcDbCircle
10
-312.21875
20
21.9833927419138
30
0
40
0.74999999999999456
210
0
220
0
230
1
100
AcDbArc
50
280.07865196686907
51
359.99999396290866
0
LINE
5
272
100
AcDbEntity
8
0
100
AcDbLine
10
-311.46875
20
27.483392741913804
30
0
11
-311.46875
21
21.983392662888459
31
0
0
ARC
5
273
100
AcDbEntity
8
0
100
AcDbCircle
10
-325.33749999999998
20
20.896392741913804
30
0
40
0.75000000000002842
210
0
220
0
230
1
100
AcDbArc
50
180
51
269.99999396292816
0
LINE
5
274
100
AcDbEntity
8
0
100
AcDbLine
10
-312.83749999999998
20
20.1463927419138
30
0
11
-325.33750007902506
21
20.146392741913779
31
0
0
ARC
5
275
100
AcDbEntity
8
0
100
AcDbCircle
10
-328.71875
20
21.9833927419138
30
0
40
0.75000000000002842
210
0
220
0
230
1
100
AcDbArc
50
180
51
269.99999396292816
0
LINE
5
276
100
AcDbEntity
8
0
100
AcDbLine
10
-327.38175000000007
20
43.671392741913913
30
-2.0950930601504325e-07
11
-327.38175000000007
21
45.109392741913794
31
-2.1658563387205726e-07
0
LINE
5
277
100
AcDbEntity
8
0
100
AcDbLine
10
-329.46875000000006
20
45.859392741913901
30
0
11
-329.46875
21
51.359392820939213
31
-1.0547118733938987e-14
0
LINE
5
278
100
AcDbEntity
8
0
100
AcDbLine
10
-327.71875
20
43.671392741913913
30
0
11
-327.38175000000007
21
43.671392741913913
31
-2.0950930601504325e-07
0
LINE
5
279
100
AcDbEntity
8
0
100
AcDbLine
10
-327.38175000000007
20
45.109392741913794
30
-2.1658563387205726e-07
11
-328.71875
21
45.109392741913823
31
-1.0828936691797963e-07
0
ARC
5
280
100
AcDbEntity
8
0
100
AcDbCircle
10
-328.71875
20
45.859392741913901
30
0
40
0.75000000000002842
210
0
220
0
230
1
100
AcDbArc
50
180
51
270
0
LINE
5
281
100
AcDbEntity
8
0
100
AcDbLine
10
-327.38175000000007
20
52.109392741913908
30
-2.5171846163019035e-07
11
-327.38175000000007
21
54.446392821725595
31
-1.0547118733938987e-14
0
ARC
5
282
100
AcDbEntity
8
0
100
AcDbCircle
10
-326.63175000000001
20
54.446392741913897
30
-1.0547118733938987e-14
40
0.75000000000000178
210
0
220
-0
230
1
100
AcDbArc
50
90
51
179.99999390283662
0
LINE
5
283
100
AcDbEntity
8
0
100
AcDbLine
10
-326.63175000000001
20
55.196392741913904
30
-1.0547118733938987e-14
11
-321.13174992018799
21
55.196392741913904
31
-1.0547118733938987e-14
0
ARC
5
284
100
AcDbEntity
8
0
100
AcDbCircle
10
-321.13175000000007
20
54.446392741913897
30
-1.0547118733938987e-14
40
0.75000000000002842
210
0
220
0
230
1
100
AcDbArc
50
0
51
89.99999390280604
0
LINE
5
285
100
AcDbEntity
8
0
100
AcDbLine
10
-320.38175000000001
20
54.446392741913897
30
-1.0547118733938987e-14
11
-320.38175000000001
21
52.109392741913901
31
-2.5171846163019035e-07
0
ARC
5
286
100
AcDbEntity
8
0
100
AcDbCircle
10
-327.71875
20
42.921392741913913
30
0
40
0.75000000000000178
210
0
220
-0
230
1
100
AcDbArc
50
90
51
179.99999217503529
0
ARC
5
287
100
AcDbEntity
8
0
100
AcDbCircle
10
-328.71875
20
51.359392741913901
30
-1.0547118733938987e-14
40
0.74999999999999289
210
0
220
-0
230
1
100
AcDbArc
50
90
51
179.99999396290866
0
LINE
5
288
100
AcDbEntity
8
0
100
AcDbLine
10
-320.38175000000001
20
52.109392741913901
30
-2.5171846163019035e-07
11
-318.94375000000014
21
52.109392741913901
31
-2.5171846163019035e-07
0
LINE
5
289
100
AcDbEntity
8
0
100
AcDbLine
10
-318.94375000000014
20
52.109392741913901
30
-2.5171846163019035e-07
11
-318.94375000000002
21
52.446392821725603
31
-1.0547118733938987e-14
0
ARC
5
290
100
AcDbEntity
8
0
100
AcDbCircle
10
-318.19375000000002
20
52.446392741913897
30
-1.0547118733938987e-14
40
0.75000000000000178
210
0
220
-0
230
1
100
AcDbArc
50
90
51
179.99999396290866
0
LINE
5
291
100
AcDbEntity
8
0
100
AcDbLine
10
-328.71875
20
52.109392741913894
30
-1.0547118733938987e-14
11
-327.38175000000007
21
52.109392741913908
31
-2.5171846163019035e-07
0
ARC
5
292
100
AcDbEntity
8
0
100
AcDbCircle
10
-230.08750000000006
20
39.946392741913797
30
0
40
0.74999999999999289
210
0
220
0
230
1
100
AcDbArc
50
180
51
270
0
LINE
5
293
100
AcDbEntity
8
0
100
AcDbLine
10
-318.19375000000002
20
53.196392741913897
30
-1.0547118733938987e-14
11
-303.50575000000009
21
53.196392741913897
31
-2.5708215278807955e-07
0
ARC
5
294
100
AcDbEntity
8
0
100
AcDbCircle
10
-302.75574999999998
20
54.446392741913897
30
-1.0547118733938987e-14
40
0.75000000000001066
210
0
220
-0
230
1
100
AcDbArc
50
90
51
179.99999396290866
0
ARC
5
295
100
AcDbEntity
8
0
100
AcDbCircle
10
-217.58750000000006
20
52.446392741913897
30
0
40
0.74999999999995737
210
0
220
0
230
1
100
AcDbArc
50
0
51
90
0
LINE
5
296
100
AcDbEntity
8
0
100
AcDbLine
10
-216.83750000000009
20
52.446392741913897
30
0
11
-216.83750000000003
21
39.946392550287598
31
0
0
ARC
5
297
100
AcDbEntity
8
0
100
AcDbCircle
10
-217.58750000000006
20
39.946392741913897
30
0
40
0.75000000000006839
210
0
220
0
230
1
100
AcDbArc
50
270
51
359.99998536083143
0
LINE
5
298
100
AcDbEntity
8
0
100
AcDbLine
10
-217.58750000000006
20
39.196392741913833
30
0
11
-230.08750000000006
21
39.196392741913797
31
-9.3741047701989544e-08
0
LINE
5
299
100
AcDbEntity
8
0
100
AcDbLine
10
-302.75574999999998
20
55.196392741913911
30
-1.0547118733938987e-14
11
-297.25575000000009
21
55.196392741913883
31
-1.3347406679908858e-07
0
LINE
5
300
100
AcDbEntity
8
0
100
AcDbLine
10
-230.08750000000006
20
53.196392741913897
30
0
11
-217.58750000000006
21
53.196392741913847
31
-1.285397122074983e-07
0
LINE
5
301
100
AcDbEntity
8
0
100
AcDbLine
10
-303.50575000000009
20
53.196392741913897
30
-2.5708215278807955e-07
11
-303.50574999999998
21
54.446392820939238
31
-1.0547118733938987e-14
0
ARC
5
302
100
AcDbEntity
8
0
100
AcDbCircle
10
-297.25574999999998
20
54.446392741913897
30
-1.0547118733938987e-14
40
0.74999999999999289
210
0
220
0
230
1
100
AcDbArc
50
0
51
90.000000000004349
0
LINE
5
303
100
AcDbEntity
8
0
100
AcDbLine
10
-230.83750000000006
20
39.946392741913797
30
0
11
-230.83750000000003
21
52.446392741913897
31
-1.2668933180304265e-07
0
ARC
5
304
100
AcDbEntity
8
0
100
AcDbCircle
10
-230.08750000000006
20
52.446392741913897
30
0
40
0.75000000000000178
210
0
220
-0
230
1
100
AcDbArc
50
90
51
179.99999034065385
0
LINE
5
305
100
AcDbEntity
8
0
100
AcDbLine
10
-201.51250000000002
20
72.246392741913894
30
-1.0547118733938987e-14
11
-189.01250000000002
21
72.246392741913894
31
-1.7553936915160054e-07
0
ARC
5
306
100
AcDbEntity
8
0
100
AcDbCircle
10
-189.01250000000002
20
71.496392741913894
30
-1.0547118733938987e-14
40
0.74999999999999289
210
0
220
0
230
1
100
AcDbArc
50
0
51
90
0
LINE
5
307
100
AcDbEntity
8
0
100
AcDbLine
10
-188.26250000000002
20
71.496392741913894
30
-1.0547118733938987e-14
11
-188.26249999999999
21
58.996392662102302
31
-1.0547118733938987e-14
0
ARC
5
308
100
AcDbEntity
8
0
100
AcDbCircle
10
-201.51250000000002
20
71.496392741913795
30
-1.0547118733938987e-14
40
0.75000000000009948
210
0
220
-0
230
1
100
AcDbArc
50
90
51
179.99998674586877
0
ARC
5
309
100
AcDbEntity
8
0
100
AcDbCircle
10
-187.22499999999999
20
33.3963927419138
30
0
40
0.75000000000004174
210
0
220
-0
230
1
100
AcDbArc
50
90
51
179.99999402358449
0
ARC
5
310
100
AcDbEntity
8
0
100
AcDbCircle
10
-174.72499999999999
20
33.3963927419139
30
0
40
0.74999999999999289
210
0
220
0
230
1
100
AcDbArc
50
0
51
89.99999396293471
0
LWPOLYLINE
5
311
100
AcDbEntity
8
0
100
AcDbPolyline
90
8
70
1
43
0.0
10
-191.98750000000001
20
39.196392741913797
10
-179.48750000000001
20
39.196392741913797
42
0.41421356237304996
10
-178.73750000000001
20
39.946392741913897
10
-178.73750000000001
20
52.446392741913797
42
0.41421353151198609
10
-179.48749992097501
20
53.196392741913911
10
-191.98750000000001
20
53.196392741913868
42
0.41421356237312623
10
-192.73750000000007
20
52.446392741913797
10
-192.73750000000004
20
39.946392741913797
42
0.41421356237311413
0
LINE
5
312
100
AcDbEntity
8
0
100
AcDbLine
10
-173.97500000000002
20
33.3963927419139
30
0
11
-173.97499999999997
21
20.8963927419139
31
-4.8715817491107323e-08
0
ARC
5
313
100
AcDbEntity
8
0
100
AcDbCircle
10
-189.01250000000002
20
58.996392741913901
30
-1.0547118733938987e-14
40
0.75000000000007283
210
0
220
0
230
1
100
AcDbArc
50
270
51
359.99999390283659
0
LINE
5
314
100
AcDbEntity
8
0
100
AcDbLine
10
-189.01250000000002
20
58.24639274191383
30
-1.0547118733938987e-14
11
-201.51250000000002
21
58.246392741913908
31
-1.0547118733938987e-14
0
LINE
5
315
100
AcDbEntity
8
0
100
AcDbLine
10
-187.97499999999999
20
20.896392741913804
30
0
11
-187.97499999999999
21
33.3963927419138
31
-7.9470758307387244e-08
0
LINE
5
316
100
AcDbEntity
8
0
100
AcDbLine
10
-187.22499999999999
20
34.146392741913843
30
0
11
-174.72499992097499
21
34.146392741913886
31
0
0
ARC
5
317
100
AcDbEntity
8
0
100
AcDbCircle
10
-174.72499999999999
20
20.896392741913804
30
0
40
0.75000000000000733
210
0
220
0
230
1
100
AcDbArc
50
-90.000003070442048
51
3.7215130446689415e-06
0
ARC
5
318
100
AcDbEntity
8
0
100
AcDbCircle
10
-187.22499999999999
20
20.896392741913804
30
0
40
0.74999999999999289
210
0
220
0
230
1
100
AcDbArc
50
180
51
269.99999390281255
0
ARC
5
319
100
AcDbEntity
8
0
100
AcDbCircle
10
-201.51250000000002
20
58.996392741913901
30
-1.0547118733938987e-14
40
0.74999999999999289
210
0
220
0
230
1
100
AcDbArc
50
180
51
270
0
LINE
5
320
100
AcDbEntity
8
0
100
AcDbLine
10
-174.72500004019199
20
20.146392741913797
30
0
11
-187.22500007981199
21
20.146392741913814
31
0
0
LINE
5
321
100
AcDbEntity
8
0
100
AcDbLine
10
-202.26249999999999
20
58.996392741913901
30
-1.0547118733938987e-14
11
-202.26249999999999
21
71.496392741913894
31
-1.7368898930225643e-07
0
LINE
5
322
100
AcDbEntity
8
0
100
AcDbLine
10
-98.52499999999992
20
20.146392741913797
30
0
11
-111.025000040192
21
20.1463927419138
31
0
0
ARC
5
323
100
AcDbEntity
8
0
100
AcDbCircle
10
-98.52499999999992
20
20.896392741913804
30
0
40
0.75000000000001066
210
0
220
0
230
1
100
AcDbArc
50
-90
51
3.7215130446689415e-06
0
ARC
5
324
100
AcDbEntity
8
0
100
AcDbCircle
10
-111.02500000000001
20
20.8963927419139
30
0
40
0.75000000000002842
210
0
220
0
230
1
100
AcDbArc
50
180
51
269.99999692955794
0
ARC
5
325
100
AcDbEntity
8
0
100
AcDbCircle
10
-98.52499999999992
20
33.3963927419138
30
0
40
0.75000000000001066
210
0
220
0
230
1
100
AcDbArc
50
0
51
90
0
ARC
5
326
100
AcDbEntity
8
0
100
AcDbCircle
10
-111.02500000000001
20
33.3963927419138
30
0
40
0.74999999999999289
210
0
220
-0
230
1
100
AcDbArc
50
90
51
180
0
LINE
5
327
100
AcDbEntity
8
0
100
AcDbLine
10
-82.449999999999903
20
15.0963927419138
30
0
11
-69.949999999999889
21
15.0963927419138
31
-3.4160852480091819e-08
0
ARC
5
328
100
AcDbEntity
8
0
100
AcDbCircle
10
-69.949999999999889
20
14.3463927419138
30
0
40
0.75000000000000178
210
0
220
0
230
1
100
AcDbArc
50
0
51
90
0
LINE
5
329
100
AcDbEntity
8
0
100
AcDbLine
10
-69.199999999999889
20
14.3463927419138
30
0
11
-69.199999999999889
21
1.8463927419138293
31
0
0
LINE
5
330
100
AcDbEntity
8
0
100
AcDbLine
10
-97.774999999999906
20
33.3963927419138
30
0
11
-97.774999999999906
21
20.896392741913804
31
-4.8715817491107323e-08
0
LINE
5
331
100
AcDbEntity
8
0
100
AcDbLine
10
-111.77500000000003
20
20.8963927419139
30
0
11
-111.77500000000001
21
33.3963927419138
31
0
0
LINE
5
332
100
AcDbEntity
8
0
100
AcDbLine
10
-111.02500000000001
20
34.146392741913793
30
0
11
-98.52499999999992
21
34.146392741913814
31
0
0
LINE
5
333
100
AcDbEntity
8
0
100
AcDbLine
10
-135.875
20
33.3963927419138
30
0
11
-135.875
21
20.896392741913804
31
-4.8715817491107323e-08
0
ARC
5
334
100
AcDbEntity
8
0
100
AcDbCircle
10
-136.625
20
33.3963927419139
30
0
40
0.75000000000001066
210
0
220
0
230
1
100
AcDbArc
50
0
51
90
0
ARC
5
335
100
AcDbEntity
8
0
100
AcDbCircle
10
-69.949999999999889
20
1.8463927419138304
30
0
40
0.75000000000000222
210
0
220
0
230
1
100
AcDbArc
50
270
51
360
0
ARC
5
336
100
AcDbEntity
8
0
100
AcDbCircle
10
-241.40000000000001
20
1.8463927419138304
30
0
40
0.74999999999999301
210
0
220
0
230
1
100
AcDbArc
50
-90
51
0
0
LINE
5
337
100
AcDbEntity
8
0
100
AcDbLine
10
-240.65000000000001
20
14.3463927419138
30
0
11
-240.65000000000001
21
1.8463927419138304
31
0
0
ARC
5
338
100
AcDbEntity
8
0
100
AcDbCircle
10
-82.449999999999903
20
1.8463927419138104
30
0
40
0.74999999999997513
210
0
220
0
230
1
100
AcDbArc
50
180
51
270
0
LINE
5
339
100
AcDbEntity
8
0
100
AcDbLine
10
-83.199999999999875
20
1.8463927419138104
30
0
11
-83.199999999999918
21
14.346392741913805
31
-3.2330806365443721e-08
0
ARC
5
340
100
AcDbEntity
8
0
100
AcDbCircle
10
-149.125
20
20.896392741913804
30
0
40
0.74999999999999289
210
0
220
0
230
1
100
AcDbArc
50
180
51
269.99999692955794
0
LINE
5
341
100
AcDbEntity
8
0
100
AcDbLine
10
-149.875
20
20.896392741913804
30
0
11
-149.875
21
33.396392782106197
31
0
0
ARC
5
342
100
AcDbEntity
8
0
100
AcDbCircle
10
-149.125
20
33.3963927419138
30
0
40
0.75000000000001066
210
0
220
-0
230
1
100
AcDbArc
50
90
51
179.99999692167535
0
LINE
5
343
100
AcDbEntity
8
0
100
AcDbLine
10
-136.625
20
20.146392741913829
30
0
11
-149.12500004019199
21
20.146392741913811
31
0
0
LINE
5
344
100
AcDbEntity
8
0
100
AcDbLine
10
-149.125
20
34.146392741913814
30
0
11
-136.625
21
34.146392741913822
31
-8.1316053335278569e-08
0
ARC
5
345
100
AcDbEntity
8
0
100
AcDbCircle
10
-82.449999999999903
20
14.3463927419138
30
0
40
0.74999999999999956
210
0
220
-0
230
1
100
AcDbArc
50
90
51
179.99999758516347
0
LINE
5
346
100
AcDbEntity
8
0
100
AcDbLine
10
-241.40000000000001
20
1.0963927419138373
30
0
11
-253.90000000000001
21
1.09639274191384
31
0
0
LINE
5
347
100
AcDbEntity
8
0
100
AcDbLine
10
-69.949999999999889
20
1.0963927419138282
30
0
11
-82.449999999999903
21
1.0963927419138355
31
0
0
ARC
5
348
100
AcDbEntity
8
0
100
AcDbCircle
10
-136.625
20
20.896392741913804
30
0
40
0.74999999999997513
210
0
220
0
230
1
100
AcDbArc
50
-90
51
3.6222548091772005e-06
0
LINE
5
349
100
AcDbEntity
8
0
100
AcDbLine
10
-112.8125
20
58.246392741913908
30
0
11
-125.3125
21
58.246392741913802
31
0
0
LINE
5
350
100
AcDbEntity
8
0
100
AcDbLine
10
-103.28749999999999
20
39.196392741913797
30
0
11
-115.78750007981199
21
39.196392741913797
31
0
0
ARC
5
351
100
AcDbEntity
8
0
100
AcDbCircle
10
-115.78749999999999
20
39.946392741913897
30
0
40
0.75000000000001066
210
0
220
0
230
1
100
AcDbArc
50
180
51
269.99999390281255
0
ARC
5
352
100
AcDbEntity
8
0
100
AcDbCircle
10
-125.3125
20
58.996392741913901
30
0
40
0.75000000000001066
210
0
220
0
230
1
100
AcDbArc
50
180
51
270
0
LINE
5
353
100
AcDbEntity
8
0
100
AcDbLine
10
-116.53750000000001
20
39.946392741913897
30
0
11
-116.53750000000001
21
52.446392821725603
31
-1.0547118733938987e-14
0
ARC
5
354
100
AcDbEntity
8
0
100
AcDbCircle
10
-253.90000000000001
20
1.8463927419139001
30
0
40
0.75000000000006395
210
0
220
0
230
1
100
AcDbArc
50
180
51
270
0
LINE
5
355
100
AcDbEntity
8
0
100
AcDbLine
10
-126.06250000000001
20
58.996392741913901
30
0
11
-126.06250000000001
21
71.496392741913894
31
-1.0547118733938987e-14
0
ARC
5
356
100
AcDbEntity
8
0
100
AcDbCircle
10
-241.40000000000001
20
14.3463927419138
30
0
40
0.74999999999999289
210
0
220
0
230
1
100
AcDbArc
50
0
51
90
0
ARC
5
357
100
AcDbEntity
8
0
100
AcDbCircle
10
-125.3125
20
71.496392741913894
30
-1.0547118733938987e-14
40
0.75000000000000178
210
0
220
-0
230
1
100
AcDbArc
50
90
51
180
0
LINE
5
358
100
AcDbEntity
8
0
100
AcDbLine
10
-125.3125
20
72.246392741913908
30
-1.0547118733938987e-14
11
-112.8125
21
72.246392741913809
31
-1.7553936915160054e-07
0
ARC
5
359
100
AcDbEntity
8
0
100
AcDbCircle
10
-112.8125
20
71.496392741913894
30
-1.0547118733938987e-14
40
0.74999999999995737
210
0
220
0
230
1
100
AcDbArc
50
0
51
90
0
ARC
5
360
100
AcDbEntity
8
0
100
AcDbCircle
10
-253.90000000000001
20
14.3463927419138
30
0
40
0.74999999999995737
210
0
220
-0
230
1
100
AcDbArc
50
90
51
180
0
LINE
5
361
100
AcDbEntity
8
0
100
AcDbLine
10
-253.90000000000001
20
15.096392741913757
30
0
11
-241.40000000000001
21
15.096392741913807
31
-3.4160852480091819e-08
0
LINE
5
362
100
AcDbEntity
8
0
100
AcDbLine
10
-112.06250000000004
20
71.496392741913894
30
-1.0547118733938987e-14
11
-112.0625
21
58.996392701721504
31
0
0
LINE
5
363
100
AcDbEntity
8
0
100
AcDbLine
10
-254.65000000000006
20
1.8463927419139001
30
0
11
-254.64999999999998
21
14.3463927419138
31
0
0
ARC
5
364
100
AcDbEntity
8
0
100
AcDbCircle
10
-112.8125
20
58.996392741913901
30
0
40
0.74999999999999289
210
0
220
0
230
1
100
AcDbArc
50
270
51
359.99999692167529
0
LINE
5
365
100
AcDbEntity
8
0
100
AcDbLine
10
-102.53749999999998
20
52.446392741913897
30
-1.0547118733938987e-14
11
-102.53749999999998
21
39.946392741913797
31
-9.5586347170772967e-08
0
ARC
5
366
100
AcDbEntity
8
0
100
AcDbCircle
10
-103.28749999999999
20
39.946392741913797
30
0
40
0.75000000000000178
210
0
220
0
230
1
100
AcDbArc
50
-90
51
7.2946452312270284e-06
0
LINE
5
367
100
AcDbEntity
8
0
100
AcDbLine
10
-113.40624705120702
20
91.296392741908022
30
-1.0547118733938987e-14
11
-98.52499999999992
21
91.29639274191382
31
-2.2254110942920846e-07
0
ARC
5
368
100
AcDbEntity
8
0
100
AcDbCircle
10
-115.78749999999999
20
52.446392741913897
30
-1.0547118733938987e-14
40
0.75000000000000178
210
0
220
0
230
1
100
AcDbArc
50
90.000000000001094
51
179.99999396290866
0
LINE
5
369
100
AcDbEntity
8
0
100
AcDbLine
10
-115.78750000000001
20
53.196392741913897
30
-1.0547118733938987e-14
11
-103.28749992018801
21
53.196392741913897
31
-1.0547118733938987e-14
0
LINE
5
370
100
AcDbEntity
8
0
100
AcDbLine
10
-97.77499999999992
20
90.546392701721516
30
-1.0547118733938987e-14
11
-97.77499999999992
21
78.046392741913792
31
-1.898489715435048e-07
0
ARC
5
371
100
AcDbEntity
8
0
100
AcDbCircle
10
-98.52499999999992
20
78.046392741913792
30
-1.0547118733938987e-14
40
0.74999999999999289
210
0
220
0
230
1
100
AcDbArc
50
-90
51
1.4489019236708836e-05
0
ARC
5
372
100
AcDbEntity
8
0
100
AcDbCircle
10
-98.52499999999992
20
90.546392741913792
30
-1.0547118733938987e-14
40
0.749999999999994
210
0
220
0
230
1
100
AcDbArc
50
-3.0783246822254177e-06
51
90
0
ARC
5
373
100
AcDbEntity
8
0
100
AcDbCircle
10
-103.28749999999999
20
52.446392741913897
30
-1.0547118733938987e-14
40
0.75000000000001066
210
0
220
0
230
1
100
AcDbArc
50
0
51
89.999993902813642
0
LINE
5
374
100
AcDbEntity
8
0
100
AcDbLine
10
-98.52499999999992
20
77.296392741913806
30
-1.0547118733938987e-14
11
-113.40624705111601
21
77.29639274191959
31
-1.0547118733938987e-14
0
ARC
5
375
100
AcDbEntity
8
0
100
AcDbCircle
10
-113.40625000000001
20
78.046392741913792
30
-1.0547118733938987e-14
40
0.74999999999999289
210
0
220
0
230
1
100
AcDbArc
50
180
51
270.00022527814349
0
LINE
5
376
100
AcDbEntity
8
0
100
AcDbLine
10
-114.15625
20
78.046392741913792
30
-1.0547118733938987e-14
11
-114.15625
21
90.546392741913792
31
-1.0547118733938987e-14
0
LWPOLYLINE
5
377
100
AcDbEntity
8
0
100
AcDbPolyline
90
8
70
1
43
0.0
10
-259.69999999999999
20
78.046392741913792
10
-259.70000000000005
20
90.546392741913792
42
0.41421356237312279
10
-260.45000000000005
20
91.296392741913849
10
-280.09375
20
91.296392741913905
42
0.41421356237313667
10
-280.84375000000011
20
90.546392741913792
10
-280.84375
20
78.046392741913792
42
0.41421356237309159
10
-280.09375
20
77.29639274191382
10
-260.45000000000005
20
77.29639274191382
42
0.41421356237314361
0
ARC
5
378
100
AcDbEntity
8
0
100
AcDbCircle
10
-113.40625000000001
20
90.546392741913792
30
-1.0547118733938987e-14
40
0.75000000000001665
210
0
220
-0
230
1
100
AcDbArc
50
89.999774728808859
51
180
0
CIRCLE
5
379
100
AcDbEntity
8
0
100
AcDbCircle
10
-117.72500000000001
20
99.843096517327012
30
-2.0539125955565399e-14
40
1.7499999999999905
210
0
220
0
230
1
0
CIRCLE
5
380
100
AcDbEntity
8
0
100
AcDbCircle
10
-19.049999999999898
20
99.843096517327012
30
-2.0539125955565399e-14
40
1.7499999999999905
210
0
220
0
230
1
0
CIRCLE
5
381
100
AcDbEntity
8
0
100
AcDbCircle
10
-276.22500000000002
20
-7.4004190109688617
30
-5.0515147620444629e-14
40
1.7500000000000104
210
0
220
0
230
1
0
CIRCLE
5
382
100
AcDbEntity
8
0
100
AcDbCircle
10
-253.40000000000003
20
99.843096517327012
30
-2.0539125955565399e-14
40
1.7500000000000104
210
0
220
0
230
1
0
CIRCLE
5
383
100
AcDbEntity
8
0
100
AcDbCircle
10
-19.049999999999798
20
-7.4004190109688617
30
-5.0515147620444629e-14
40
1.7500000000000004
210
0
220
0
230
1
0
CIRCLE
5
384
100
AcDbEntity
8
0
100
AcDbCircle
10
-85.724999999999795
20
-7.4004190109688617
30
-5.0515147620444629e-14
40
1.7500000000000104
210
0
220
0
230
1
0
CIRCLE
5
385
100
AcDbEntity
8
0
100
AcDbCircle
10
5.6946341532885514
20
46.218098548762001
30
-1.0547118733938987e-14
40
1.7500000000000004
210
0
220
0
230
1
0
CIRCLE
5
386
100
AcDbEntity
8
0
100
AcDbCircle
10
-176.21250000000001
20
-7.4069034505053111
30
9.9920072216264089e-15
40
1.7500000000000104
210
0
220
0
230
1
0
CIRCLE
5
387
100
AcDbEntity
8
0
100
AcDbCircle
10
-358.11963415328898
20
46.2180980437806
30
0
40
1.7499999999999705
210
0
220
0
230
1
0
CIRCLE
5
388
100
AcDbEntity
8
0
100
AcDbCircle
10
-73.818749999999923
20
22.746392741913802
30
0
40
2
210
0
220
0
230
1
0
CIRCLE
5
389
100
AcDbEntity
8
0
100
AcDbCircle
10
-335.875
20
-7.4069034505053111
30
9.9920072216264089e-15
40
1.7499999999999705
210
0
220
0
230
1
0
CIRCLE
5
390
100
AcDbEntity
8
0
100
AcDbCircle
10
-333.375
20
99.843096517327012
30
-2.0539125955565399e-14
40
1.7500000000000404
210
0
220
0
230
1
0
ARC
5
391
100
AcDbEntity
8
0
100
AcDbCircle
10
-289.02499999999998
20
20.896392741913804
30
0
40
0.74999999999999289
210
0
220
0
230
1
100
AcDbArc
50
270
51
359.99999692167529
0
LINE
5
392
100
AcDbEntity
8
0
100
AcDbLine
10
-302.27499999999998
20
20.896392741913804
30
0
11
-302.27500000000009
21
33.3963927419138
31
-7.9470758307387244e-08
0
ARC
5
393
100
AcDbEntity
8
0
100
AcDbCircle
10
-289.02499999999998
20
33.3963927419138
30
0
40
0.75000000000002842
210
0
220
0
230
1
100
AcDbArc
50
0
51
90
0
LINE
5
394
100
AcDbEntity
8
0
100
AcDbLine
10
-289.02499999999998
20
20.146392741913811
30
0
11
-301.52500004019208
21
20.1463927419139
31
0
0
ARC
5
395
100
AcDbEntity
8
0
100
AcDbCircle
10
-301.52499999999998
20
20.8963927419139
30
0
40
0.74999999999999289
210
0
220
0
230
1
100
AcDbArc
50
180
51
269.9999969295493
0
ARC
5
396
100
AcDbEntity
8
0
100
AcDbCircle
10
-222.34999999999999
20
14.3463927419138
30
0
40
0.74999999999999289
210
0
220
0
230
1
100
AcDbArc
50
0
51
90
0
LINE
5
397
100
AcDbEntity
8
0
100
AcDbLine
10
-221.59999999999999
20
14.3463927419138
30
0
11
-221.60000000000011
21
1.8463927419138293
31
-1.6470352859343509e-09
0
LINE
5
398
100
AcDbEntity
8
0
100
AcDbLine
10
-235.60000000000005
20
1.8463927419139303
30
0
11
-235.60000000000002
21
14.3463927419138
31
-3.2330807475666745e-08
0
LINE
5
399
100
AcDbEntity
8
0
100
AcDbLine
10
-222.34999999999999
20
1.0963927419138373
30
0
11
-234.84999999999999
21
1.09639274191384
31
0
0
ARC
5
400
100
AcDbEntity
8
0
100
AcDbCircle
10
-222.34999999999999
20
1.8463927419138304
30
0
40
0.74999999999999301
210
0
220
0
230
1
100
AcDbArc
50
-90
51
0
0
ARC
5
401
100
AcDbEntity
8
0
100
AcDbCircle
10
-234.84999999999999
20
1.8463927419139001
30
0
40
0.75000000000006395
210
0
220
0
230
1
100
AcDbArc
50
180
51
270
0
ARC
5
402
100
AcDbEntity
8
0
100
AcDbCircle
10
-234.84999999999999
20
14.346392741913904
30
0
40
0.74999999999989742
210
0
220
-0
230
1
100
AcDbArc
50
90
51
180.0000024148365
0
ARC
5
403
100
AcDbEntity
8
0
100
AcDbCircle
10
-301.52499999999998
20
33.3963927419138
30
0
40
0.74999999999999289
210
0
220
-0
230
1
100
AcDbArc
50
90
51
179.99999396290866
0
LINE
5
404
100
AcDbEntity
8
0
100
AcDbLine
10
-301.52499999999998
20
34.146392741913793
30
0
11
-289.02499999999998
21
34.146392741913829
31
0
0
LINE
5
405
100
AcDbEntity
8
0
100
AcDbLine
10
-288.27499999999998
20
33.3963927419138
30
0
11
-288.27499999999998
21
20.896392701618627
31
0
0
LINE
5
406
100
AcDbEntity
8
0
100
AcDbLine
10
-272.95000000000005
20
15.09639274191386
30
0
11
-260.45000000000005
21
15.0963927419138
31
0
0
LINE
5
407
100
AcDbEntity
8
0
100
AcDbLine
10
-259.69999999999999
20
14.3463927419137
30
0
11
-259.69999999999999
21
1.8463927017214909
31
0
0
ARC
5
408
100
AcDbEntity
8
0
100
AcDbCircle
10
-272.95000000000005
20
1.8463927419138402
30
0
40
0.74999999999999289
210
0
220
0
230
1
100
AcDbArc
50
180
51
270
0
ARC
5
409
100
AcDbEntity
8
0
100
AcDbCircle
10
-260.45000000000005
20
14.3463927419138
30
0
40
0.75000000000006395
210
0
220
0
230
1
100
AcDbArc
50
0
51
90
0
ARC
5
410
100
AcDbEntity
8
0
100
AcDbCircle
10
-272.95000000000005
20
14.346392741913904
30
0
40
0.74999999999995737
210
0
220
-0
230
1
100
AcDbArc
50
90
51
180.0000024148365
0
LINE
5
411
100
AcDbEntity
8
0
100
AcDbLine
10
-260.45000000000005
20
1.0963927419138368
30
0
11
-272.95000000000005
21
1.0963927419138471
31
0
0
LINE
5
412
100
AcDbEntity
8
0
100
AcDbLine
10
-273.70000000000005
20
1.8463927419138402
30
0
11
-273.69999999999999
21
14.346392741913805
31
-3.2330807475666745e-08
0
ARC
5
413
100
AcDbEntity
8
0
100
AcDbCircle
10
-260.45000000000005
20
1.8463927419138304
30
0
40
0.74999999999999312
210
0
220
0
230
1
100
AcDbArc
50
270
51
359.99999692167529
0
LINE
5
414
100
AcDbEntity
8
0
100
AcDbLine
10
-108.05
20
1.0963927419138302
30
0
11
-120.550000079025
21
1.0963927419138324
31
0
0
ARC
5
415
100
AcDbEntity
8
0
100
AcDbCircle
10
-329.01299999999998
20
-0.15360725808600501
30
0
40
0.75000000000009948
210
0
220
0
230
1
100
AcDbArc
50
180
51
270
0
LINE
5
416
100
AcDbEntity
8
0
100
AcDbLine
10
-329.76300000000009
20
-0.15360725808600492
30
0
11
-329.76300000000009
21
1.09639274191383
31
9.9920072216264089e-15
0
LINE
5
417
100
AcDbEntity
8
0
100
AcDbLine
10
-287.98750000000001
20
39.946392741913797
30
0
11
-287.98750000000001
21
52.446392741913897
31
-1.2668933180304265e-07
0
ARC
5
418
100
AcDbEntity
8
0
100
AcDbCircle
10
-287.23750000000001
20
52.446392741913897
30
0
40
0.74999999999999289
210
0
220
-0
230
1
100
AcDbArc
50
90
51
179.99999034065385
0
LINE
5
419
100
AcDbEntity
8
0
100
AcDbLine
10
-287.23750000000001
20
53.19639274191389
30
0
11
-274.73750000000007
21
53.196392741913868
31
-1.2853971054216373e-07
0
ARC
5
420
100
AcDbEntity
8
0
100
AcDbCircle
10
-274.73750000000001
20
52.446392741913897
30
0
40
0.74999999999999289
210
0
220
0
230
1
100
AcDbArc
50
0
51
90.000000000004349
0
LINE
5
421
100
AcDbEntity
8
0
100
AcDbLine
10
-273.98750000000001
20
52.446392741913897
30
0
11
-273.98750000000007
21
39.946392741913797
31
-9.5586342729880882e-08
0
ARC
5
422
100
AcDbEntity
8
0
100
AcDbCircle
10
-274.73750000000001
20
39.946392741913797
30
0
40
0.74999999999999289
210
0
220
0
230
1
100
AcDbArc
50
-90
51
7.2946452312270284e-06
0
LINE
5
423
100
AcDbEntity
8
0
100
AcDbLine
10
-274.73750000000001
20
39.196392741913812
30
0
11
-287.23750000000001
21
39.196392741913797
31
0
0
ARC
5
424
100
AcDbEntity
8
0
100
AcDbCircle
10
-287.23750000000001
20
39.946392741913797
30
0
40
0.74999999999999289
210
0
220
0
230
1
100
AcDbArc
50
180
51
270
0
LINE
5
425
100
AcDbEntity
8
0
100
AcDbLine
10
-234.84999999999999
20
15.096392741913803
30
0
11
-222.34999999999999
21
15.096392741913807
31
-3.4160852480091819e-08
0
LWPOLYLINE
5
426
100
AcDbEntity
8
0
100
AcDbPolyline
90
8
70
1
43
0.0
10
-130.82500000000005
20
33.3963927419138
10
-130.82500000000005
20
20.8963927419139
42
0.4142135466771546
10
-130.07500004019198
20
20.146392741913868
10
-117.57499999999993
20
20.146392741913797
42
0.41421356237313495
10
-116.82499999999992
20
20.896392741913804
10
-116.82499999999992
20
33.3963927419138
42
0.41421356237308982
10
-117.57499999999993
20
34.146392741913793
10
-130.07500000000002
20
34.1463927419138
42
0.41421356237310197
0
LWPOLYLINE
5
427
100
AcDbEntity
8
0
100
AcDbPolyline
90
32
70
1
43
0.0
10
-60.618249999999883
20
73.496392741913795
10
-60.618249999999904
20
72.246392741913866
10
-77.494249999999923
20
72.246392741913795
10
-77.494249999999923
20
73.496392661529086
42
0.41421359376528172
10
-78.244249999999923
20
74.246392741913809
10
-83.744249999999894
20
74.246392741913809
42
0.41421356237310542
10
-84.494249999999923
20
73.496392741913795
10
-84.494249999999894
20
72.246392741913795
10
-87.212499999999906
20
72.246392741913866
42
0.41421356237315748
10
-87.962499999999977
20
71.496392741913894
10
-87.96249999999992
20
58.996392741913901
42
0.41421356237308116
10
-87.212499999999906
20
58.246392741913901
10
-84.494249999999894
20
58.246392741913802
10
-84.494249999999894
20
56.996392741913802
42
0.41421356237309159
10
-83.744249999999894
20
56.246392741913823
10
-78.244250080384603
20
56.246392741913823
42
0.41421359376529554
10
-77.494249999999923
20
56.99639274191383
10
-77.494249999999923
20
58.246392741913802
10
-60.618249999999904
20
58.246392741913802
10
-60.618249999999904
20
56.996392741913802
42
0.41421356237306384
10
-59.868249999999897
20
56.246392741913922
10
-54.368249999999904
20
56.246392741913915
42
0.41421356237304652
10
-53.618249999999897
20
56.99639274191383
10
-53.618249999999897
20
58.246392741913873
10
-53.281249999999893
20
58.246392741913908
42
0.41421356237310897
10
-52.531249999999901
20
58.996392741913901
10
-52.531249999999908
20
71.496392741913894
42
0.41421356237309159
10
-53.281249999999893
20
72.246392741913894
10
-53.618249999999897
20
72.246392741913795
10
-53.618249999999897
20
73.496392741913795
42
0.41421356237309853
10
-54.368249999999911
20
74.246392741913809
10
-59.868249999999897
20
74.246392741913866
42
0.41421356237311935
0
ARC
5
428
100
AcDbEntity
8
0
100
AcDbCircle
10
0.9749999999999992
20
-3.1872710670619711
30
3.9968028886505635e-14
40
4.0000000000000311
210
0
220
0
230
1
100
AcDbArc
50
-89.999999893966461
51
0
0
ARC
5
429
100
AcDbEntity
8
0
100
AcDbCircle
10
-19.049999999999798
20
-7.4004190109688617
30
-5.0515147620444629e-14
40
3.5064844395352557
210
0
220
0
230
1
100
AcDbArc
50
197.22500111789552
51
342.7750076264067
0
LINE
5
430
100
AcDbEntity
8
0
100
AcDbLine
10
-13.846126396337199
20
-7.1872741085374416
30
-2.9903857168278595e-12
11
0.97500000740253567
21
-7.1872710670620021
31
3.9968028886505635e-14
0
LINE
5
431
100
AcDbEntity
8
0
100
AcDbLine
10
4.9750000000000307
20
-3.1872710670619711
30
3.9968028886505635e-14
11
4.9749999999999899
21
40.591074484204199
31
1.9984014443252815e-14
0
ARC
5
432
100
AcDbEntity
8
0
100
AcDbCircle
10
5.6946341532885514
20
46.218098548762001
30
-1.0547118733938987e-14
40
3.4999999999999605
210
0
220
0
230
1
100
AcDbArc
50
-73.731533110244314
51
73.731533110245152
0
ARC
5
433
100
AcDbEntity
8
0
100
AcDbCircle
10
-13.846132081962701
20
-9.1872652521281601
30
-2.9903857168278595e-12
40
1.9999911435988018
210
0
220
-0
230
1
100
AcDbArc
50
89.999837118106171
51
158.02227043009924
0
ARC
5
434
100
AcDbEntity
8
0
100
AcDbCircle
10
7.3367299999999913
20
40.591074484204199
30
2.9976021664879227e-14
40
2.3617300000000001
210
-4.8066836519595451e-15
220
1.6471221600407537e-14
230
1
100
AcDbArc
50
106.26846688975571
51
180
0
ARC
5
435
100
AcDbEntity
8
0
100
AcDbCircle
10
7.3367299999999913
20
51.845122613320001
30
9.9920072216264089e-15
40
2.3617300000000001
210
0
220
0
230
1
100
AcDbArc
50
180
51
253.73153311024438
0
LINE
5
436
100
AcDbEntity
8
0
100
AcDbLine
10
4.9749999999999908
20
51.845122613320001
30
9.9920072216264089e-15
11
4.9750000000000218
21
95.623459563096205
31
-1.0547118733938987e-14
0
ARC
5
437
100
AcDbEntity
8
0
100
AcDbCircle
10
-85.724999999999795
20
-7.4004190109688617
30
-5.0515147620444629e-14
40
3.5064844395352202
210
0
220
0
230
1
100
AcDbArc
50
197.22500270381676
51
342.77500623971002
0
ARC
5
438
100
AcDbEntity
8
0
100
AcDbCircle
10
-80.521132124171999
20
-9.1872653755249107
30
5.595524044110789e-13
40
1.99999114360662
210
0
220
-0
230
1
100
AcDbArc
50
89.999837118283835
51
158.022269122247
0
LINE
5
439
100
AcDbEntity
8
0
100
AcDbLine
10
-80.521126438552699
20
-7.1872742319263727
30
5.595524044110789e-13
11
-24.253873604493705
21
-7.18727111375141
31
1.7985612998927536e-13
0
ARC
5
440
100
AcDbEntity
8
0
100
AcDbCircle
10
-24.253875446328301
20
-9.1872737023797022
30
1.7985612998927536e-13
40
2.0000025886291422
210
1.0681479338125272e-13
220
4.3107968597864918e-14
230
1
100
AcDbArc
50
21.97785806766024
51
89.999947235393833
0
ARC
5
441
100
AcDbEntity
8
0
100
AcDbCircle
10
-335.875
20
-7.4004190109688617
30
-5.0515147620444629e-14
40
3.5064844395348915
210
0
220
0
230
1
100
AcDbArc
50
197.22500770718568
51
342.77500103716585
0
LINE
5
442
100
AcDbEntity
8
0
100
AcDbLine
10
-34.824999999999903
20
34.1463927419138
30
0
11
-22.324999999999907
21
34.146392741913807
31
-8.1316053890390094e-08
0
ARC
5
443
100
AcDbEntity
8
0
100
AcDbCircle
10
-22.324999999999907
20
33.3963927419138
30
0
40
0.75000000000001066
210
0
220
0
230
1
100
AcDbArc
50
0
51
90
0
ARC
5
444
100
AcDbEntity
8
0
100
AcDbCircle
10
-22.324999999999907
20
20.896392741913804
30
0
40
0.74999999999998845
210
0
220
0
230
1
100
AcDbArc
50
-90
51
7.4430260893378872e-06
0
LINE
5
445
100
AcDbEntity
8
0
100
AcDbLine
10
-22.324999999999907
20
20.146392741913814
30
0
11
-34.824999999999903
21
20.1463927419138
31
0
0
ARC
5
446
100
AcDbEntity
8
0
100
AcDbCircle
10
-34.824999999999903
20
20.896392741913804
30
0
40
0.75000000000000622
210
0
220
0
230
1
100
AcDbArc
50
180
51
270
0
ARC
5
447
100
AcDbEntity
8
0
100
AcDbCircle
10
-298.55000000000007
20
90.546392741913792
30
-1.0547118733938987e-14
40
0.75000000000002842
210
0
220
0
230
1
100
AcDbArc
50
0
51
90
0
LINE
5
448
100
AcDbEntity
8
0
100
AcDbLine
10
-10.049999998432801
20
99.623456068946226
30
-8.0491169285323849e-14
11
-13.846125459515701
21
99.623456087138607
31
-1.1046719095020308e-13
0
LINE
5
449
100
AcDbEntity
8
0
100
AcDbLine
10
-298.55000000000007
20
77.29639274191382
30
-1.0547118733938987e-14
11
-311.05000000000007
21
77.29639274191382
31
-1.0547118733938987e-14
0
ARC
5
450
100
AcDbEntity
8
0
100
AcDbCircle
10
-281.42887528349996
20
-9.18727417831807
30
-1.0047518372857668e-13
40
2.000002588630263
210
0
220
-0
230
1
100
AcDbArc
50
21.977863111951176
51
89.999947235383857
0
ARC
5
451
100
AcDbEntity
8
0
100
AcDbCircle
10
-248.19612398874801
20
101.62345979858802
30
-1.1046719095020308e-13
40
2.0000025883954113
210
0
220
0
230
1
100
AcDbArc
50
201.97838504772429
51
269.9999468585201
0
ARC
5
452
100
AcDbEntity
8
0
100
AcDbCircle
10
-24.253868845906101
20
101.62345029686702
30
-1.2784051595104984e-10
40
1.9999911466906135
210
0
220
0
230
1
100
AcDbArc
50
269.99983680183226
51
338.02175457200866
0
ARC
5
453
100
AcDbEntity
8
0
100
AcDbCircle
10
-122.92886868413099
20
101.62345076973502
30
-7.5080497374813149e-11
40
1.9999911466904181
210
0
220
0
230
1
100
AcDbArc
50
269.99983680199
51
338.02175274351822
0
LINE
5
454
100
AcDbEntity
8
0
100
AcDbLine
10
-24.253874542571605
20
99.623459150184516
30
-1.2784051595104984e-10
11
-112.52112562129602
21
99.623456560009501
31
-3.1030733538273125e-13
0
ARC
5
455
100
AcDbEntity
8
0
100
AcDbCircle
10
-328.17112411986892
20
101.62346018184601
30
-1.3045120539345587e-13
40
2.0000025883961805
210
0
220
0
230
1
100
AcDbArc
50
201.97838910977308
51
269.99994685851846
0
LINE
5
456
100
AcDbEntity
8
0
100
AcDbLine
10
-258.60387415834902
20
99.623460273222406
30
-3.8287151227223148e-11
11
-328.17112597485897
21
99.623457593450695
31
-1.3045120539345587e-13
0
ARC
5
457
100
AcDbEntity
8
0
100
AcDbCircle
10
-112.52112376630699
20
101.62345914840301
30
-3.1030733538273125e-13
40
2.0000025883938628
210
0
220
0
230
1
100
AcDbArc
50
201.97837815644738
51
269.99994685854733
0
LINE
5
458
100
AcDbEntity
8
0
100
AcDbLine
10
-357.39999999999986
20
95.623459210171703
30
0
11
-357.40000000000009
21
51.849297431795705
31
9.9920072216264089e-15
0
LINE
5
459
100
AcDbEntity
8
0
100
AcDbLine
10
-357.40000000000003
20
40.586898655765509
30
2.9976021664879227e-14
11
-357.39999969059198
21
-3.1872717228809666
31
-3.0531133177191805e-14
0
ARC
5
460
100
AcDbEntity
8
0
100
AcDbCircle
10
-276.22500000000002
20
-7.4004190109688617
30
-5.0515147620444629e-14
40
3.5064844395353738
210
-1.3608869476727701e-14
220
-4.2191583549444192e-15
230
1
100
AcDbArc
50
197.22500646654825
51
342.77500093289876
0
ARC
5
461
100
AcDbEntity
8
0
100
AcDbCircle
10
-34.824999999999903
20
71.496392741913894
30
-1.0547118733938987e-14
40
0.74999999999999289
210
0
220
-0
230
1
100
AcDbArc
50
90
51
180
0
ARC
5
462
100
AcDbEntity
8
0
100
AcDbCircle
10
-353.39999999999998
20
-3.1872717228809599
30
-3.0531133177191805e-14
40
3.9999996905920199
210
0
220
0
230
1
100
AcDbArc
50
180
51
270.00000046524161
0
LINE
5
463
100
AcDbEntity
8
0
100
AcDbLine
10
-122.92887438079099
20
99.62345962305271
30
-7.5080497374813149e-11
11
-248.196125843738
21
99.623457210193465
31
-1.1046719095020308e-13
0
ARC
5
464
100
AcDbEntity
8
0
100
AcDbCircle
10
-330.671132282543
20
-9.1872658384661907
30
-4.0706327197881365e-12
40
1.9999911436161313
210
0
220
-0
230
1
100
AcDbArc
50
89.999837118636407
51
158.02226421572283
0
LINE
5
465
100
AcDbEntity
8
0
100
AcDbLine
10
-21.574999999999896
20
33.3963927419138
30
0
11
-21.574999999999921
21
20.896392839342788
31
0
0
ARC
5
466
100
AcDbEntity
8
0
100
AcDbCircle
10
-258.60386846172298
20
101.62345141995101
30
-3.8220537845745639e-11
40
1.9999911467367277
210
-9.486872066553189e-20
220
-3.3306838175723462e-14
230
1
100
AcDbArc
50
269.99983680296299
51
338.02174585167882
0
ARC
5
467
100
AcDbEntity
8
0
100
AcDbCircle
10
-341.07887524573408
20
-9.1872742887105687
30
3.9968028886505635e-14
40
2.0000025886324218
210
4.1953760383181377e-14
220
1.6931568119983448e-14
230
1
100
AcDbArc
50
21.977864281881725
51
89.999947235323603
0
LINE
5
468
100
AcDbEntity
8
0
100
AcDbLine
10
-35.57499999999991
20
20.896392741913804
30
0
11
-35.574999999999903
21
33.396392901145497
31
0
0
ARC
5
469
100
AcDbEntity
8
0
100
AcDbCircle
10
-34.824999999999903
20
33.3963927419138
30
0
40
0.74999999999999734
210
0
220
-0
230
1
100
AcDbArc
50
90
51
179.99998783559801
0
LINE
5
470
100
AcDbEntity
8
0
100
AcDbLine
10
-311.80000000000001
20
78.046392741913792
30
-1.0547118733938987e-14
11
-311.80000000000001
21
90.546392741913792
31
-1.0547118733938987e-14
0
ARC
5
471
100
AcDbEntity
8
0
100
AcDbCircle
10
-22.324999999999907
20
58.996392741913901
30
-1.0547118733938987e-14
40
0.75000000000000178
210
0
220
0
230
1
100
AcDbArc
50
-90
51
0
0
ARC
5
472
100
AcDbEntity
8
0
100
AcDbCircle
10
-271.02113136339
20
-9.1872666306844994
30
-4.0523140398818207e-14
40
1.9999923666089605
210
0
220
-0
230
1
100
AcDbArc
50
89.999862368480223
51
158.02225320634557
0
ARC
5
473
100
AcDbEntity
8
0
100
AcDbCircle
10
-311.05000000000007
20
90.546392741913905
30
-1.0547118733938987e-14
40
0.74999999999995737
210
0
220
-0
230
1
100
AcDbArc
50
90
51
180
0
ARC
5
474
100
AcDbEntity
8
0
100
AcDbCircle
10
-358.11963415328898
20
46.2180980437806
30
0
40
3.4999999999999654
210
0
220
0
230
1
100
AcDbArc
50
106.30925942660322
51
253.69074057339677
0
LINE
5
475
100
AcDbEntity
8
0
100
AcDbLine
10
-311.05000000000007
20
91.296392741913877
30
-1.0547118733938987e-14
11
-298.55000000000007
21
91.29639274191382
31
-1.0547118733938987e-14
0
LINE
5
476
100
AcDbEntity
8
0
100
AcDbLine
10
-297.80000000000007
20
90.546392741913792
30
-1.0547118733938987e-14
11
-297.80000000000001
21
78.046392741913792
31
-1.898489715435048e-07
0
ARC
5
477
100
AcDbEntity
8
0
100
AcDbCircle
10
-298.55000000000007
20
78.046392741913792
30
-1.0547118733938987e-14
40
0.74999999999999289
210
0
220
0
230
1
100
AcDbArc
50
-90
51
1.4489019236708836e-05
0
ARC
5
478
100
AcDbEntity
8
0
100
AcDbCircle
10
-19.049999999999798
20
99.836612077790591
30
-8.0491169285323849e-14
40
3.5064844395352193
210
0
220
-0
230
1
100
AcDbArc
50
17.22457743161802
51
162.77543053933798
0
ARC
5
479
100
AcDbEntity
8
0
100
AcDbCircle
10
-253.40000000000003
20
99.836612077790591
30
-8.0491169285323849e-14
40
3.5064844395362513
210
8.1653400842112356e-15
220
2.531435668996847e-15
230
1
100
AcDbArc
50
17.224590052440842
51
162.7754160965863
0
ARC
5
480
100
AcDbEntity
8
0
100
AcDbCircle
10
-359.76729999999998
20
51.849297431795705
30
9.9920072216264089e-15
40
2.3672999999999891
210
1.1853054632527007e-15
220
-4.0509982121719771e-15
230
1
100
AcDbArc
50
-73.690740573409755
51
0
0
LINE
5
481
100
AcDbEntity
8
0
100
AcDbLine
10
-271.02112655916198
20
-7.1872742640813092
30
-4.0523140398818207e-14
11
-181.416373501972
21
-7.1872714046019217
31
-1.6042722705833512e-13
0
ARC
5
482
100
AcDbEntity
8
0
100
AcDbCircle
10
-176.21250000000001
20
-7.4004190109688617
30
-5.0515147620444629e-14
40
3.5064844395349306
210
0
220
0
230
1
100
AcDbArc
50
197.22500383509151
51
342.77500308736256
0
ARC
5
483
100
AcDbEntity
8
0
100
AcDbCircle
10
0.97499999999999409
20
95.623459563096205
30
-1.0547118733938987e-14
40
4.0000000000000266
210
0
220
0
230
1
100
AcDbArc
50
0
51
90.000018158733084
0
ARC
5
484
100
AcDbEntity
8
0
100
AcDbCircle
10
-353.39999999999998
20
95.623459210171703
30
0
40
3.9999999999998477
210
0
220
-0
230
1
100
AcDbArc
50
89.999991951806379
51
180
0
ARC
5
485
100
AcDbEntity
8
0
100
AcDbCircle
10
-117.72500000000001
20
99.836612077790591
30
-8.0491169285323849e-14
40
3.5064844395356802
210
6.2600943120623276e-14
220
1.9407665479027903e-14
230
1
100
AcDbArc
50
17.224582745705792
51
162.7754234032881
0
ARC
5
486
100
AcDbEntity
8
0
100
AcDbCircle
10
-359.76729999999998
20
40.586898655765509
30
2.9976021664879227e-14
40
2.3673000000000144
210
0
220
0
230
1
100
AcDbArc
50
0
51
73.690740573409684
0
ARC
5
487
100
AcDbEntity
8
0
100
AcDbCircle
10
-171.008632184454
20
-9.1872655430152825
30
-3.8025138593411612e-13
40
1.9999911436461495
210
0
220
-0
230
1
100
AcDbArc
50
89.999837119008504
51
158.0222695342166
0
ARC
5
488
100
AcDbEntity
8
0
100
AcDbCircle
10
-333.375
20
99.836612077790591
30
-8.0491169285323849e-14
40
3.5064844395356287
210
1.3608899823196033e-14
220
4.2190604713466553e-15
230
1
100
AcDbArc
50
17.224594359519859
51
162.77541178953308
0
LINE
5
489
100
AcDbEntity
8
0
100
AcDbLine
10
-171.00862649886
20
-7.1872743993772135
30
-3.8025138593411612e-13
11
-90.928873562278611
21
-7.187271237142542
31
-5.0515147620444623e-14
0
LINE
5
490
100
AcDbEntity
8
0
100
AcDbLine
10
0.97499873228127232
20
99.623459563096034
30
-1.0547118733938987e-14
11
-10.049999998432801
21
99.623456068946226
31
-8.0491169285323849e-14
0
ARC
5
491
100
AcDbEntity
8
0
100
AcDbCircle
10
-22.324999999999907
20
71.496392741913894
30
-1.0547118733938987e-14
40
0.75000000000000178
210
0
220
0
230
1
100
AcDbArc
50
0
51
90.00000000000027
0
LINE
5
492
100
AcDbEntity
8
0
100
AcDbLine
10
-21.574999999999903
20
71.496392741913894
30
-1.0547118733938987e-14
11
-21.574999999999903
21
58.996392741913901
31
-1.0547118733938987e-14
0
LINE
5
493
100
AcDbEntity
8
0
100
AcDbLine
10
-338.57887402722804
20
99.623460656475586
30
7.9099504723956203e-11
11
-342.37500006626999
21
99.623457661517932
31
-7.049916206369744e-14
0
ARC
5
494
100
AcDbEntity
8
0
100
AcDbCircle
10
-338.578868330614
20
101.62345180322303
30
7.9099504723956203e-11
40
1.9999911467555394
210
0
220
0
230
1
100
AcDbArc
50
269.99983680330661
51
338.02174178932046
0
LINE
5
495
100
AcDbEntity
8
0
100
AcDbLine
10
-353.39999996751999
20
-7.1872714134729794
30
-3.0531133177191805e-14
11
-341.07887340389703
21
-7.187271700078993
31
3.9968028886505635e-14
0
LINE
5
496
100
AcDbEntity
8
0
100
AcDbLine
10
-330.67112659693601
20
-7.1872746948581412
30
-4.0706327197881365e-12
11
-281.42887344166502
21
-7.1872715896886543
31
-1.0047518372857668e-13
0
LINE
5
497
100
AcDbEntity
8
0
100
AcDbLine
10
-22.324999999999907
20
58.246392741913901
30
-1.0547118733938987e-14
11
-34.824999999999903
21
58.246392741913908
31
-1.4099893974606204e-07
0
LINE
5
498
100
AcDbEntity
8
0
100
AcDbLine
10
-342.37500006626999
20
99.623457661517932
30
-7.049916206369744e-14
11
-353.39999943813007
21
99.623459210171518
31
0
0
ARC
5
499
100
AcDbEntity
8
0
100
AcDbCircle
10
-181.41637534380604
20
-9.1872739932303009
30
-2.3037127760971998e-13
40
2.0000025886292199
210
-8.3392751955021822e-14
220
-3.3655383829290838e-14
230
1
100
AcDbArc
50
21.977862146058278
51
89.99994723540992
0
ARC
5
500
100
AcDbEntity
8
0
100
AcDbCircle
10
-13.846123604529303
20
101.62345867552801
30
-1.1046719095020308e-13
40
2.0000025883904708
210
1.3898741967105075e-14
220
5.6093545964789914e-15
230
1
100
AcDbArc
50
201.97837314440793
51
269.99994685862299
0
ARC
5
501
100
AcDbEntity
8
0
100
AcDbCircle
10
-90.928875485168305
20
-9.1872739442751197
30
-5.0515147620444629e-14
40
2.0000027071335533
210
0
220
-0
230
1
100
AcDbArc
50
21.977861306487817
51
89.999944913342574
0
LINE
5
502
100
AcDbEntity
8
0
100
AcDbLine
10
-34.824999999999903
20
72.246392741913894
30
-1.0547118733938987e-14
11
-22.324999999999907
21
72.246392741913894
31
-1.7553936970671202e-07
0
ARC
5
503
100
AcDbEntity
8
0
100
AcDbCircle
10
-34.824999999999903
20
58.996392741913901
30
0
40
0.75000000000001066
210
0
220
0
230
1
100
AcDbArc
50
180
51
270
0
LINE
5
504
100
AcDbEntity
8
0
100
AcDbLine
10
-35.574999999999918
20
58.996392741913901
30
0
11
-35.574999999999896
21
71.496392741913894
31
-1.0547118733938987e-14
0
LWPOLYLINE
5
505
100
AcDbEntity
8
0
100
AcDbPolyline
90
8
70
1
43
0.0
10
-68.162499999999895
20
77.29639274191382
10
-53.281249999999893
20
77.29639274191382
42
0.4142135623730534
10
-52.531249999999901
20
78.046392741913706
10
-52.531249999999901
20
90.546392741913792
42
0.41421356237315748
10
-53.281249999999893
20
91.296392741913905
10
-68.162499999999895
20
91.29639274191382
42
0.4142135623730846
10
-68.912499999999881
20
90.546392741913763
10
-68.912499999999895
20
78.046392741913792
42
0.41421356237309853
0
ARC
5
506
100
AcDbEntity
8
0
100
AcDbCircle
10
-239.61250000000007
20
71.496392741913795
30
-1.0547118733938987e-14
40
0.74999999999999289
210
0
220
-0
230
1
100
AcDbArc
50
90
51
179.99998674586877
0
ARC
5
507
100
AcDbEntity
8
0
100
AcDbCircle
10
-191.98750000000001
20
78.046392741913905
30
-1.0547118733938987e-14
40
0.75000000000002842
210
0
220
0
230
1
100
AcDbArc
50
180
51
270
0
LINE
5
508
100
AcDbEntity
8
0
100
AcDbLine
10
-239.61250000000007
20
72.24639274191378
30
-1.0547118733938987e-14
11
-227.11250000000007
21
72.246392741913795
31
-1.7553936915160054e-07
0
ARC
5
509
100
AcDbEntity
8
0
100
AcDbCircle
10
-172.34375
20
90.546392741913792
30
-1.0547118733938987e-14
40
0.74999999999999289
210
0
220
0
230
1
100
AcDbArc
50
0
51
90
0
ARC
5
510
100
AcDbEntity
8
0
100
AcDbCircle
10
-191.98750000000001
20
90.546392741913792
30
-1.0547118733938987e-14
40
0.75000000000001066
210
0
220
-0
230
1
100
AcDbArc
50
90
51
179.99998313932144
0
ARC
5
511
100
AcDbEntity
8
0
100
AcDbCircle
10
-203.30000000000001
20
1.8463927419138304
30
0
40
0.74999999999999312
210
0
220
0
230
1
100
AcDbArc
50
270
51
359.99999692167529
0
ARC
5
512
100
AcDbEntity
8
0
100
AcDbCircle
10
-172.34375
20
78.046392741913792
30
-1.0547118733938987e-14
40
0.74999999999999289
210
0
220
0
230
1
100
AcDbArc
50
270
51
359.99999692167529
0
LINE
5
513
100
AcDbEntity
8
0
100
AcDbLine
10
-203.30000000000001
20
1.0963927419138373
30
0
11
-215.80000000000001
21
1.09639274191384
31
0
0
LINE
5
514
100
AcDbEntity
8
0
100
AcDbLine
10
-171.59375
20
90.546392741913792
30
-1.0547118733938987e-14
11
-171.59375
21
78.046392701618615
31
-1.0547118733938987e-14
0
LINE
5
515
100
AcDbEntity
8
0
100
AcDbLine
10
-226.36250000000004
20
71.496392741913894
30
-1.0547118733938987e-14
11
-226.36250000000004
21
58.996392741913901
31
0
0
LINE
5
516
100
AcDbEntity
8
0
100
AcDbLine
10
-316.85000000000002
20
71.496392741913894
30
-1.0547118733938987e-14
11
-316.85000000000002
21
58.996392741913901
31
0
0
LINE
5
517
100
AcDbEntity
8
0
100
AcDbLine
10
-202.55000000000001
20
14.3463927419138
30
0
11
-202.55000000000001
21
1.8463927016186537
31
0
0
ARC
5
518
100
AcDbEntity
8
0
100
AcDbCircle
10
-227.11250000000007
20
58.996392741913901
30
0
40
0.75000000000000178
210
0
220
0
230
1
100
AcDbArc
50
-90
51
0
0
LINE
5
519
100
AcDbEntity
8
0
100
AcDbLine
10
-330.10000000000014
20
72.246392741913809
30
-1.0547118733938987e-14
11
-317.60000000000002
21
72.246392741913795
31
-1.7553936970671202e-07
0
LINE
5
520
100
AcDbEntity
8
0
100
AcDbLine
10
-227.11250000000007
20
58.246392741913901
30
0
11
-239.61250004019206
21
58.246392741913802
31
0
0
ARC
5
521
100
AcDbEntity
8
0
100
AcDbCircle
10
-150.91249999999999
20
71.496392741913894
30
-1.0547118733938987e-14
40
0.74999999999997513
210
0
220
0
230
1
100
AcDbArc
50
0
51
90
0
ARC
5
522
100
AcDbEntity
8
0
100
AcDbCircle
10
-163.41249999999999
20
71.496392741913795
30
-1.0547118733938987e-14
40
0.75000000000009948
210
0
220
-0
230
1
100
AcDbArc
50
90
51
180
0
ARC
5
523
100
AcDbEntity
8
0
100
AcDbCircle
10
-317.60000000000002
20
58.996392741913795
30
0
40
0.74999999999995282
210
0
220
0
230
1
100
AcDbArc
50
-90.000006140957879
51
0
0
LINE
5
524
100
AcDbEntity
8
0
100
AcDbLine
10
-164.16249999999997
20
58.996392741913901
30
-1.0547118733938987e-14
11
-164.16250000000008
21
71.496392741913795
31
-1.0547118733938987e-14
0
ARC
5
525
100
AcDbEntity
8
0
100
AcDbCircle
10
-206.27500000000001
20
33.3963927419138
30
0
40
0.74999999999999289
210
0
220
-0
230
1
100
AcDbArc
50
90
51
179.99999396290866
0
ARC
5
526
100
AcDbEntity
8
0
100
AcDbCircle
10
-203.30000000000001
20
14.3463927419138
30
0
40
0.74999999999999289
210
0
220
0
230
1
100
AcDbArc
50
0
51
90
0
LINE
5
527
100
AcDbEntity
8
0
100
AcDbLine
10
-216.55000000000004
20
1.8463927419139001
30
0
11
-216.55000000000001
21
14.3463927821062
31
0
0
ARC
5
528
100
AcDbEntity
8
0
100
AcDbCircle
10
-163.41249999999999
20
58.996392741913901
30
-1.0547118733938987e-14
40
0.74999999999999289
210
0
220
0
230
1
100
AcDbArc
50
180
51
270
0
LINE
5
529
100
AcDbEntity
8
0
100
AcDbLine
10
-172.34375
20
77.296392741913806
30
-1.0547118733938987e-14
11
-191.98750000000001
21
77.296392741913877
31
-1.0547118733938987e-14
0
ARC
5
530
100
AcDbEntity
8
0
100
AcDbCircle
10
-227.11250000000007
20
71.496392741913795
30
-1.0547118733938987e-14
40
0.75000000000002842
210
0
220
-0
230
1
100
AcDbArc
50
0
51
90
0
ARC
5
531
100
AcDbEntity
8
0
100
AcDbCircle
10
-193.77500000000001
20
33.3963927419138
30
0
40
0.75000000000002842
210
0
220
0
230
1
100
AcDbArc
50
0
51
89.999996929557994
0
LINE
5
532
100
AcDbEntity
8
0
100
AcDbLine
10
-193.02499999999998
20
33.3963927419138
30
0
11
-193.02500000000003
21
20.896392741913804
31
-4.8715817491107323e-08
0
LINE
5
533
100
AcDbEntity
8
0
100
AcDbLine
10
-193.77500000000001
20
20.146392741913846
30
0
11
-206.275000040192
21
20.1463927419139
31
0
0
ARC
5
534
100
AcDbEntity
8
0
100
AcDbCircle
10
-206.27500000000001
20
20.8963927419139
30
0
40
0.74999999999999289
210
0
220
0
230
1
100
AcDbArc
50
180
51
269.99999692955794
0
ARC
5
535
100
AcDbEntity
8
0
100
AcDbCircle
10
-330.10000000000002
20
58.996392741913901
30
0
40
0.75000000000009948
210
0
220
0
230
1
100
AcDbArc
50
180
51
270
0
ARC
5
536
100
AcDbEntity
8
0
100
AcDbCircle
10
-311.05000000000007
20
78.046392741913792
30
-1.0547118733938987e-14
40
0.74999999999999289
210
0
220
0
230
1
100
AcDbArc
50
180
51
270
0
LINE
5
537
100
AcDbEntity
8
0
100
AcDbLine
10
-317.60000008038497
20
58.246392741913844
30
0
11
-330.10000000000002
21
58.246392741913802
31
0
0
LINE
5
538
100
AcDbEntity
8
0
100
AcDbLine
10
-215.80000000000001
20
15.096392741913792
30
0
11
-203.30000000000001
21
15.096392741913816
31
-3.4160852480091819e-08
0
LINE
5
539
100
AcDbEntity
8
0
100
AcDbLine
10
-150.91249999999999
20
58.246392741913901
30
-1.0547118733938987e-14
11
-163.41249999999999
21
58.246392741913908
31
-1.4099894529717716e-07
0
LINE
5
540
100
AcDbEntity
8
0
100
AcDbLine
10
-206.27500000000001
20
34.146392741913793
30
0
11
-193.77499995980801
21
34.146392741913829
31
0
0
LINE
5
541
100
AcDbEntity
8
0
100
AcDbLine
10
-192.73750000000004
20
78.046392741913905
30
-1.0547118733938987e-14
11
-192.73750000000007
21
90.546392741913792
31
-2.2068863625435142e-07
0
ARC
5
542
100
AcDbEntity
8
0
100
AcDbCircle
10
-239.61250000000007
20
58.996392741913795
30
0
40
0.74999999999999289
210
0
220
0
230
1
100
AcDbArc
50
180
51
269.99999692955794
0
ARC
5
543
100
AcDbEntity
8
0
100
AcDbCircle
10
-317.60000000000002
20
71.496392741913795
30
-1.0547118733938987e-14
40
0.75000000000002842
210
0
220
-0
230
1
100
AcDbArc
50
0
51
90
0
LINE
5
544
100
AcDbEntity
8
0
100
AcDbLine
10
-191.98750000000001
20
91.296392741913792
30
-1.0547118733938987e-14
11
-172.34375
21
91.29639274191382
31
-2.2253901610369553e-07
0
ARC
5
545
100
AcDbEntity
8
0
100
AcDbCircle
10
-215.80000000000001
20
1.8463927419138704
30
0
40
0.75000000000002842
210
0
220
0
230
1
100
AcDbArc
50
180
51
270
0
ARC
5
546
100
AcDbEntity
8
0
100
AcDbCircle
10
-193.77500000000001
20
20.896392741913804
30
0
40
0.74999999999995737
210
0
220
0
230
1
100
AcDbArc
50
-90
51
3.7215130446689415e-06
0
LINE
5
547
100
AcDbEntity
8
0
100
AcDbLine
10
-154.92500000000001
20
33.3963927419138
30
0
11
-154.92500000000001
21
20.896392741913804
31
0
0
ARC
5
548
100
AcDbEntity
8
0
100
AcDbCircle
10
-155.67500000000001
20
20.896392741913804
30
0
40
0.74999999999997513
210
0
220
0
230
1
100
AcDbArc
50
-90
51
0
0
ARC
5
549
100
AcDbEntity
8
0
100
AcDbCircle
10
-150.91249999999999
20
58.996392741913901
30
-1.0547118733938987e-14
40
0.75000000000001066
210
0
220
0
230
1
100
AcDbArc
50
-90
51
1.0900252224719401e-05
0
LINE
5
550
100
AcDbEntity
8
0
100
AcDbLine
10
-240.36250000000007
20
58.996392741913795
30
0
11
-240.3625000000001
21
71.496392741913894
31
-1.736889848613643e-07
0
LINE
5
551
100
AcDbEntity
8
0
100
AcDbLine
10
-163.41249999999999
20
72.246392741913894
30
-1.0547118733938987e-14
11
-150.91249999999999
21
72.24639274191388
31
-1.0547118733938987e-14
0
ARC
5
552
100
AcDbEntity
8
0
100
AcDbCircle
10
-215.80000000000001
20
14.3463927419138
30
0
40
0.74999999999999289
210
0
220
-0
230
1
100
AcDbArc
50
90
51
179.99999692167535
0
LINE
5
553
100
AcDbEntity
8
0
100
AcDbLine
10
-207.02500000000001
20
20.8963927419139
30
0
11
-207.02500000000001
21
33.3963927419138
31
-7.9470758307387244e-08
0
LINE
5
554
100
AcDbEntity
8
0
100
AcDbLine
10
-155.67500000000001
20
20.146392741913829
30
0
11
-168.17500000000001
21
20.1463927419138
31
0
0
LINE
5
555
100
AcDbEntity
8
0
100
AcDbLine
10
-150.16250000000002
20
71.496392741913894
30
-1.0547118733938987e-14
11
-150.16249999999994
21
58.996392741913901
31
-1.4284932348118673e-07
0
ARC
5
556
100
AcDbEntity
8
0
100
AcDbCircle
10
-330.10000000000002
20
71.496392741913795
30
-1.0547118733938987e-14
40
0.75000000000002842
210
0
220
0
230
1
100
AcDbArc
50
90.000000000008683
51
180
0
LINE
5
557
100
AcDbEntity
8
0
100
AcDbLine
10
-168.92499999999995
20
20.896392741913601
30
0
11
-168.92500000000001
21
33.3963927419138
31
-7.947075664205272e-08
0
ARC
5
558
100
AcDbEntity
8
0
100
AcDbCircle
10
-168.17500000000001
20
33.3963927419138
30
0
40
0.75000000000002842
210
0
220
-0
230
1
100
AcDbArc
50
90
51
179.99999396290866
0
ARC
5
559
100
AcDbEntity
8
0
100
AcDbCircle
10
-168.17500000000001
20
20.896392741913804
30
0
40
0.74999999999992184
210
0
220
0
230
1
100
AcDbArc
50
180
51
270
0
LINE
5
560
100
AcDbEntity
8
0
100
AcDbLine
10
-168.17500000000001
20
34.146392741913829
30
0
11
-155.67500000000001
21
34.1463927419138
31
0
0
LINE
5
561
100
AcDbEntity
8
0
100
AcDbLine
10
-330.85000000000014
20
58.996392741913901
30
0
11
-330.85000000000008
21
71.496392741913795
31
-1.0547118733938987e-14
0
LINE
5
562
100
AcDbEntity
8
0
100
AcDbLine
10
-122.33750000000001
20
39.19639274191379
30
0
11
-134.83750000000001
21
39.196392741913797
31
0
0
ARC
5
563
100
AcDbEntity
8
0
100
AcDbCircle
10
-68.162499999999895
20
33.3963927419138
30
0
40
0.75000000000001066
210
0
220
-0
230
1
100
AcDbArc
50
90
51
180
0
ARC
5
564
100
AcDbEntity
8
0
100
AcDbCircle
10
-68.162499999999895
20
20.896392741913804
30
0
40
0.75000000000000178
210
0
220
0
230
1
100
AcDbArc
50
180
51
269.99999692953298
0
ARC
5
565
100
AcDbEntity
8
0
100
AcDbCircle
10
-292
20
14.3463927419138
30
0
40
0.74999999999999845
210
0
220
-0
230
1
100
AcDbArc
50
89.999996929566677
51
179.99999396290866
0
LWPOLYLINE
5
566
100
AcDbEntity
8
0
100
AcDbPolyline
90
8
70
1
43
0.0
10
-264.46249999999998
20
58.996392741913901
10
-264.46249999999998
20
71.496392741913894
42
0.41421356237307422
10
-265.21250000000003
20
72.246392741913809
10
-277.71249999999998
20
72.246392741913738
42
0.41421356237300488
10
-278.46249999999998
20
71.496392741913894
10
-278.46250000000003
20
58.996392741914008
42
0.41421356237310897
10
-277.71249999999998
20
58.246392741913908
10
-265.21249999999998
20
58.246392741913908
42
0.41421356237303608
0
LINE
5
567
100
AcDbEntity
8
0
100
AcDbLine
10
-15.774999999999899
20
91.29639274191382
30
-1.0547118733938987e-14
11
-3.2749999999998969
21
91.296392741913849
31
-2.2253901610369553e-07
0
ARC
5
568
100
AcDbEntity
8
0
100
AcDbCircle
10
-3.2749999999999
20
90.546392741913792
30
-1.0547118733938987e-14
40
0.75000000000001121
210
0
220
0
230
1
100
AcDbArc
50
0
51
89.999999999999801
0
LINE
5
569
100
AcDbEntity
8
0
100
AcDbLine
10
-278.75000000000006
20
14.3463927419138
30
0
11
-278.75
21
1.8463927419139803
31
-1.6470352859343509e-09
0
ARC
5
570
100
AcDbEntity
8
0
100
AcDbCircle
10
-3.2749999999999
20
78.046392741913792
30
-1.0547118733938987e-14
40
0.75000000000001066
210
0
220
0
230
1
100
AcDbArc
50
269.99999999999835
51
359.99999692167529
0
ARC
5
571
100
AcDbEntity
8
0
100
AcDbCircle
10
-155.67500000000001
20
33.3963927419139
30
0
40
0.75000000000001066
210
0
220
0
230
1
100
AcDbArc
50
0
51
90
0
ARC
5
572
100
AcDbEntity
8
0
100
AcDbCircle
10
-55.662499999999895
20
20.896392741913804
30
0
40
0.75000000000000178
210
0
220
0
230
1
100
AcDbArc
50
-90
51
3.5201989238640496e-06
0
LWPOLYLINE
5
573
100
AcDbEntity
8
0
100
AcDbPolyline
90
8
70
1
43
0.0
10
-336.64999999999998
20
39.196392741913954
42
0.41421354667696558
10
-335.89999999999998
20
39.9463927017215
10
-335.89999999999998
20
52.446392741913797
42
0.41421356237313323
10
-336.64999999999998
20
53.196392741913925
10
-349.14999999999998
20
53.19639274191394
42
0.41421356237306733
10
-349.90000000000009
20
52.446392741913897
10
-349.90000000000009
20
39.946392741913897
42
0.41421354667715982
10
-349.15000004019203
20
39.196392741913797
0
ARC
5
574
100
AcDbEntity
8
0
100
AcDbCircle
10
-279.5
20
1.8463927419138801
30
0
40
0.75000000000004996
210
0
220
0
230
1
100
AcDbArc
50
-90
51
0
0
ARC
5
575
100
AcDbEntity
8
0
100
AcDbCircle
10
-282.47500000000002
20
33.3963927419138
30
0
40
0.75000000000001066
210
0
220
-0
230
1
100
AcDbArc
50
90
51
179.99999396290866
0
LINE
5
576
100
AcDbEntity
8
0
100
AcDbLine
10
-3.2749999999999218
20
77.296392741913792
30
-1.0547118733938987e-14
11
-15.774999999999899
21
77.29639274191382
31
-1.8799859280438369e-07
0
LINE
5
577
100
AcDbEntity
8
0
100
AcDbLine
10
-235.88750000000002
20
52.446392741913897
30
0
11
-235.88750000000002
21
39.946392662888492
31
0
0
LINE
5
578
100
AcDbEntity
8
0
100
AcDbLine
10
-16.524999999999906
20
78.046392741913792
30
-1.0547118733938987e-14
11
-16.524999999999896
21
90.546392741913792
31
-2.2068863791968607e-07
0
LINE
5
579
100
AcDbEntity
8
0
100
AcDbLine
10
-279.5
20
1.0963927419138302
30
0
11
-292
21
1.09639274191384
31
0
0
LINE
5
580
100
AcDbEntity
8
0
100
AcDbLine
10
-291.99999995980812
20
15.096392741913798
30
0
11
-279.49999992097497
21
15.0963927419138
31
0
0
ARC
5
581
100
AcDbEntity
8
0
100
AcDbCircle
10
-134.83750000000001
20
52.446392741913897
30
0
40
0.75000000000001066
210
0
220
-0
230
1
100
AcDbArc
50
90
51
179.99999034065385
0
LINE
5
582
100
AcDbEntity
8
0
100
AcDbLine
10
-134.83750000000001
20
53.196392741913911
30
0
11
-122.33749995980801
21
53.196392741913897
31
-1.0547118733938987e-14
0
LINE
5
583
100
AcDbEntity
8
0
100
AcDbLine
10
-292.75
20
1.8463927419138304
30
0
11
-292.75
21
14.346392820939142
31
0
0
ARC
5
584
100
AcDbEntity
8
0
100
AcDbCircle
10
-236.63749999999999
20
52.446392741913897
30
0
40
0.74999999999999289
210
0
220
0
230
1
100
AcDbArc
50
0
51
90
0
LINE
5
585
100
AcDbEntity
8
0
100
AcDbLine
10
-54.912499999999902
20
33.3963927419138
30
0
11
-54.912499999999902
21
20.896392741913804
31
-4.8715817491107323e-08
0
LINE
5
586
100
AcDbEntity
8
0
100
AcDbLine
10
-236.63749999999999
20
39.196392741913812
30
0
11
-249.13750007981207
21
39.196392741913797
31
0
0
ARC
5
587
100
AcDbEntity
8
0
100
AcDbCircle
10
-249.13749999999999
20
39.946392741913797
30
0
40
0.74999999999999289
210
0
220
0
230
1
100
AcDbArc
50
180
51
269.99999390280601
0
LINE
5
588
100
AcDbEntity
8
0
100
AcDbLine
10
-249.88749999999999
20
39.946392741913797
30
0
11
-249.88749999999999
21
52.446392741913897
31
-1.2668933180304265e-07
0
LINE
5
589
100
AcDbEntity
8
0
100
AcDbLine
10
-269.22500000000002
20
33.3963927419138
30
0
11
-269.22500000000002
21
20.896392741913804
31
-4.8715817491107323e-08
0
ARC
5
590
100
AcDbEntity
8
0
100
AcDbCircle
10
-269.97500000000002
20
20.896392741913804
30
0
40
0.74999999999999289
210
0
220
0
230
1
100
AcDbArc
50
-90
51
3.5201989238640496e-06
0
ARC
5
591
100
AcDbEntity
8
0
100
AcDbCircle
10
-282.47500000000002
20
20.896392741913804
30
0
40
0.75000000000002842
210
0
220
0
230
1
100
AcDbArc
50
180
51
270
0
LINE
5
592
100
AcDbEntity
8
0
100
AcDbLine
10
-55.662499999999895
20
20.1463927419138
30
0
11
-68.162500040192214
21
20.1463927419138
31
0
0
ARC
5
593
100
AcDbEntity
8
0
100
AcDbCircle
10
-249.13749999999999
20
52.446392741913897
30
0
40
0.74999999999999289
210
0
220
-0
230
1
100
AcDbArc
50
90
51
179.99999034065385
0
ARC
5
594
100
AcDbEntity
8
0
100
AcDbCircle
10
-269.97500000000002
20
33.3963927419138
30
0
40
0.75000000000002842
210
0
220
0
230
1
100
AcDbArc
50
0
51
89.999993962936884
0
LINE
5
595
100
AcDbEntity
8
0
100
AcDbLine
10
-2.5249999999998889
20
90.546392741913792
30
-1.0547118733938987e-14
11
-2.5249999999998907
21
78.046392701618615
31
-1.0547118733938987e-14
0
ARC
5
596
100
AcDbEntity
8
0
100
AcDbCircle
10
-15.774999999999899
20
78.046392741913792
30
-1.0547118733938987e-14
40
0.75000000000000178
210
0
220
0
230
1
100
AcDbArc
50
180
51
270
0
ARC
5
597
100
AcDbEntity
8
0
100
AcDbCircle
10
-236.63749999999999
20
39.946392741913797
30
0
40
0.74999999999999289
210
0
220
0
230
1
100
AcDbArc
50
270
51
359.99999402358446
0
LINE
5
598
100
AcDbEntity
8
0
100
AcDbLine
10
-269.97500000000002
20
20.146392741913811
30
0
11
-282.47500000000002
21
20.146392741913854
31
-4.6870520797881454e-08
0
LINE
5
599
100
AcDbEntity
8
0
100
AcDbLine
10
-68.912499999999895
20
20.896392741913804
30
0
11
-68.912499999999909
21
33.3963927419138
31
0
0
ARC
5
600
100
AcDbEntity
8
0
100
AcDbCircle
10
-122.33750000000001
20
52.446392741913897
30
-1.0547118733938987e-14
40
0.74999999999999289
210
0
220
0
230
1
100
AcDbArc
50
0
51
89.999996929557994
0
LINE
5
601
100
AcDbEntity
8
0
100
AcDbLine
10
-135.58750000000001
20
39.946392741913797
30
0
11
-135.58750000000003
21
52.446392741913897
31
-1.2668933180304265e-07
0
ARC
5
602
100
AcDbEntity
8
0
100
AcDbCircle
10
-134.83750000000001
20
39.946392741913797
30
0
40
0.75000000000001066
210
0
220
0
230
1
100
AcDbArc
50
180
51
270
0
ARC
5
603
100
AcDbEntity
8
0
100
AcDbCircle
10
-292
20
1.8463927419138304
30
0
40
0.74999999999999289
210
0
220
0
230
1
100
AcDbArc
50
180
51
270
0
LINE
5
604
100
AcDbEntity
8
0
100
AcDbLine
10
-68.162499999999895
20
34.146392741913814
30
0
11
-55.662499999999895
21
34.1463927419138
31
0
0
ARC
5
605
100
AcDbEntity
8
0
100
AcDbCircle
10
-279.5
20
14.346392741913904
30
0
40
0.74999999999995737
210
0
220
0
230
1
100
AcDbArc
50
0
51
89.999993962932535
0
LINE
5
606
100
AcDbEntity
8
0
100
AcDbLine
10
-249.13749999999999
20
53.19639274191389
30
0
11
-236.63749999999999
21
53.19639274191389
31
0
0
LINE
5
607
100
AcDbEntity
8
0
100
AcDbLine
10
-121.58750000000001
20
52.446392741913897
30
-1.0547118733938987e-14
11
-121.58750000000005
21
39.946392741913797
31
-9.5586347170772967e-08
0
ARC
5
608
100
AcDbEntity
8
0
100
AcDbCircle
10
-122.33750000000001
20
39.946392741913797
30
0
40
0.75000000000001066
210
0
220
0
230
1
100
AcDbArc
50
-90
51
7.2946452312270284e-06
0
ARC
5
609
100
AcDbEntity
8
0
100
AcDbCircle
10
-55.662499999999895
20
33.3963927419138
30
0
40
0.75000000000000178
210
0
220
0
230
1
100
AcDbArc
50
0
51
90
0
LINE
5
610
100
AcDbEntity
8
0
100
AcDbLine
10
-283.22500000000002
20
20.896392741913804
30
0
11
-283.22500000000002
21
33.396392820939141
31
0
0
LINE
5
611
100
AcDbEntity
8
0
100
AcDbLine
10
-282.47500000000002
20
34.146392741913814
30
0
11
-269.97499992097505
21
34.146392741913829
31
0
0
LWPOLYLINE
5
612
100
AcDbEntity
8
0
100
AcDbPolyline
90
8
70
1
43
0.0
10
-220.56249991961499
20
72.246392741913866
42
0.41421359376539263
10
-221.31249999999997
20
71.496392741913894
10
-221.3125
20
58.996392741913795
42
0.41421356237310897
10
-220.56250000000006
20
58.246392741913802
10
-208.06250008038504
20
58.246392741913922
42
0.41421359376538919
10
-207.31250000000003
20
58.996392741913901
10
-207.31250000000003
20
71.496392741913795
42
0.41421354667715293
10
-208.06249995980806
20
72.246392741913766
0
LWPOLYLINE
5
613
100
AcDbEntity
8
0
100
AcDbPolyline
90
8
70
1
43
0.0
10
-3.2749999999999013
20
53.196392741913812
10
-15.774999999999899
20
53.196392741913897
42
0.41421353120468712
10
-16.524999999999899
20
52.446392821725603
10
-16.524999999999885
20
39.946392741913897
42
0.41421353120472615
10
-15.775000079811598
20
39.196392741913797
10
-3.2749999999998991
20
39.196392741913797
42
0.41421353120472915
10
-2.5249999999999115
20
39.946392662102205
10
-2.5249999999998973
20
52.446392741913897
42
0.41421356237310913
0
ARC
5
614
100
AcDbEntity
8
0
100
AcDbCircle
10
-245.63749999999999
20
75.846392741913917
30
-1.0547118733938987e-14
40
0.75000000000006395
210
0
220
0
230
1
100
AcDbArc
50
180
51
270
0
ARC
5
615
100
AcDbEntity
8
0
100
AcDbCircle
10
-349.14999999999998
20
90.546392741913792
30
-1.0547118733938987e-14
40
0.74999999999995737
210
0
220
-0
230
1
100
AcDbArc
50
90
51
179.99998313932144
0
LINE
5
616
100
AcDbEntity
8
0
100
AcDbLine
10
-246.38750000000005
20
75.846392741913917
30
-1.0547118733938987e-14
11
-246.38750000000005
21
77.29639274191382
31
-3.7599982682934296e-07
0
LINE
5
617
100
AcDbEntity
8
0
100
AcDbLine
10
-16.524999999999899
20
1.8463927419138402
30
0
11
-16.524999999999899
21
14.346392807079802
31
0
0
LINE
5
618
100
AcDbEntity
8
0
100
AcDbLine
10
-2.5249999999998938
20
33.3963927419138
30
0
11
-2.5249999999999102
21
20.896392662888502
31
0
0
LINE
5
619
100
AcDbEntity
8
0
100
AcDbLine
10
-240.13750000000002
20
75.096392741913917
30
-1.0547118733938987e-14
11
-245.63749999999999
21
75.096392741913888
31
-1.8257081235706352e-07
0
LINE
5
620
100
AcDbEntity
8
0
100
AcDbLine
10
-336.64999999999998
20
77.296392741913905
30
-1.0547118733938987e-14
11
-349.14999999999998
21
77.29639274191382
31
-1.8799859280438369e-07
0
LINE
5
621
100
AcDbEntity
8
0
100
AcDbLine
10
-335.89999999999998
20
90.546392741913792
30
-1.0547118733938987e-14
11
-335.89999999999998
21
78.046392741913792
31
-1.0547118733938987e-14
0
ARC
5
622
100
AcDbEntity
8
0
100
AcDbCircle
10
-349.14999999999998
20
78.046392741913991
30
-1.0547118733938987e-14
40
0.75000000000017053
210
0
220
0
230
1
100
AcDbArc
50
180
51
270
0
LINE
5
623
100
AcDbEntity
8
0
100
AcDbLine
10
-349.90000000000015
20
78.046392741913991
30
-1.0547118733938987e-14
11
-349.90000000000003
21
90.546392741913792
31
-2.2068863791968607e-07
0
LINE
5
624
100
AcDbEntity
8
0
100
AcDbLine
10
-256.28125
20
91.29639274191382
30
-1.0547118733938987e-14
11
-246.38750000000002
21
91.296392741913849
31
-4.450801144306738e-07
0
LINE
5
625
100
AcDbEntity
8
0
100
AcDbLine
10
-239.38749999999999
20
92.046392741913934
30
-1.0547118733938987e-14
11
-239.38749999999999
21
75.846392741913917
31
-1.0547118733938987e-14
0
ARC
5
626
100
AcDbEntity
8
0
100
AcDbCircle
10
-3.2749999999999
20
1.8463927419138304
30
0
40
0.75000000000000022
210
0
220
0
230
1
100
AcDbArc
50
-90
51
0
0
LINE
5
627
100
AcDbEntity
8
0
100
AcDbLine
10
-15.774999999999899
20
34.1463927419138
30
0
11
-3.2749999999999013
21
34.1463927419138
31
0
0
ARC
5
628
100
AcDbEntity
8
0
100
AcDbCircle
10
-256.28125
20
78.046392741913905
30
-1.0547118733938987e-14
40
0.74999999999999289
210
0
220
0
230
1
100
AcDbArc
50
180
51
270
0
LINE
5
629
100
AcDbEntity
8
0
100
AcDbLine
10
-2.5249999999999027
20
14.3463927419138
30
0
11
-2.5249999999998995
21
1.8463927419138293
31
-1.6470352859343509e-09
0
LINE
5
630
100
AcDbEntity
8
0
100
AcDbLine
10
-349.14999999999998
20
91.296392741913749
30
-1.0547118733938987e-14
11
-336.64999999999998
21
91.29639274191382
31
-1.0547118733938987e-14
0
LINE
5
631
100
AcDbEntity
8
0
100
AcDbLine
10
-3.2749999999999
20
20.146392741913811
30
0
11
-15.774999999999899
21
20.146392741913811
31
-4.6870521352992967e-08
0
ARC
5
632
100
AcDbEntity
8
0
100
AcDbCircle
10
-15.774999999999899
20
20.896392741913804
30
0
40
0.74999999999999734
210
0
220
0
230
1
100
AcDbArc
50
180
51
270
0
ARC
5
633
100
AcDbEntity
8
0
100
AcDbCircle
10
-15.774999999999899
20
33.3963927419138
30
0
40
0.74999999999999734
210
0
220
-0
230
1
100
AcDbArc
50
90
51
179.99999396290866
0
ARC
5
634
100
AcDbEntity
8
0
100
AcDbCircle
10
-15.774999999999899
20
90.546392741913792
30
-1.0547118733938987e-14
40
0.75000000000001066
210
0
220
-0
230
1
100
AcDbArc
50
90
51
179.99998313932144
0
ARC
5
635
100
AcDbEntity
8
0
100
AcDbCircle
10
-245.63749999999999
20
92.046392741913792
30
-1.0547118733938987e-14
40
0.74999999999995737
210
0
220
-0
230
1
100
AcDbArc
50
90
51
179.99998288189164
0
LINE
5
636
100
AcDbEntity
8
0
100
AcDbLine
10
-246.38750000000002
20
91.296392741913849
30
-4.450801144306738e-07
11
-246.38750000000002
21
92.046392741913792
31
-2.2438939428770513e-07
0
ARC
5
637
100
AcDbEntity
8
0
100
AcDbCircle
10
-256.28125
20
90.546392741913905
30
-1.0547118733938987e-14
40
0.74999999999990408
210
0
220
-0
230
1
100
AcDbArc
50
90
51
180.00001686067853
0
ARC
5
638
100
AcDbEntity
8
0
100
AcDbCircle
10
-336.64999999999998
20
90.546392741913792
30
-1.0547118733938987e-14
40
0.75000000000002842
210
0
220
0
230
1
100
AcDbArc
50
0
51
90
0
ARC
5
639
100
AcDbEntity
8
0
100
AcDbCircle
10
-3.2749999999998902
20
14.3463927419138
30
0
40
0.74999999999998734
210
0
220
0
230
1
100
AcDbArc
50
0
51
90.000000000000853
0
ARC
5
640
100
AcDbEntity
8
0
100
AcDbCircle
10
-3.2749999999998902
20
20.896392741913804
30
0
40
0.74999999999999734
210
0
220
0
230
1
100
AcDbArc
50
269.9999999999992
51
359.99999396290866
0
ARC
5
641
100
AcDbEntity
8
0
100
AcDbCircle
10
-336.64999999999998
20
78.046392741913792
30
-1.0547118733938987e-14
40
0.74999999999989519
210
0
220
0
230
1
100
AcDbArc
50
-90
51
0
0
ARC
5
642
100
AcDbEntity
8
0
100
AcDbCircle
10
-240.13750000000002
20
75.846392741913917
30
-1.0547118733938987e-14
40
0.74999999999999289
210
0
220
0
230
1
100
AcDbArc
50
-90
51
0
0
LINE
5
643
100
AcDbEntity
8
0
100
AcDbLine
10
-3.2749999999999
20
1.0963927419138302
30
0
11
-15.774999999999899
21
1.09639274191383
31
0
0
LINE
5
644
100
AcDbEntity
8
0
100
AcDbLine
10
-246.38750000000005
20
77.29639274191382
30
-3.7599982682934296e-07
11
-256.28125
21
77.296392741913891
31
-1.8799859058393764e-07
0
LINE
5
645
100
AcDbEntity
8
0
100
AcDbLine
10
-16.524999999999896
20
20.896392741913804
30
0
11
-16.524999999999906
21
33.3963927419138
31
-7.9470758307387244e-08
0
LINE
5
646
100
AcDbEntity
8
0
100
AcDbLine
10
-303.90625
20
72.246392741913894
30
-1.0547118733938987e-14
11
-291.40625
21
72.246392741913894
31
-1.0547118733938987e-14
0
ARC
5
647
100
AcDbEntity
8
0
100
AcDbCircle
10
-291.40625
20
71.496392741913894
30
-1.0547118733938987e-14
40
0.74999999999999289
210
0
220
0
230
1
100
AcDbArc
50
0
51
90
0
LINE
5
648
100
AcDbEntity
8
0
100
AcDbLine
10
-290.65625
20
71.496392741913894
30
-1.0547118733938987e-14
11
-290.65625
21
58.996392741913901
31
-1.0547118733938987e-14
0
LINE
5
649
100
AcDbEntity
8
0
100
AcDbLine
10
-15.774999999999899
20
15.096392741913807
30
0
11
-3.2749999999999013
21
15.096392741913789
31
0
0
ARC
5
650
100
AcDbEntity
8
0
100
AcDbCircle
10
-15.774999999999899
20
1.8463927419138304
30
0
40
0.74999999999999956
210
0
220
0
230
1
100
AcDbArc
50
180
51
270
0
ARC
5
651
100
AcDbEntity
8
0
100
AcDbCircle
10
-3.2749999999999
20
33.3963927419138
30
0
40
0.75000000000000622
210
0
220
0
230
1
100
AcDbArc
50
0
51
90.000000000000099
0
LINE
5
652
100
AcDbEntity
8
0
100
AcDbLine
10
-257.03125
20
78.046392741913905
30
-1.0547118733938987e-14
11
-257.03125
21
90.546392741913792
31
-2.2068863625435142e-07
0
ARC
5
653
100
AcDbEntity
8
0
100
AcDbCircle
10
-291.40625
20
58.996392741913901
30
-1.0547118733938987e-14
40
0.75000000000000178
210
0
220
0
230
1
100
AcDbArc
50
-90
51
0
0
ARC
5
654
100
AcDbEntity
8
0
100
AcDbCircle
10
-303.90625
20
58.996392741913901
30
0
40
0.74999999999999289
210
0
220
0
230
1
100
AcDbArc
50
180
51
270
0
ARC
5
655
100
AcDbEntity
8
0
100
AcDbCircle
10
-15.774999999999899
20
14.3463927419138
30
0
40
0.750000000000004
210
0
220
-0
230
1
100
AcDbArc
50
90
51
179.99999502168694
0
ARC
5
656
100
AcDbEntity
8
0
100
AcDbCircle
10
-240.13750000000002
20
92.046392741913792
30
-1.0547118733938987e-14
40
0.75000000000002842
210
0
220
-0
230
1
100
AcDbArc
50
0
51
90
0
LINE
5
657
100
AcDbEntity
8
0
100
AcDbLine
10
-304.65625
20
58.996392741913901
30
0
11
-304.65625
21
71.496392820939121
31
-1.0547118733938987e-14
0
ARC
5
658
100
AcDbEntity
8
0
100
AcDbCircle
10
-303.90625
20
71.496392741913795
30
-1.0547118733938987e-14
40
0.75000000000009948
210
0
220
-0
230
1
100
AcDbArc
50
90
51
179.99999396290866
0
LINE
5
659
100
AcDbEntity
8
0
100
AcDbLine
10
-291.40625
20
58.246392741913901
30
-1.0547118733938987e-14
11
-303.90625
21
58.246392741913908
31
-1.4099893974606204e-07
0
LINE
5
660
100
AcDbEntity
8
0
100
AcDbLine
10
-330.85000000000002
20
78.046392741913905
30
-1.0547118733938987e-14
11
-330.85000000000002
21
90.546392741913792
31
-2.2068863625435142e-07
0
LINE
5
661
100
AcDbEntity
8
0
100
AcDbLine
10
-245.63749999999999
20
92.796392741913749
30
-1.0547118733938987e-14
11
-240.13750000000002
21
92.796392741913877
31
-2.2623977413704921e-07
0
ARC
5
662
100
AcDbEntity
8
0
100
AcDbCircle
10
-330.10000000000002
20
78.046392741913905
30
-1.0547118733938987e-14
40
0.74999999999995737
210
0
220
0
230
1
100
AcDbArc
50
180
51
270
0
LINE
5
663
100
AcDbEntity
8
0
100
AcDbLine
10
-198.53750000000002
20
39.196392741913854
30
0
11
-211.03750007981205
21
39.196392741913797
31
0
0
LINE
5
664
100
AcDbEntity
8
0
100
AcDbLine
10
-89.593749999999915
20
91.29639274191382
30
-1.0547118733938987e-14
11
-77.093749999999915
21
91.29639274191382
31
-2.2253901443836097e-07
0
LWPOLYLINE
5
665
100
AcDbEntity
8
0
100
AcDbPolyline
90
8
70
1
43
0.0
10
-15.774999999999899
20
58.246392741913908
10
-3.2750000401922508
20
58.246392741913908
42
0.41421354690078693
10
-2.524999999999916
20
58.996392662102217
10
-2.5249999999998982
20
71.496392741913894
42
0.41421356237304802
10
-3.2749999999998791
20
72.24639274191378
10
-15.774999999999899
20
72.246392741913894
42
0.41421354667702975
10
-16.524999999999896
20
71.496392782106199
10
-16.524999999999906
20
58.996392741913901
42
0.41421356237309592
0
LINE
5
666
100
AcDbEntity
8
0
100
AcDbLine
10
-77.093749999999915
20
77.29639274191382
30
-1.0547118733938987e-14
11
-89.593750079025213
21
77.29639274191382
31
-1.0547118733938987e-14
0
LINE
5
667
100
AcDbEntity
8
0
100
AcDbLine
10
-165.19999999999999
20
1.096392741913834
30
0
11
-177.70000007902499
21
1.09639274191384
31
0
0
ARC
5
668
100
AcDbEntity
8
0
100
AcDbCircle
10
-177.69999999999999
20
1.8463927419138304
30
0
40
0.74999999999999289
210
0
220
0
230
1
100
AcDbArc
50
180
51
269.9999939629347
0
LINE
5
669
100
AcDbEntity
8
0
100
AcDbLine
10
-178.44999999999999
20
1.8463927419138304
30
0
11
-178.44999999999999
21
14.3463927419138
31
0
0
LINE
5
670
100
AcDbEntity
8
0
100
AcDbLine
10
-64.149999999999906
20
1.8463927419138304
30
0
11
-64.14999999999992
21
14.346392741913805
31
-3.2330806365443721e-08
0
LINE
5
671
100
AcDbEntity
8
0
100
AcDbLine
10
-50.149999999999899
20
14.3463927419138
30
0
11
-50.149999999999899
21
1.8463927419138293
31
-1.6470352859343509e-09
0
LINE
5
672
100
AcDbEntity
8
0
100
AcDbLine
10
-211.03750000000002
20
53.196392741913847
30
0
11
-198.53750000000002
21
53.196392741913897
31
-1.285397122074983e-07
0
LINE
5
673
100
AcDbEntity
8
0
100
AcDbLine
10
-231.34375000000006
20
92.796392741913905
30
-1.0547118733938987e-14
11
-225.84375
21
92.796392741913905
31
-1.0547118733938987e-14
0
ARC
5
674
100
AcDbEntity
8
0
100
AcDbCircle
10
-89.593749999999915
20
78.046392741913792
30
-1.0547118733938987e-14
40
0.74999999999999289
210
0
220
0
230
1
100
AcDbArc
50
180
51
269.9999939629119
0
LINE
5
675
100
AcDbEntity
8
0
100
AcDbLine
10
-88.249999999999872
20
14.3463927419138
30
0
11
-88.249999999999901
21
1.8463927419138004
31
0
0
ARC
5
676
100
AcDbEntity
8
0
100
AcDbCircle
10
-177.69999999999999
20
14.3463927419138
30
0
40
0.74999999999999956
210
0
220
-0
230
1
100
AcDbArc
50
90
51
180
0
ARC
5
677
100
AcDbEntity
8
0
100
AcDbCircle
10
-50.899999999999892
20
14.3463927419138
30
0
40
0.75000000000000178
210
0
220
0
230
1
100
AcDbArc
50
0
51
90
0
ARC
5
678
100
AcDbEntity
8
0
100
AcDbCircle
10
-50.899999999999892
20
1.8463927419138202
30
0
40
0.74999999999999012
210
0
220
0
230
1
100
AcDbArc
50
-90
51
0
0
ARC
5
679
100
AcDbEntity
8
0
100
AcDbCircle
10
-231.34375000000006
20
75.846392741913917
30
-1.0547118733938987e-14
40
0.74999999999995737
210
0
220
0
230
1
100
AcDbArc
50
180
51
270
0
LINE
5
680
100
AcDbEntity
8
0
100
AcDbLine
10
-50.899999999999892
20
1.09639274191383
30
0
11
-63.399999999999892
21
1.09639274191383
31
0
0
ARC
5
681
100
AcDbEntity
8
0
100
AcDbCircle
10
-165.19999999999999
20
1.8463927419138704
30
0
40
0.75000000000003619
210
0
220
0
230
1
100
AcDbArc
50
-90
51
0
0
LINE
5
682
100
AcDbEntity
8
0
100
AcDbLine
10
-330.10000000000002
20
91.29639274191382
30
-1.0547118733938987e-14
11
-317.59999995980809
21
91.29639274191382
31
-1.0547118733938987e-14
0
ARC
5
683
100
AcDbEntity
8
0
100
AcDbCircle
10
-317.60000000000002
20
90.546392741913905
30
-1.0547118733938987e-14
40
0.74999999999995737
210
0
220
0
230
1
100
AcDbArc
50
0
51
89.999996929562329
0
LINE
5
684
100
AcDbEntity
8
0
100
AcDbLine
10
-225.84375
20
75.096392741913917
30
-1.0547118733938987e-14
11
-231.34375000000006
21
75.096392741913974
31
-1.0547118733938987e-14
0
ARC
5
685
100
AcDbEntity
8
0
100
AcDbCircle
10
-211.03750000000002
20
52.446392741913797
30
0
40
0.7500000000000373
210
0
220
-0
230
1
100
AcDbArc
50
90
51
180
0
ARC
5
686
100
AcDbEntity
8
0
100
AcDbCircle
10
-231.34375000000006
20
92.046392741913934
30
-1.0547118733938987e-14
40
0.74999999999999289
210
0
220
-0
230
1
100
AcDbArc
50
90
51
179.9999828606137
0
LINE
5
687
100
AcDbEntity
8
0
100
AcDbLine
10
-101.49999995980801
20
15.0963927419138
30
0
11
-88.999999920188188
21
15.0963927419138
31
0
0
ARC
5
688
100
AcDbEntity
8
0
100
AcDbCircle
10
-225.84375
20
92.046392741913934
30
-1.0547118733938987e-14
40
0.74999999999999289
210
0
220
0
230
1
100
AcDbArc
50
0
51
90
0
ARC
5
689
100
AcDbEntity
8
0
100
AcDbCircle
10
-101.5
20
1.8463927419138202
30
0
40
0.74999999999999289
210
0
220
0
230
1
100
AcDbArc
50
180
51
270
0
LINE
5
690
100
AcDbEntity
8
0
100
AcDbLine
10
-102.25
20
1.8463927419138202
30
0
11
-102.25000000000001
21
14.346392741913906
31
-3.2330806920555233e-08
0
LINE
5
691
100
AcDbEntity
8
0
100
AcDbLine
10
-177.69999999999999
20
15.0963927419138
30
0
11
-165.19999999999999
21
15.096392741913798
31
-3.4160852480091819e-08
0
ARC
5
692
100
AcDbEntity
8
0
100
AcDbCircle
10
-77.093749999999915
20
78.046392741913792
30
-1.0547118733938987e-14
40
0.74999999999999289
210
0
220
0
230
1
100
AcDbArc
50
-90
51
1.4489019236708836e-05
0
LINE
5
693
100
AcDbEntity
8
0
100
AcDbLine
10
-164.44999999999999
20
14.3463927419138
30
0
11
-164.44999999999996
21
1.8463927419138704
31
0
0
ARC
5
694
100
AcDbEntity
8
0
100
AcDbCircle
10
-63.399999999999892
20
14.3463927419138
30
0
40
0.74999999999999956
210
0
220
-0
230
1
100
AcDbArc
50
90
51
179.99999758516347
0
ARC
5
695
100
AcDbEntity
8
0
100
AcDbCircle
10
-198.53750000000002
20
52.446392741913897
30
0
40
0.74999999999999289
210
0
220
0
230
1
100
AcDbArc
50
0
51
90
0
ARC
5
696
100
AcDbEntity
8
0
100
AcDbCircle
10
-89.593749999999915
20
90.546392741913792
30
-1.0547118733938987e-14
40
0.75000000000001066
210
0
220
-0
230
1
100
AcDbArc
50
90
51
180
0
LINE
5
697
100
AcDbEntity
8
0
100
AcDbLine
10
-225.09375000000003
20
92.046392741913934
30
-1.0547118733938987e-14
11
-225.09375000000006
21
75.846392741914002
31
-1.8442118943085009e-07
0
LINE
5
698
100
AcDbEntity
8
0
100
AcDbLine
10
-88.999999999999901
20
1.096392741913834
30
0
11
-101.5
21
1.0963927419138271
31
0
0
LINE
5
699
100
AcDbEntity
8
0
100
AcDbLine
10
-63.399999999999892
20
15.0963927419138
30
0
11
-50.899999999999892
21
15.0963927419138
31
-3.4160852480091819e-08
0
ARC
5
700
100
AcDbEntity
8
0
100
AcDbCircle
10
-63.399999999999892
20
1.8463927419138304
30
0
40
0.75000000000001066
210
0
220
0
230
1
100
AcDbArc
50
180
51
270
0
LINE
5
701
100
AcDbEntity
8
0
100
AcDbLine
10
-145.11250000000001
20
58.996392741913901
30
-1.0547118733938987e-14
11
-145.11250000000001
21
71.496392741913894
31
-1.7368898930225643e-07
0
ARC
5
702
100
AcDbEntity
8
0
100
AcDbCircle
10
-165.19999999999999
20
14.3463927419138
30
0
40
0.74999999999999289
210
0
220
0
230
1
100
AcDbArc
50
0
51
90
0
LINE
5
703
100
AcDbEntity
8
0
100
AcDbLine
10
-232.09375
20
75.846392741913917
30
-1.0547118733938987e-14
11
-232.09375000000009
21
92.046392741913934
31
-2.2438939595303964e-07
0
LINE
5
704
100
AcDbEntity
8
0
100
AcDbLine
10
-76.343749999999901
20
90.546392701721516
30
-1.0547118733938987e-14
11
-76.343749999999901
21
78.046392741913792
31
-1.898489715435048e-07
0
ARC
5
705
100
AcDbEntity
8
0
100
AcDbCircle
10
-198.53750000000002
20
39.946392741913897
30
0
40
0.7500000000000373
210
0
220
0
230
1
100
AcDbArc
50
270
51
359.99999270535483
0
LINE
5
706
100
AcDbEntity
8
0
100
AcDbLine
10
-316.85000000000008
20
90.546392741913905
30
-1.0547118733938987e-14
11
-316.85000000000002
21
78.046392741913792
31
-1.8984897043328172e-07
0
ARC
5
707
100
AcDbEntity
8
0
100
AcDbCircle
10
-330.10000000000002
20
90.546392741913721
30
-1.0547118733938987e-14
40
0.75000000000009948
210
0
220
-0
230
1
100
AcDbArc
50
90
51
179.99998313932144
0
ARC
5
708
100
AcDbEntity
8
0
100
AcDbCircle
10
-101.5
20
14.3463927419138
30
0
40
0.75000000000000067
210
0
220
-0
230
1
100
AcDbArc
50
89.999996929557994
51
179.99999758516347
0
LINE
5
709
100
AcDbEntity
8
0
100
AcDbLine
10
-197.78750000000002
20
52.446392741913897
30
0
11
-197.78750000000002
21
39.946392741913797
31
-9.5586342729880882e-08
0
ARC
5
710
100
AcDbEntity
8
0
100
AcDbCircle
10
-88.999999999999901
20
14.3463927419138
30
0
40
0.75000000000001066
210
0
220
0
230
1
100
AcDbArc
50
0
51
89.999993902834277
0
ARC
5
711
100
AcDbEntity
8
0
100
AcDbCircle
10
-211.03750000000002
20
39.946392741913797
30
0
40
0.74999999999999289
210
0
220
0
230
1
100
AcDbArc
50
180
51
269.99999390281039
0
LINE
5
712
100
AcDbEntity
8
0
100
AcDbLine
10
-90.343749999999901
20
78.046392741913792
30
-1.0547118733938987e-14
11
-90.343749999999915
21
90.546392741913792
31
-1.0547118733938987e-14
0
ARC
5
713
100
AcDbEntity
8
0
100
AcDbCircle
10
-77.093749999999915
20
90.546392741913792
30
-1.0547118733938987e-14
40
0.75000000000000289
210
0
220
0
230
1
100
AcDbArc
50
-3.0783246822254177e-06
51
90
0
ARC
5
714
100
AcDbEntity
8
0
100
AcDbCircle
10
-317.60000000000002
20
78.046392741913792
30
-1.0547118733938987e-14
40
0.74999999999994849
210
0
220
0
230
1
100
AcDbArc
50
-90
51
1.4463842815886967e-05
0
LINE
5
715
100
AcDbEntity
8
0
100
AcDbLine
10
-317.60000000000002
20
77.296392741913849
30
-1.0547118733938987e-14
11
-330.10000000000002
21
77.296392741913962
31
-1.0547118733938987e-14
0
LINE
5
716
100
AcDbEntity
8
0
100
AcDbLine
10
-211.78750000000002
20
39.946392741913797
30
0
11
-211.78750000000005
21
52.446392741913797
31
0
0
ARC
5
717
100
AcDbEntity
8
0
100
AcDbCircle
10
-225.84375
20
75.846392741913917
30
-1.0547118733938987e-14
40
0.74999999999999289
210
0
220
0
230
1
100
AcDbArc
50
-90
51
1.4054888045735014e-05
0
ARC
5
718
100
AcDbEntity
8
0
100
AcDbCircle
10
-88.999999999999901
20
1.8463927419138002
30
0
40
0.74999999999996614
210
0
220
0
230
1
100
AcDbArc
50
-90
51
0
0
LINE
5
719
100
AcDbEntity
8
0
100
AcDbLine
10
-349.90000000000009
20
20.896392741913804
30
0
11
-349.90000000000009
21
33.3963927419138
31
-7.947075664205272e-08
0
LWPOLYLINE
5
720
100
AcDbEntity
8
0
100
AcDbPolyline
90
8
70
1
43
0.0
10
-268.1875
20
39.196392741913797
10
-255.6875
20
39.196392741913854
42
0.41421354667702454
10
-254.93750000000006
20
39.9463927017215
10
-254.93750000000009
20
52.446392741913897
42
0.41421356237309503
10
-255.6875
20
53.196392741913812
10
-268.1875
20
53.19639274191389
42
0.41421356237309853
10
-268.9375
20
52.446392741913897
10
-268.9375
20
39.946392741913797
42
0.41421356237309503
0
LINE
5
721
100
AcDbEntity
8
0
100
AcDbLine
10
-305.88700000000006
20
15.0963927419138
30
-6.8343923853575461e-08
11
-305.88700000000006
21
16.3463927419138
31
0
0
ARC
5
722
100
AcDbEntity
8
0
100
AcDbCircle
10
-305.137
20
16.3463927419138
30
0
40
0.74999999999995737
210
0
220
-0
230
1
100
AcDbArc
50
90
51
180
0
LINE
5
723
100
AcDbEntity
8
0
100
AcDbLine
10
-305.137
20
17.096392741913757
30
0
11
-299.63700000000006
21
17.0963927419138
31
0
0
ARC
5
724
100
AcDbEntity
8
0
100
AcDbCircle
10
-299.63700000000006
20
16.3463927419138
30
0
40
0.75000000000002842
210
0
220
0
230
1
100
AcDbArc
50
0
51
90
0
LINE
5
725
100
AcDbEntity
8
0
100
AcDbLine
10
-298.88700000000006
20
16.3463927419138
30
0
11
-298.887
21
15.0963927419138
31
-6.8343922188240937e-08
0
ARC
5
726
100
AcDbEntity
8
0
100
AcDbCircle
10
-144.36250000000001
20
71.496392741913795
30
-1.0547118733938987e-14
40
0.74999999999999289
210
0
220
-0
230
1
100
AcDbArc
50
90
51
179.99998674586877
0
LINE
5
727
100
AcDbEntity
8
0
100
AcDbLine
10
-298.887
20
15.0963927419138
30
-6.8343922188240937e-08
11
-298.55000000000007
21
15.096392741913807
31
-3.4160854145426363e-08
0
ARC
5
728
100
AcDbEntity
8
0
100
AcDbCircle
10
-336.64999999999998
20
33.3963927419138
30
0
40
0.75000000000002842
210
0
220
0
230
1
100
AcDbArc
50
0
51
89.99999396285871
0
LINE
5
729
100
AcDbEntity
8
0
100
AcDbLine
10
-153.88749999999999
20
53.196392741913826
30
-1.0547118733938987e-14
11
-141.387499959808
21
53.196392741913812
31
0
0
LINE
5
730
100
AcDbEntity
8
0
100
AcDbLine
10
-131.11250000000007
20
71.496392741913894
30
-1.0547118733938987e-14
11
-131.11250000000001
21
58.996392741913901
31
-1.0547118733938987e-14
0
LINE
5
731
100
AcDbEntity
8
0
100
AcDbLine
10
-154.63749999999999
20
39.946392741913797
30
0
11
-154.63749999999999
21
52.446392741913897
31
-1.2668933679904626e-07
0
ARC
5
732
100
AcDbEntity
8
0
100
AcDbCircle
10
-131.86250000000001
20
58.996392741913901
30
-1.0547118733938987e-14
40
0.75000000000001066
210
0
220
0
230
1
100
AcDbArc
50
-90
51
0
0
LINE
5
733
100
AcDbEntity
8
0
100
AcDbLine
10
-141.38749999999999
20
39.196392741913826
30
0
11
-153.88749999999999
21
39.196392741913826
31
-9.3741047701989544e-08
0
ARC
5
734
100
AcDbEntity
8
0
100
AcDbCircle
10
-141.38749999999999
20
39.946392741913797
30
0
40
0.74999999999997513
210
0
220
0
230
1
100
AcDbArc
50
-90
51
7.2946452312270284e-06
0
LINE
5
735
100
AcDbEntity
8
0
100
AcDbLine
10
-131.86250000000001
20
58.246392741913894
30
-1.0547118733938987e-14
11
-144.36250000000001
21
58.246392741913908
31
-1.4099894529717716e-07
0
LINE
5
736
100
AcDbEntity
8
0
100
AcDbLine
10
-53.281249999999893
20
39.196392741913812
30
0
11
-70.543749999999903
21
39.196392741913797
31
0
0
LINE
5
737
100
AcDbEntity
8
0
100
AcDbLine
10
-335.89999999999998
20
33.3963927419138
30
0
11
-335.89999999999998
21
20.8963927419139
31
-4.8715818601330341e-08
0
LINE
5
738
100
AcDbEntity
8
0
100
AcDbLine
10
-127.10000000000001
20
1.09639274191383
30
0
11
-139.60000000000002
21
1.09639274191384
31
0
0
ARC
5
739
100
AcDbEntity
8
0
100
AcDbCircle
10
-127.10000000000001
20
14.3463927419138
30
0
40
0.74999999999999289
210
0
220
0
230
1
100
AcDbArc
50
0
51
90
0
ARC
5
740
100
AcDbEntity
8
0
100
AcDbCircle
10
-336.64999999999998
20
20.8963927419139
30
0
40
0.75000000000002842
210
0
220
0
230
1
100
AcDbArc
50
-90
51
3.5201989238640496e-06
0
ARC
5
741
100
AcDbEntity
8
0
100
AcDbCircle
10
-153.88749999999999
20
52.446392741913797
30
-1.0547118733938987e-14
40
0.75000000000002842
210
0
220
-0
230
1
100
AcDbArc
50
90
51
179.99999034065385
0
ARC
5
742
100
AcDbEntity
8
0
100
AcDbCircle
10
-349.14999999999998
20
33.396392741913701
30
0
40
0.75000000000016609
210
0
220
-0
230
1
100
AcDbArc
50
90
51
179.99999396290866
0
LINE
5
743
100
AcDbEntity
8
0
100
AcDbLine
10
-140.63749999999999
20
52.446392741913797
30
0
11
-140.63749999999999
21
39.946392741913797
31
-9.5586342729880882e-08
0
ARC
5
744
100
AcDbEntity
8
0
100
AcDbCircle
10
-349.14999999999998
20
20.896392741913804
30
0
40
0.75000000000002842
210
0
220
0
230
1
100
AcDbArc
50
180
51
269.99999396293254
0
LINE
5
745
100
AcDbEntity
8
0
100
AcDbLine
10
-139.60000000000002
20
15.096392741913792
30
0
11
-127.10000000000001
21
15.096392741913798
31
-3.4160852480091819e-08
0
ARC
5
746
100
AcDbEntity
8
0
100
AcDbCircle
10
-127.10000000000001
20
1.8463927419138104
30
0
40
0.74999999999998024
210
0
220
0
230
1
100
AcDbArc
50
-90
51
0
0
ARC
5
747
100
AcDbEntity
8
0
100
AcDbCircle
10
-139.60000000000002
20
1.8463927419138104
30
0
40
0.74999999999997513
210
0
220
0
230
1
100
AcDbArc
50
180
51
270
0
LINE
5
748
100
AcDbEntity
8
0
100
AcDbLine
10
-71.293749999999932
20
39.946392741913897
30
0
11
-71.293749999999903
21
52.446392741913797
31
0
0
LINE
5
749
100
AcDbEntity
8
0
100
AcDbLine
10
-330.85000000000014
20
1.8463927419139203
30
0
11
-330.85000000000002
21
14.346392806114201
31
0
0
LINE
5
750
100
AcDbEntity
8
0
100
AcDbLine
10
-330.10000000000002
20
15.096392741913895
30
0
11
-329.76300000000009
21
15.096392741913842
31
-6.83439210780179e-08
0
ARC
5
751
100
AcDbEntity
8
0
100
AcDbCircle
10
-131.86250000000001
20
71.496392741913894
30
-1.0547118733938987e-14
40
0.74999999999997513
210
0
220
0
230
1
100
AcDbArc
50
0
51
90
0
ARC
5
752
100
AcDbEntity
8
0
100
AcDbCircle
10
-141.38749999999999
20
52.446392741913797
30
0
40
0.75000000000001066
210
0
220
0
230
1
100
AcDbArc
50
0
51
89.999996929557994
0
ARC
5
753
100
AcDbEntity
8
0
100
AcDbCircle
10
-70.543749999999903
20
39.946392741913897
30
0
40
0.75000000000001954
210
0
220
0
230
1
100
AcDbArc
50
180
51
270
0
LINE
5
754
100
AcDbEntity
8
0
100
AcDbLine
10
-140.34999999999999
20
1.8463927419138104
30
0
11
-140.34999999999999
21
14.3463927821062
31
0
0
LINE
5
755
100
AcDbEntity
8
0
100
AcDbLine
10
-329.76300000000009
20
15.096392741913842
30
-6.83439210780179e-08
11
-329.76300000000009
21
16.3463927419138
31
0
0
ARC
5
756
100
AcDbEntity
8
0
100
AcDbCircle
10
-323.51300000000009
20
16.3463927419138
30
0
40
0.75000000000002842
210
0
220
0
230
1
100
AcDbArc
50
0
51
90
0
ARC
5
757
100
AcDbEntity
8
0
100
AcDbCircle
10
-53.281249999999893
20
39.946392741913797
30
0
40
0.74999999999999289
210
0
220
0
230
1
100
AcDbArc
50
-90
51
0
0
ARC
5
758
100
AcDbEntity
8
0
100
AcDbCircle
10
-144.36250000000001
20
58.996392741913901
30
-1.0547118733938987e-14
40
0.75000000000001066
210
0
220
0
230
1
100
AcDbArc
50
180
51
270
0
ARC
5
759
100
AcDbEntity
8
0
100
AcDbCircle
10
-70.543749999999903
20
52.446392741913897
30
0
40
0.74999999999990408
210
0
220
-0
230
1
100
AcDbArc
50
90
51
180
0
LINE
5
760
100
AcDbEntity
8
0
100
AcDbLine
10
-126.35000000000002
20
14.3463927419138
30
0
11
-126.35000000000005
21
1.8463927419138293
31
-1.647034175711326e-09
0
ARC
5
761
100
AcDbEntity
8
0
100
AcDbCircle
10
-153.88749999999999
20
39.946392741913797
30
0
40
0.74999999999999289
210
0
220
0
230
1
100
AcDbArc
50
180
51
270
0
LINE
5
762
100
AcDbEntity
8
0
100
AcDbLine
10
-329.76300000000009
20
1.09639274191383
30
9.9920072216264089e-15
11
-330.10000000000002
21
1.09639274191382
31
0
0
ARC
5
763
100
AcDbEntity
8
0
100
AcDbCircle
10
-330.10000000000002
20
14.3463927419138
30
0
40
0.75000000000009504
210
0
220
-0
230
1
100
AcDbArc
50
90
51
179.99999509544384
0
ARC
5
764
100
AcDbEntity
8
0
100
AcDbCircle
10
-329.01299999999998
20
16.346392741913899
30
0
40
0.74999999999995737
210
0
220
-0
230
1
100
AcDbArc
50
90
51
180
0
ARC
5
765
100
AcDbEntity
8
0
100
AcDbCircle
10
-53.281249999999893
20
52.446392741913897
30
0
40
0.74999999999999711
210
0
220
0
230
1
100
AcDbArc
50
-6.0971633739101105e-06
51
90
0
LINE
5
766
100
AcDbEntity
8
0
100
AcDbLine
10
-70.543749999999903
20
53.196392741913805
30
0
11
-53.281249999999893
21
53.196392741913883
31
-1.285397122074983e-07
0
LINE
5
767
100
AcDbEntity
8
0
100
AcDbLine
10
-336.64999999999998
20
20.146392741913871
30
0
11
-349.15000007902501
21
20.146392741913779
31
0
0
LINE
5
768
100
AcDbEntity
8
0
100
AcDbLine
10
-349.14999999999998
20
34.146392741913864
30
0
11
-336.64999992097398
21
34.146392741913829
31
0
0
LINE
5
769
100
AcDbEntity
8
0
100
AcDbLine
10
-52.531249999999901
20
52.446392662102213
30
0
11
-52.531249999999901
21
39.946392741913797
31
0
0
ARC
5
770
100
AcDbEntity
8
0
100
AcDbCircle
10
-139.60000000000002
20
14.3463927419138
30
0
40
0.74999999999999289
210
0
220
-0
230
1
100
AcDbArc
50
90
51
179.99999692167535
0
LINE
5
771
100
AcDbEntity
8
0
100
AcDbLine
10
-144.36250000000001
20
72.24639274191378
30
-1.0547118733938987e-14
11
-131.86250000000001
21
72.24639274191388
31
-1.0547118733938987e-14
0
LINE
5
772
100
AcDbEntity
8
0
100
AcDbLine
10
-329.01299999999998
20
17.096392741913856
30
0
11
-323.51300000000009
21
17.096392741913828
31
0
0
LINE
5
773
100
AcDbEntity
8
0
100
AcDbLine
10
-322.76300000000003
20
16.3463927419138
30
0
11
-322.76299999999998
21
15.0963927419138
31
-6.8343922188240937e-08
0
LINE
5
774
100
AcDbEntity
8
0
100
AcDbLine
10
-322.76299999999998
20
15.0963927419138
30
-6.8343922188240937e-08
11
-305.88700000000006
21
15.0963927419138
31
-6.8343923853575461e-08
0
ARC
5
775
100
AcDbEntity
8
0
100
AcDbCircle
10
-330.10000000000002
20
1.8463927419139203
30
0
40
0.75000000000009948
210
0
220
0
230
1
100
AcDbArc
50
180
51
270
0
ARC
5
776
100
AcDbEntity
8
0
100
AcDbCircle
10
-298.55000000000007
20
14.3463927419138
30
0
40
0.75000000000002842
210
0
220
0
230
1
100
AcDbArc
50
0
51
90
0
LINE
5
777
100
AcDbEntity
8
0
100
AcDbLine
10
-297.80000000000007
20
14.3463927419138
30
0
11
-297.80000000000001
21
1.8463927017214909
31
0
0
ARC
5
778
100
AcDbEntity
8
0
100
AcDbCircle
10
-298.55000000000007
20
1.8463927419138304
30
0
40
0.74999999999999312
210
0
220
0
230
1
100
AcDbArc
50
270
51
359.99999692167529
0
LINE
5
779
100
AcDbEntity
8
0
100
AcDbLine
10
-298.55000000000007
20
1.0963927419138373
30
0
11
-298.887
21
1.09639274191383
31
9.9920072216264089e-15
0
LINE
5
780
100
AcDbEntity
8
0
100
AcDbLine
10
-298.887
20
1.09639274191383
30
9.9920072216264089e-15
11
-298.887
21
-0.153607258086048
31
0
0
ARC
5
781
100
AcDbEntity
8
0
100
AcDbCircle
10
-299.63700000000006
20
-0.153607258086048
30
0
40
0.75000000000006395
210
0
220
0
230
1
100
AcDbArc
50
-90
51
0
0
LINE
5
782
100
AcDbEntity
8
0
100
AcDbLine
10
-299.63700000000006
20
-0.90360725808611198
30
0
11
-305.137
21
-0.90360725808607412
31
0
0
ARC
5
783
100
AcDbEntity
8
0
100
AcDbCircle
10
-305.137
20
-0.15360725808611403
30
0
40
0.74999999999995737
210
0
220
0
230
1
100
AcDbArc
50
180
51
270
0
LINE
5
784
100
AcDbEntity
8
0
100
AcDbLine
10
-305.88699999999994
20
-0.15360725808611395
30
0
11
-305.88700000000006
21
1.09639274191383
31
9.9920072216264089e-15
0
LINE
5
785
100
AcDbEntity
8
0
100
AcDbLine
10
-322.76299999999998
20
1.09639274191383
30
9.9920072216264089e-15
11
-322.76299999999998
21
-0.153607258086009
31
0
0
LINE
5
786
100
AcDbEntity
8
0
100
AcDbLine
10
-305.88700000000006
20
1.09639274191383
30
9.9920072216264089e-15
11
-322.76299999999998
21
1.09639274191383
31
9.9920072216264089e-15
0
ARC
5
787
100
AcDbEntity
8
0
100
AcDbCircle
10
-323.51300000000009
20
-0.15360725808599099
30
0
40
0.75000000000002909
210
0
220
0
230
1
100
AcDbArc
50
270
51
360
0
LINE
5
788
100
AcDbEntity
8
0
100
AcDbLine
10
-323.51300000000009
20
-0.90360725808602005
30
0
11
-329.01299999999998
21
-0.90360725808611275
31
4.7581250051109683e-09
0
ENDSEC
0
SECTION
2
OBJECTS
0
DICTIONARY
5
C
100
AcDbDictionary
3
ACAD_GROUP
350
D
3
ACAD_MLINESTYLE
350
17
0
DICTIONARY
5
D
100
AcDbDictionary
0
DICTIONARY
5
1A
330
C
100
AcDbDictionary
0
DICTIONARY
5
17
100
AcDbDictionary
0
ENDSEC
0
EOF
