0
SECTION
2
HEADER
9
$INSUNITS
70
4
9
$ACADVER
1
AC1014
9
$HANDSEED
5
FFFF
0
ENDSEC
0
SECTION
2
TABLES
0
TABLE
2
VPORT
5
8
100
AcDbSymbolTable
0
ENDTAB
0
TABLE
2
LTYPE
5
5
100
AcDbSymbolTable
0
LTYPE
5
14
100
AcDbSymbolTableRecord
100
AcDbLinetypeTableRecord
2
BYBLOCK
70
0
0
LTYPE
5
15
100
AcDbSymbolTableRecord
100
AcDbLinetypeTableRecord
2
BYLAYER
70
0
0
ENDTAB
0
TABLE
2
LAYER
5
2
100
AcDbSymbolTable
70
2
0
LAYER
5
50
100
AcDbSymbolTableRecord
100
AcDbLayerTableRecord
2
0
70
0
6
CONTINUOUS
0
ENDTAB
0
TABLE
2
STYLE
5
3
100
AcDbSymbolTable
70
1
0
STYLE
5
11
100
AcDbSymbolTableRecord
100
AcDbTextStyleTableRecord
2
STANDARD
70
0
0
ENDTAB
0
TABLE
2
VIEW
5
6
100
AcDbSymbolTable
70
0
0
ENDTAB
0
TABLE
2
UCS
5
7
100
AcDbSymbolTable
70
0
0
ENDTAB
0
TABLE
2
APPID
5
9
100
AcDbSymbolTable
70
2
0
APPID
5
12
100
AcDbSymbolTableRecord
100
AcDbRegAppTableRecord
2
ACAD
70
0
0
ENDTAB
0
TABLE
2
DIMSTYLE
5
A
100
AcDbSymbolTable
70
1
0
ENDTAB
0
TABLE
2
BLOCK_RECORD
5
1
100
AcDbSymbolTable
70
1
0
BLOCK_RECORD
5
1F
100
AcDbSymbolTableRecord
100
AcDbBlockTableRecord
2
*MODEL_SPACE
0
BLOCK_RECORD
5
1B
100
AcDbSymbolTableRecord
100
AcDbBlockTableRecord
2
*PAPER_SPACE
0
ENDTAB
0
ENDSEC
0
SECTION
2
BLOCKS
0
BLOCK
5
20
100
AcDbEntity
100
AcDbBlockBegin
2
*MODEL_SPACE
0
ENDBLK
5
21
100
AcDbEntity
100
AcDbBlockEnd
0
BLOCK
5
1C
100
AcDbEntity
100
AcDbBlockBegin
2
*PAPER_SPACE
0
ENDBLK
5
1D
100
AcDbEntity
100
AcDbBlockEnd
0
ENDSEC
0
SECTION
2
ENTITIES
0
LWPOLYLINE
5
100
100
AcDbEntity
8
0
100
AcDbPolyline
90
8
70
1
43
0.0
10
-217.58750000000006
20
53.196392741913868
42
-0.41421356237311241
10
-216.83750000000006
20
52.446392741913897
10
-216.83750000000003
20
39.946392550287598
42
-0.41421348753837828
10
-217.58750000000006
20
39.196392741913833
10
-230.08750000000006
20
39.196392741913812
42
-0.41421356237316787
10
-230.83750000000006
20
39.946392741913797
10
-230.83750000000006
20
52.446392741913897
42
-0.41421356237309853
10
-230.08750000000006
20
53.19639274191389
0
LWPOLYLINE
5
101
100
AcDbEntity
8
0
100
AcDbPolyline
90
8
70
1
43
0.0
10
-69.199999999999889
20
1.8463927419138293
42
-0.41421356237309453
10
-69.949999999999889
20
1.0963927419138288
10
-82.449999999999903
20
1.0963927419137995
42
-0.4142135623730866
10
-83.199999999999903
20
1.8463927419138104
10
-83.199999999999918
20
14.346392741913805
42
-0.41421356237308898
10
-82.449999999999903
20
15.0963927419138
10
-69.949999999999889
20
15.096392741913807
42
-0.41421356237310375
10
-69.199999999999889
20
14.3463927419138
0
LWPOLYLINE
5
102
100
AcDbEntity
8
0
100
AcDbPolyline
90
8
70
1
43
0.0
10
-111.77500000000003
20
20.8963927419139
10
-111.77500000000002
20
33.3963927419138
42
-0.41421356237310375
10
-111.02500000000001
20
34.1463927419138
10
-98.52499999999992
20
34.146392741913793
42
-0.4142135623730846
10
-97.77499999999992
20
33.3963927419138
10
-97.774999999999906
20
20.896392741913804
42
-0.41421356237308116
10
-98.52499999999992
20
20.146392741913797
10
-111.025000040192
20
20.146392741913871
42
-0.41421354667713378
0
LWPOLYLINE
5
103
100
AcDbEntity
8
0
100
AcDbPolyline
90
8
70
1
43
0.0
10
-191.98750000000001
20
53.196392741913868
10
-179.48749992018801
20
53.19639274191389
42
-0.41421353120451632
10
-178.73750000000001
20
52.446392741913897
10
-178.73749999999998
20
39.946392741913797
42
-0.4142135623730569
10
-179.48750000000001
20
39.196392741913868
10
-191.98750000000001
20
39.196392741913812
42
-0.41421356237311413
10
-192.73750000000004
20
39.946392741913797
10
-192.73750000000007
20
52.446392741913797
42
-0.41421356237304302
0
LWPOLYLINE
5
104
100
AcDbEntity
8
0
100
AcDbPolyline
90
8
70
1
43
0.0
10
-202.26250000000007
20
71.496392741913894
42
-0.41421356237304302
10
-201.51250000000002
20
72.246392741913837
10
-189.01250000000002
20
72.246392741913894
42
-0.41421356237311585
10
-188.26250000000002
20
71.496392741913894
10
-188.26249999999999
20
58.996392662102302
42
-0.41421353120475218
10
-189.01250000000002
20
58.24639274191383
10
-201.51250000000002
20
58.246392741913908
42
-0.41421356237303608
10
-202.26249999999999
20
58.996392741913901
0
LWPOLYLINE
5
105
100
AcDbEntity
8
0
100
AcDbPolyline
90
54
70
1
43
0.0
10
-318.19375000000002
20
53.196392741913897
10
-303.50575000000009
20
53.19639274191389
10
-303.50574999999998
20
54.446392821725595
42
-0.41421353120472093
10
-302.75574999999998
20
55.196392741913911
10
-297.25575000000009
20
55.196392741913904
42
-0.41421356237311585
10
-296.50574999999998
20
54.446392741913897
10
-296.50575000000009
20
53.196392741913918
10
-293.787499920188
20
53.19639274191389
42
-0.41421353120455789
10
-293.03750000000002
20
52.446392741913897
10
-293.03750000000002
20
39.946392741913797
42
-0.41421356237309503
10
-293.78750000000002
20
39.196392741913812
10
-296.50574999999998
20
39.19639274191379
10
-296.50574999999998
20
37.946392662102397
42
-0.41421353120473481
10
-297.25574999999998
20
37.196392741913982
10
-302.75574999999901
20
37.196392741913868
42
-0.41421356237311413
10
-303.50574999999907
20
37.946392741913897
10
-303.50574999999924
20
39.196392741913797
10
-314.46875
20
39.196392741913812
10
-314.46875
20
34.1463927419138
10
-312.83749999999998
20
34.146392741913793
42
-0.41421357806921427
10
-312.08749999999998
20
33.396392701721503
10
-312.087499960164
20
28.221819059865055
42
-0.36358159017370761
10
-311.46875
20
27.483392741913804
10
-311.46875
20
21.983392662102204
42
-0.36358159075007251
10
-312.08750004024768
20
21.244966409728239
10
-312.08749999999998
20
20.896392741913811
42
-0.41421356237308116
10
-312.83749999999998
20
20.146392741913782
10
-325.33750007981206
20
20.146392741913775
42
-0.41421353120443127
10
-326.08749999999998
20
20.896392741913804
10
-326.08749999999998
20
21.2333927419138
10
-328.71875007981203
20
21.233392741913775
42
-0.41421353120461341
10
-329.46875000000006
20
21.9833927419138
10
-329.46875000000006
20
27.483392821725499
42
-0.41421353120468973
10
-328.71875
20
28.233392741913836
10
-326.08749999999998
20
28.2333927419138
10
-326.08749999999998
20
29.671392741913802
10
-327.71875
20
29.67139274191377
42
-0.41421356237308815
10
-328.46875000000006
20
30.421392741913799
10
-328.46875000000006
20
42.921392741913913
42
-0.41421356237311935
10
-327.71875
20
43.671392741913863
10
-327.38175000000007
20
43.671392741913913
10
-327.38175000000007
20
45.109392741913794
10
-328.71875
20
45.109392741913872
42
-0.41421356237300139
10
-329.46875000000006
20
45.859392741913901
10
-329.46875
20
51.359392821725514
42
-0.41421353120478682
10
-328.71875
20
52.109392741913894
10
-327.38175000000007
20
52.109392741913901
10
-327.38175000000007
20
54.446392821725595
42
-0.414213531204773
10
-326.63175000000001
20
55.196392741913868
10
-321.13174992018799
20
55.19639274191394
42
-0.41421353120450932
10
-320.38175000000012
20
54.446392741913897
10
-320.38175000000001
20
52.109392741913901
10
-318.94375000000014
20
52.109392741913901
10
-318.94375000000002
20
52.446392821725603
42
-0.41421353120473481
0
LWPOLYLINE
5
106
100
AcDbEntity
8
0
100
AcDbPolyline
90
8
70
1
43
0.0
10
-149.125
20
34.1463927419138
10
-136.625
20
34.146392741913878
42
-0.41421356237310897
10
-135.87500000000003
20
33.3963927419138
10
-135.87500000000003
20
20.896392741913804
42
-0.41421356237310719
10
-136.625
20
20.146392741913832
10
-149.12500004019199
20
20.146392741913811
42
-0.41421354667719795
10
-149.875
20
20.8963927419139
10
-149.875
20
33.396392782106204
42
-0.41421354667698468
0
LWPOLYLINE
5
107
100
AcDbEntity
8
0
100
AcDbPolyline
90
8
70
1
43
0.0
10
-174.724999920188
20
34.146392741913857
42
-0.41421353120459259
10
-173.97500000000008
20
33.3963927419138
10
-173.97500000000005
20
20.896392741913804
42
-0.41421357806905473
10
-174.72500004019199
20
20.146392741913818
10
-187.22500007981205
20
20.146392741913811
42
-0.41421353120455789
10
-187.97499999999999
20
20.896392741913804
10
-187.97499999999999
20
33.3963927419138
42
-0.41421356237310025
10
-187.22499999999999
20
34.1463927419138
0
LWPOLYLINE
5
108
100
AcDbEntity
8
0
100
AcDbPolyline
90
8
70
1
43
0.0
10
-102.53749999999999
20
39.946392741913797
42
-0.4142135623730846
10
-103.28749999999999
20
39.196392741913797
10
-115.78750007981199
20
39.19639274191389
42
-0.41421353120453014
10
-116.53750000000001
20
39.946392741913797
10
-116.53750000000001
20
52.446392821725603
42
-0.41421353120468279
10
-115.78749999999999
20
53.196392741913897
10
-103.28749992018801
20
53.19639274191389
42
-0.41421353120457527
10
-102.53749999999999
20
52.446392741913897
0
LWPOLYLINE
5
109
100
AcDbEntity
8
0
100
AcDbPolyline
90
8
70
1
43
0.0
10
-126.06250000000004
20
58.996392741913901
10
-126.06250000000001
20
71.496392741913894
42
-0.41421356237308815
10
-125.3125
20
72.246392741913922
10
-112.8125
20
72.246392741913866
42
-0.41421356237309503
10
-112.06250000000004
20
71.496392741913894
10
-112.0625
20
58.996392701721504
42
-0.41421354667697602
10
-112.81249999999999
20
58.246392741913915
10
-125.3125
20
58.246392741913873
42
-0.41421356237307771
0
LWPOLYLINE
5
110
100
AcDbEntity
8
0
100
AcDbPolyline
90
8
70
1
43
0.0
10
-254.65000000000003
20
14.3463927419138
42
-0.41421356237312978
10
-253.90000000000001
20
15.096392741913775
10
-241.40000000000001
20
15.096392741913792
42
-0.41421356237309503
10
-240.65000000000001
20
14.3463927419138
10
-240.65000000000001
20
1.8463927419138293
42
-0.41421356237309515
10
-241.40000000000001
20
1.0963927419138362
10
-253.90000000000001
20
1.0963927419138362
42
-0.41421356237311358
10
-254.65000000000006
20
1.8463927419139303
0
CIRCLE
5
111
100
AcDbEntity
8
0
100
AcDbCircle
10
-276.22500000000002
20
-7.4004190109688617
30
-5.0237591864288327e-14
40
1.7500000000000104
210
0
220
0
230
1
0
CIRCLE
5
112
100
AcDbEntity
8
0
100
AcDbCircle
10
-85.724999999999795
20
-7.4004190109688617
30
-5.0237591864288327e-14
40
1.7500000000000104
210
0
220
0
230
1
0
CIRCLE
5
113
100
AcDbEntity
8
0
100
AcDbCircle
10
-358.11963415328898
20
46.2180980437806
30
0
40
1.7499999999999705
210
0
220
0
230
1
0
CIRCLE
5
114
100
AcDbEntity
8
0
100
AcDbCircle
10
-19.049999999999898
20
99.843096517327012
30
-2.026157019940911e-14
40
1.7499999999999905
210
0
220
0
230
1
0
CIRCLE
5
115
100
AcDbEntity
8
0
100
AcDbCircle
10
-117.72500000000001
20
99.843096517327012
30
-2.026157019940911e-14
40
1.7499999999999905
210
0
220
0
230
1
0
CIRCLE
5
116
100
AcDbEntity
8
0
100
AcDbCircle
10
-335.875
20
-7.4069034505053111
30
9.9920072216264089e-15
40
1.7499999999999705
210
0
220
0
230
1
0
CIRCLE
5
117
100
AcDbEntity
8
0
100
AcDbCircle
10
-253.40000000000003
20
99.843096517327012
30
-2.026157019940911e-14
40
1.7500000000000104
210
0
220
0
230
1
0
CIRCLE
5
118
100
AcDbEntity
8
0
100
AcDbCircle
10
-333.375
20
99.843096517327012
30
-2.026157019940911e-14
40
1.7500000000000404
210
0
220
0
230
1
0
CIRCLE
5
119
100
AcDbEntity
8
0
100
AcDbCircle
10
-19.049999999999798
20
-7.4004190109688617
30
-5.0237591864288327e-14
40
1.7500000000000004
210
0
220
0
230
1
0
CIRCLE
5
120
100
AcDbEntity
8
0
100
AcDbCircle
10
-176.21250000000001
20
-7.4069034505053111
30
9.9920072216264089e-15
40
1.7500000000000104
210
0
220
0
230
1
0
CIRCLE
5
121
100
AcDbEntity
8
0
100
AcDbCircle
10
5.6946341532885514
20
46.218098548762001
30
-1.0269562977782698e-14
40
1.7500000000000004
210
0
220
0
230
1
0
CIRCLE
5
122
100
AcDbEntity
8
0
100
AcDbCircle
10
-73.818749999999923
20
22.746392741913802
30
0
40
2
210
0
220
0
230
1
0
LWPOLYLINE
5
123
100
AcDbEntity
8
0
100
AcDbPolyline
90
8
70
1
43
0.0
10
-97.775000039905763
20
78.046392741913763
10
-97.775000039905763
20
90.546392741913763
42
0.41421356237319218
10
-98.52500003990572
20
91.296392741913763
10
-113.40625003990573
20
91.296392741913763
42
0.41421356237308116
10
-114.15625003990571
20
90.546392741913763
10
-114.15625003990571
20
78.046392741913763
42
0.41421356237310197
10
-113.40625003990573
20
77.296392741913792
10
-98.525000039905777
20
77.296392741913792
42
0.41421356237310897
0
LWPOLYLINE
5
124
100
AcDbEntity
8
0
100
AcDbPolyline
90
54
70
1
43
0.0
10
-330.67112659693601
20
-7.1872746948581412
10
-281.42887344166502
20
-7.1872715896886552
42
-0.30583605163496796
10
-279.57421584507603
20
-8.4387765350401587
42
0.73692685961055215
10
-272.87578280923702
20
-8.4387764965399708
42
-0.30583750307441226
10
-271.02112655916198
20
-7.1872742640813101
10
-181.416373501972
20
-7.1872714046018888
42
-0.30583605624382759
10
-179.56171589276482
20
-8.438776381218652
42
0.73692689233387865
10
-172.86328270781655
20
-8.4387763908867157
42
-0.3058377008392667
10
-171.00862649886005
20
-7.1872743993772215
10
-90.928873562278639
20
-7.1872712371425251
42
-0.30583604917015572
10
-89.074215913266755
20
-8.4387763150902622
42
0.73692691506679509
10
-82.375782662823255
20
-8.4387762613852697
42
-0.30583770644028974
10
-80.521126438552699
20
-7.1872742319263727
10
-24.253873604493705
20
-7.1872711137514074
42
-0.30583607570360644
10
-22.399215942008013
20
-8.4387762223854867
42
0.73692693508106144
10
-15.700782637691958
20
-8.4387761803263128
42
-0.30583771268149545
10
-13.846126396337199
20
-7.1872741085374434
10
0.97500000740254222
20
-7.1872710670620013
42
0.41421356183105645
10
4.9750000000000307
20
-3.1872710670619711
10
4.9749999999999881
20
40.591074484204199
42
-0.33329327762867117
10
6.6751186627235022
20
42.858239901920172
42
0.7498873480684366
10
6.6751186627234995
20
49.577957195604021
42
-0.33329327762866268
10
4.9749999999999925
20
51.845122613320001
10
4.9750000000000218
20
95.623459563096205
42
0.41421365519964837
10
0.97499873228127165
20
99.623459563096048
10
-10.049999998432801
20
99.623456068946226
10
-13.846125459515701
20
99.623456087138408
42
-0.30583361624479599
10
-15.700776379721795
20
100.87494452266293
42
0.73693263514345875
10
-22.399225026348489
20
100.8749445257353
42
-0.30583525279895313
10
-24.253874542571605
20
99.62345915018453
10
-112.52112562129602
20
99.623456560010027
42
-0.30583359232978913
10
-114.37577647602517
20
100.87494483329792
42
0.73693255742615693
10
-121.07422490916896
20
100.87494488810509
42
-0.3058352365101894
10
-122.928874380791
20
99.62345962305271
10
-248.196125843738
20
99.623457210193465
42
-0.30583355944829732
10
-250.05077660843966
20
100.87494526041311
42
0.73693245903515081
10
-256.74922477675216
20
100.8749453152177
42
-0.30583520362153488
10
-258.60387415834902
20
99.623460273222406
10
-328.17112597485902
20
99.623457593450695
42
-0.30583354006644581
10
-330.02577668649457
20
100.87494551218315
42
0.73693240103700275
10
-336.72422469869616
20
100.87494556698522
42
-0.30583518423651657
10
-338.57887402722804
20
99.623460656475572
10
-342.37500006626999
20
99.623457661517932
10
-353.39999943813007
20
99.623459210171518
42
0.41421360351505426
10
-357.39999999999981
20
95.623459210171703
10
-357.40000000000003
20
51.849297431795705
42
-0.33309552631113415
10
-359.10251051268602
20
49.577257769387302
42
0.74933133468319368
10
-359.10251051268602
20
42.858938318173905
42
-0.33309552631109424
10
-357.40000000000009
20
40.586898655765602
10
-357.39999969059198
20
-3.1872717228809666
42
0.41421356475137405
10
-353.39999996751999
20
-7.1872714134732458
10
-341.07887340389703
20
-7.1872717000789956
42
-0.3058360460524393
10
-339.22421582259176
20
-8.4387766075612927
42
0.73692684635166417
10
-332.52578275710624
20
-8.438776565500179
42
-0.30583768302738146
0
LWPOLYLINE
5
125
100
AcDbEntity
8
0
100
AcDbPolyline
90
8
70
1
43
0.0
10
-280.09375003990573
20
91.296392741913792
42
0.41421356237306733
10
-280.84375003990573
20
90.546392741913792
10
-280.84375003990573
20
78.046392741913763
42
0.41421356237308815
10
-280.09375003990573
20
77.296392741913792
10
-260.45000003990583
20
77.296392741913792
42
0.41421356237312279
10
-259.70000003990572
20
78.046392741913763
10
-259.70000003990583
20
90.546392741913792
42
0.41421356237310197
10
-260.45000003990589
20
91.296392741913763
0
LWPOLYLINE
5
126
100
AcDbEntity
8
0
100
AcDbPolyline
90
8
70
1
43
0.0
10
-52.531249999999901
20
90.546392741913792
10
-52.531249999999929
20
78.046392741913792
42
-0.41421356237309853
10
-53.281249999999893
20
77.29639274191382
10
-68.162499999999895
20
77.296392741913792
42
-0.41421356237308815
10
-68.912499999999895
20
78.046392741913792
10
-68.912499999999909
20
90.546392741913792
42
-0.41421356237308815
10
-68.162499999999895
20
91.29639274191382
10
-53.281249999999893
20
91.296392741913934
42
-0.41421356237314361
0
LWPOLYLINE
5
127
100
AcDbEntity
8
0
100
AcDbPolyline
90
8
70
1
43
0.0
10
-311.05000000000007
20
77.296392741913863
42
-0.41421356237308815
10
-311.80000000000001
20
78.046392741913792
10
-311.80000000000001
20
90.546392741913792
42
-0.41421356237310197
10
-311.05000000000013
20
91.296392741913877
10
-298.55000000000007
20
91.296392741913849
42
-0.41421356237312978
10
-297.80000000000001
20
90.546392741913792
10
-297.80000000000007
20
78.046392741913792
42
-0.41421356237309159
10
-298.55000000000007
20
77.29639274191382
0
LWPOLYLINE
5
128
100
AcDbEntity
8
0
100
AcDbPolyline
90
8
70
1
43
0.0
10
-316.85000000000008
20
58.996392741913901
42
-0.41421359376539962
10
-317.60000008038492
20
58.246392741913873
10
-330.10000000000002
20
58.246392741913802
42
-0.41421356237309503
10
-330.85000000000014
20
58.996392741913901
10
-330.85000000000008
20
71.496392741913894
42
-0.41421356237304302
10
-330.10000000000002
20
72.246392741913795
10
-317.60000000000002
20
72.246392741913809
42
-0.41421356237307422
10
-316.85000000000002
20
71.496392741913894
0
LWPOLYLINE
5
129
100
AcDbEntity
8
0
100
AcDbPolyline
90
8
70
1
43
0.0
10
-172.34375
20
77.29639274191382
10
-191.98750000000001
20
77.296392741913877
42
-0.41421356237309503
10
-192.73750000000007
20
78.046392741913792
10
-192.73750000000007
20
90.546392741913792
42
-0.41421356237303958
10
-191.98750000000001
20
91.296392741913849
10
-172.34375
20
91.296392741913792
42
-0.41421356237310197
10
-171.59375
20
90.546392741913792
10
-171.59375
20
78.046392701721501
42
-0.41421354667703841
0
LWPOLYLINE
5
130
100
AcDbEntity
8
0
100
AcDbPolyline
90
8
70
1
43
0.0
10
-239.61250000000007
20
72.24639274191378
10
-227.11250000000007
20
72.246392741913809
42
-0.41421356237307422
10
-226.36250000000004
20
71.496392741913894
10
-226.36250000000004
20
58.996392741913901
42
-0.41421356237312978
10
-227.11250000000007
20
58.246392741913922
10
-239.61250004019206
20
58.246392741913844
42
-0.41421354667721183
10
-240.36250000000001
20
58.996392741913901
10
-240.36250000000001
20
71.496392741913894
42
-0.41421356237304652
0
LWPOLYLINE
5
131
100
AcDbEntity
8
0
100
AcDbPolyline
90
8
70
1
43
0.0
10
-202.55000000000001
20
1.8463927017214909
42
-0.41421354667698512
10
-203.30000000000001
20
1.0963927419138297
10
-215.80000000000001
20
1.0963927419138415
42
-0.41421356237308943
10
-216.55000000000001
20
1.8463927419139001
10
-216.55000000000001
20
14.346392782106205
42
-0.41421354667700983
10
-215.80000000000001
20
15.096392741913787
10
-203.30000000000001
20
15.096392741913867
42
-0.41421356237312457
10
-202.54999999999995
20
14.346392741913805
0
LWPOLYLINE
5
132
100
AcDbEntity
8
0
100
AcDbPolyline
90
8
70
1
43
0.0
10
-34.824999999999903
20
20.146392741913811
42
-0.41421356237309681
10
-35.574999999999903
20
20.896392741913804
10
-35.574999999999903
20
33.396392901145497
42
-0.41421350018926206
10
-34.824999999999903
20
34.146392741913807
10
-22.324999999999907
20
34.146392741913807
42
-0.41421356237310025
10
-21.574999999999886
20
33.3963927419138
10
-21.574999999999925
20
20.896392839342802
42
-0.41421360042148436
10
-22.324999999999907
20
20.146392741913811
0
LWPOLYLINE
5
133
100
AcDbEntity
8
0
100
AcDbPolyline
90
8
70
1
43
0.0
10
-21.5749999999999
20
58.996392741913901
42
-0.41421356237308982
10
-22.324999999999907
20
58.246392741913915
10
-34.824999999999903
20
58.246392741913908
42
-0.41421356237309853
10
-35.57499999999991
20
58.996392741913901
10
-35.574999999999903
20
71.496392741913894
42
-0.41421356237309853
10
-34.824999999999903
20
72.246392741913894
10
-22.324999999999907
20
72.246392741913922
42
-0.41421356237310542
10
-21.574999999999903
20
71.496392741913894
0
LWPOLYLINE
5
134
100
AcDbEntity
8
0
100
AcDbPolyline
90
32
70
1
43
0.0
10
-53.618249999999897
20
58.246392741913873
10
-53.618249999999897
20
56.996392741913802
42
-0.41421356237304996
10
-54.368249999999904
20
56.246392741913915
10
-59.868249999999897
20
56.246392741913922
42
-0.41421356237303958
10
-60.618249999999904
20
56.996392741913802
10
-60.618249999999904
20
58.246392741913802
10
-77.494249999999923
20
58.246392741913802
10
-77.494249999999923
20
56.996392741913802
42
-0.41421359376527128
10
-78.244250080384603
20
56.246392741913816
10
-83.744249999999894
20
56.246392741913823
42
-0.41421356237310197
10
-84.494249999999894
20
56.996392741913802
10
-84.494249999999894
20
58.246392741913802
10
-87.212499999999906
20
58.246392741913901
42
-0.41421356237309503
10
-87.962499999999892
20
58.996392741913901
10
-87.962499999999977
20
71.496392741913894
42
-0.41421356237314017
10
-87.212499999999906
20
72.246392741913866
10
-84.494249999999894
20
72.246392741913795
10
-84.494249999999923
20
73.496392741913795
42
-0.41421356237310542
10
-83.744249999999894
20
74.246392741913809
10
-78.244249999999923
20
74.246392741913795
42
-0.41421359376528172
10
-77.494249999999923
20
73.496392661529086
10
-77.494249999999923
20
72.246392741913795
10
-60.618249999999904
20
72.246392741913866
10
-60.618249999999883
20
73.496392741913795
42
-0.41421356237314361
10
-59.868249999999897
20
74.246392741913866
10
-54.368249999999911
20
74.246392741913809
42
-0.41421356237309853
10
-53.618249999999897
20
73.496392741913795
10
-53.618249999999897
20
72.246392741913795
10
-53.281249999999893
20
72.246392741913894
42
-0.41421356237310897
10
-52.531249999999901
20
71.496392741913894
10
-52.531249999999908
20
58.996392741913901
42
-0.41421356237309159
10
-53.281249999999893
20
58.246392741913908
0
LWPOLYLINE
5
135
100
AcDbEntity
8
0
100
AcDbPolyline
90
8
70
1
43
0.0
10
-117.575
20
34.146392741913878
42
-0.41421359376530942
10
-116.82500000000005
20
33.396392661529092
10
-116.82500000000005
20
20.896392741913804
42
-0.41421356237309681
10
-117.575
20
20.146392741913843
10
-130.07499999999999
20
20.146392741913797
42
-0.41421356237311413
10
-130.82500000000005
20
20.896392741913804
10
-130.82500000000005
20
33.3963927419138
42
-0.41421356237307422
10
-130.07499999999999
20
34.146392741913814
0
LWPOLYLINE
5
136
100
AcDbEntity
8
0
100
AcDbPolyline
90
8
70
1
43
0.0
10
-193.77499995980801
20
34.146392741913829
42
-0.41421354667710258
10
-193.02500000000003
20
33.3963927419138
10
-193.02500000000006
20
20.896392741913804
42
-0.41421356237311585
10
-193.77500000000001
20
20.146392741913811
10
-206.275000040192
20
20.146392741913907
42
-0.41421354667707655
10
-207.02500000000001
20
20.896392741913804
10
-207.02500000000001
20
33.3963927419138
42
-0.41421356237309681
10
-206.27500000000001
20
34.146392741913793
0
LWPOLYLINE
5
137
100
AcDbEntity
8
0
100
AcDbPolyline
90
8
70
1
43
0.0
10
-122.33749995980801
20
53.19639274191389
42
-0.41421354667713212
10
-121.58750000000001
20
52.446392741913897
10
-121.58750000000001
20
39.946392741913797
42
-0.4142135623730846
10
-122.33750000000001
20
39.196392741913797
10
-134.83750000000001
20
39.196392741913812
42
-0.41421356237310025
10
-135.58750000000001
20
39.946392741913797
10
-135.58750000000001
20
52.446392741913897
42
-0.41421356237307771
10
-134.83750000000001
20
53.19639274191394
0
LWPOLYLINE
5
138
100
AcDbEntity
8
0
100
AcDbPolyline
90
8
70
1
43
0.0
10
-150.91249999999999
20
72.246392741913866
42
-0.41421356237308116
10
-150.16250000000008
20
71.496392741913894
10
-150.16249999999999
20
58.996392741913901
42
-0.41421356237309853
10
-150.91249999999999
20
58.246392741913901
10
-163.41249999999999
20
58.246392741913873
42
-0.41421356237312978
10
-164.16250000000005
20
58.996392741913901
10
-164.16250000000005
20
71.496392741913894
42
-0.41421356237304302
10
-163.41249999999999
20
72.246392741913837
0
LWPOLYLINE
5
139
100
AcDbEntity
8
0
100
AcDbPolyline
90
8
70
1
43
0.0
10
-154.92500000000004
20
20.896392741913804
42
-0.41421356237310719
10
-155.67500000000001
20
20.146392741913832
10
-168.17500000000001
20
20.146392741913882
42
-0.41421356237295975
10
-168.92499999999995
20
20.896392741913601
10
-168.92500000000013
20
33.3963927419138
42
-0.41421356237308815
10
-168.17500000000001
20
34.1463927419139
10
-155.67500000000001
20
34.146392741913878
42
-0.41421356237310897
10
-154.92500000000004
20
33.3963927419138
0
LWPOLYLINE
5
140
100
AcDbEntity
8
0
100
AcDbPolyline
90
8
70
1
43
0.0
10
-68.162499999999895
20
34.146392741913807
10
-55.662499999999895
20
34.146392741913807
42
-0.41421356237308982
10
-54.912499999999909
20
33.3963927419138
10
-54.912499999999902
20
20.896392741913804
42
-0.41421356237309503
10
-55.662499999999895
20
20.146392741913793
10
-68.162500040192214
20
20.146392741913811
42
-0.41421354667701588
10
-68.912499999999881
20
20.896392741913804
10
-68.912499999999909
20
33.3963927419138
42
-0.4142135623730846
0
LWPOLYLINE
5
141
100
AcDbEntity
8
0
100
AcDbPolyline
90
8
70
1
43
0.0
10
-332.77499999999998
20
-1.4286110633515201
10
-279.32499999999999
20
-1.4286110633515701
42
-0.414213562373142
10
-277.82500000000005
20
-2.9286110633515601
10
-277.82500000000005
20
-2.97500611420217
42
-0.41421356237310086
10
-279.32499999999999
20
-4.4750061142021504
10
-332.77499999999998
20
-4.4750061142021451
42
-0.41421356237315338
10
-334.27499999999981
20
-2.97500611420217
10
-334.27500000000009
20
-2.9286110633515601
42
-0.41421356237305018
0
LWPOLYLINE
5
142
100
AcDbEntity
8
0
100
AcDbPolyline
90
8
70
1
43
0.0
10
-283.22500000000002
20
20.896392741913804
10
-283.22500000000002
20
33.396392821725499
42
-0.41421353120468102
10
-282.47500000000002
20
34.146392741913807
10
-269.974999920188
20
34.146392741913829
42
-0.41421353120460475
10
-269.22500000000002
20
33.3963927419138
10
-269.22500000000002
20
20.896392741913804
42
-0.41421356237309503
10
-269.97500000000002
20
20.1463927419138
10
-282.47500000000002
20
20.146392741913846
42
-0.41421356237307078
0
LWPOLYLINE
5
143
100
AcDbEntity
8
0
100
AcDbPolyline
90
8
70
1
43
0.0
10
-274.625
20
-2.9286110633515601
42
-0.41421356237308038
10
-273.125
20
-1.4286110633515425
10
-179.31250000000003
20
-1.4286110633515789
42
-0.41421356237310153
10
-177.8125
20
-2.9286110633515694
10
-177.81250000000011
20
-2.97500611420217
42
-0.41421356237309548
10
-179.31250000000003
20
-4.4750061142021575
10
-273.125
20
-4.4750061142021913
42
-0.4142135623730866
10
-274.625
20
-2.97500611420217
0
LWPOLYLINE
5
144
100
AcDbEntity
8
0
100
AcDbPolyline
90
8
70
1
43
0.0
10
-236.63749999999999
20
53.19639274191389
42
-0.41421356237309853
10
-235.88750000000002
20
52.446392741913897
10
-235.88750000000002
20
39.946392662102092
42
-0.41421353120468452
10
-236.63749999999999
20
39.196392741913797
10
-249.13750007981207
20
39.196392741913812
42
-0.41421353120451976
10
-249.88749999999999
20
39.946392741913797
10
-249.88749999999999
20
52.446392741913897
42
-0.41421356237309853
10
-249.13749999999999
20
53.196392741913897
0
LWPOLYLINE
5
145
100
AcDbEntity
8
0
100
AcDbPolyline
90
8
70
1
43
0.0
10
-279.49999992018797
20
15.096392741913929
42
-0.4142135312045423
10
-278.75
20
14.3463927419138
10
-278.75
20
1.8463927419138293
42
-0.4142135623730519
10
-279.5
20
1.0963927419138404
10
-292
20
1.0963927419138373
42
-0.41421356237309531
10
-292.75
20
1.8463927419138304
10
-292.75
20
14.3463928217255
42
-0.41421354690065426
10
-291.99999995980806
20
15.096392741913798
0
LWPOLYLINE
5
146
100
AcDbEntity
8
0
100
AcDbPolyline
90
8
70
1
43
0.0
10
-349.90000000000009
20
39.946392741913897
10
-349.90000000000009
20
52.446392741913897
42
-0.41421356237311241
10
-349.14999999999998
20
53.19639274191394
10
-336.64999999999998
20
53.196392741913826
42
-0.41421356237308815
10
-335.89999999999998
20
52.446392741913797
10
-335.89999999999998
20
39.9463927017215
42
-0.41421354667693439
10
-336.64999999999998
20
39.196392741913868
10
-349.15000004019203
20
39.196392741913797
42
-0.41421354667716331
0
LWPOLYLINE
5
147
100
AcDbEntity
8
0
100
AcDbPolyline
90
16
70
1
43
0.0
10
-354.47139999997773
20
-1.4750061067909197
42
0.41421356237304036
10
-351.47139999256609
20
-4.4750061142021442
10
-338.97500000000002
20
-4.47500611420213
42
0.41421356237303369
10
-337.47500000000002
20
-2.97500611420217
10
-337.47500000000002
20
-2.9286110633515601
42
0.41421356237308782
10
-338.97500000000002
20
-1.4286110633516114
10
-351.39999999999998
20
-1.4286110633515017
42
-0.41421356237306728
10
-352.42500000000007
20
-0.40361106335154778
10
-352.42499999999916
20
92.821396522022596
42
-0.41421356237306384
10
-351.42500000000007
20
93.821396522021615
10
-336.47500000000008
20
93.821396522022667
42
0.41421356237312279
10
-334.97500000000002
20
95.321396522022596
10
-334.97500000000002
20
95.36779388579788
42
0.41421356237312623
10
-336.47500000000002
20
96.867793885798008
10
-351.47139999999189
20
96.867793885797937
42
0.41421356237312457
10
-354.471399999992
20
93.867793885797525
0
LWPOLYLINE
5
148
100
AcDbEntity
8
0
100
AcDbPolyline
90
16
70
1
43
0.0
10
-15.9499999999999
20
93.821396522021502
42
-0.41421356237308943
10
-17.44999999999991
20
95.321396522021502
10
-17.449999999999939
20
95.36779388579788
42
-0.41421356237312279
10
-15.9499999999999
20
96.867793885798065
10
-0.95359999261077633
20
96.867793885798008
42
-0.41421356237303103
10
2.0463999999775258
20
93.86779389321012
10
2.0463999999972504
20
-1.4750061142015445
42
-0.41421356237315693
10
-0.95360000000273026
20
-4.4750061142021806
10
-15.9499999999999
20
-4.47500611420217
42
-0.41421356237309548
10
-17.44999999999991
20
-2.9750061142021607
10
-17.4499999999999
20
-2.9286134551993701
42
-0.41421356237309398
10
-15.9499999999999
20
-1.4286134551993701
10
-0.9999999999998721
20
-1.4286134551993399
42
0.41421356237309848
10
1.2906342661267445e-13
20
-0.42861345519932892
10
7.1054273576010019e-14
20
92.821396522021402
42
0.41421356237310014
10
-0.99999999999990807
20
93.821396522021402
0
LWPOLYLINE
5
149
100
AcDbEntity
8
0
100
AcDbPolyline
90
9
70
1
43
0.0
10
-120.82499736377251
20
96.867799160805234
42
-0.41421356237349044
10
-119.32499724154603
20
95.367799283029683
10
-119.32499723776594
20
95.32140191945507
42
-0.41421356241224805
10
-120.824997115541
20
93.821401797029566
10
-181.41600146091503
20
93.821396522024003
10
-250.30000263623705
20
93.821396522022212
42
-0.41421356237309159
10
-251.800002636237
20
95.321396522022212
10
-251.800002636237
20
95.36779388579788
42
-0.41421356237309159
10
-250.30000263623705
20
96.86779388579788
0
LWPOLYLINE
5
150
100
AcDbEntity
8
0
100
AcDbPolyline
90
8
70
1
43
0.0
10
-87.324999999999903
20
-2.9286110633515694
10
-87.324999999999861
20
-2.97500611420217
42
-0.41421356237310147
10
-88.824999999999804
20
-4.4750061142021886
10
-173.11250000000001
20
-4.4750061142021718
42
-0.41421356237309193
10
-174.61250000000004
20
-2.97500611420217
10
-174.61250000000004
20
-2.9286110633515694
42
-0.41421356237308082
10
-173.11250000000001
20
-1.4286110633515499
10
-88.824999999999918
20
-1.4286110633515767
42
-0.41421356237310847
0
LWPOLYLINE
5
151
100
AcDbEntity
8
0
100
AcDbPolyline
90
8
70
1
43
0.0
10
-331.77500000000009
20
95.321396522022596
42
0.41421356237311585
10
-330.27499999999986
20
93.821396522022425
10
-256.50000000000801
20
93.821396522022184
42
0.41421356237308116
10
-255.00000000000801
20
95.321396522022212
10
-255.00000000000793
20
95.36779388579788
42
0.41421356237310197
10
-256.50000000000801
20
96.867793885798008
10
-330.27499999999998
20
96.867793885798008
42
0.41421356237312279
10
-331.77500000000009
20
95.36779388579788
0
LWPOLYLINE
5
152
100
AcDbEntity
8
0
100
AcDbPolyline
90
8
70
1
43
0.0
10
-22.1499999999998
20
-4.4750061142021602
10
-82.624999999999901
20
-4.4750061142021638
42
-0.41421356237309354
10
-84.124999999999915
20
-2.97500611420217
10
-84.124999999999872
20
-2.9286110633515694
42
-0.41421356237311413
10
-82.624999999999901
20
-1.4286110633515701
10
-22.149999999999803
20
-1.4286110633515707
42
-0.41421356237309592
10
-20.6499999999998
20
-2.9286110633515694
10
-20.6499999999998
20
-2.9750061142021607
42
-0.41421356237309559
0
LWPOLYLINE
5
153
100
AcDbEntity
8
0
100
AcDbPolyline
90
8
70
1
43
0.0
10
-208.06249995980806
20
72.246392741913809
42
-0.41421354667713556
10
-207.31250000000003
20
71.496392741913795
10
-207.31250000000003
20
58.996392741913901
42
-0.41421359376537537
10
-208.06250008038504
20
58.246392741913908
10
-220.56250000000006
20
58.246392741913844
42
-0.41421356237306034
10
-221.3125
20
58.996392741913795
10
-221.3125
20
71.496392741913894
42
-0.41421359376539263
10
-220.56249991961499
20
72.24639274191388
0
LWPOLYLINE
5
154
100
AcDbEntity
8
0
100
AcDbPolyline
90
8
70
1
43
0.0
10
-265.21249999999998
20
72.24639274191378
42
-0.41421356237298057
10
-264.46250000000003
20
71.496392741913894
10
-264.46249999999998
20
58.996392741913901
42
-0.41421356237309853
10
-265.21249999999998
20
58.246392741913901
10
-277.71249999999998
20
58.246392741913844
42
-0.41421356237318868
10
-278.46250000000003
20
58.996392741914008
10
-278.46249999999998
20
71.496392741913894
42
-0.41421356237307422
10
-277.71249999999998
20
72.246392741913809
0
LWPOLYLINE
5
155
100
AcDbEntity
8
0
100
AcDbPolyline
90
8
70
1
43
0.0
10
-3.2749999999998924
20
53.196392741913883
42
-0.41421356237309892
10
-2.5249999999998982
20
52.446392741913897
10
-2.5249999999999027
20
39.946392662102205
42
-0.41421353120473398
10
-3.2749999999999
20
39.196392741913797
10
-15.775000079811598
20
39.196392741913812
42
-0.41421353120468712
10
-16.524999999999903
20
39.946392741913797
10
-16.524999999999899
20
52.446392821725503
42
-0.41421353120472615
10
-15.774999999999899
20
53.196392741913897
0
LWPOLYLINE
5
156
100
AcDbEntity
8
0
100
AcDbPolyline
90
8
70
1
43
0.0
10
-349.90000000000015
20
78.046392741913991
10
-349.90000000000003
20
90.546392741913792
42
-0.41421356237312978
10
-349.14999999999998
20
91.296392741913763
10
-336.64999999999998
20
91.296392741913849
42
-0.41421356237315055
10
-335.89999999999998
20
90.546392741913792
10
-335.90000000000009
20
78.046392741913792
42
-0.41421356237306733
10
-336.64999999999998
20
77.296392741913834
10
-349.14999999999998
20
77.29639274191382
42
-0.41421356237310197
0
LWPOLYLINE
5
157
100
AcDbEntity
8
0
100
AcDbPolyline
90
14
70
1
43
0.0
10
-246.38750000000002
20
91.296392741913849
10
-246.38749999999999
20
92.046392741913792
42
-0.41421356237308815
10
-245.63749999999999
20
92.796392741913763
10
-240.13750000000002
20
92.796392741913849
42
-0.41421356237307422
10
-239.38749999999999
20
92.046392741913934
10
-239.38749999999999
20
75.846392741913917
42
-0.41421356237311241
10
-240.13750000000002
20
75.096392741913917
10
-245.63749999999999
20
75.096392741913846
42
-0.41421356237306034
10
-246.3875000000001
20
75.846392741913917
10
-246.38750000000005
20
77.29639274191382
10
-256.28125
20
77.29639274191392
42
-0.41421356237306733
10
-257.03125
20
78.046392741913792
10
-257.03124999999994
20
90.546392741913792
42
-0.41421356237310197
10
-256.28125000000006
20
91.296392741913877
0
LWPOLYLINE
5
158
100
AcDbEntity
8
0
100
AcDbPolyline
90
8
70
1
43
0.0
10
-116.1249999999999
20
95.36779388579788
42
-0.41421356237312978
10
-114.625
20
96.867793885797951
10
-22.149999999999803
20
96.867793885798008
42
-0.41421356237312279
10
-20.649999999999814
20
95.36779388579788
10
-20.649999999999832
20
95.321396522021502
42
-0.41421356237312718
10
-22.1499999999998
20
93.821396522021445
10
-114.625
20
93.821396522021871
42
-0.4142135623730846
10
-116.12500000000004
20
95.3213965220219
0
LWPOLYLINE
5
159
100
AcDbEntity
8
0
100
AcDbPolyline
90
8
70
1
43
0.0
10
-16.524999999999899
20
78.046392741913792
10
-16.524999999999913
20
90.546392741913792
42
-0.41421356237308293
10
-15.774999999999899
20
91.29639274191382
10
-3.2749999999998902
20
91.29639274191382
42
-0.41421356237309331
10
-2.5249999999999018
20
90.546392741913792
10
-2.5249999999998907
20
78.04639270172143
42
-0.41421354667700416
10
-3.2749999999999302
20
77.296392741913792
10
-15.774999999999897
20
77.296392741913792
42
-0.4142135623730942
0
LWPOLYLINE
5
160
100
AcDbEntity
8
0
100
AcDbPolyline
90
8
70
1
43
0.0
10
-3.2749999999998858
20
72.246392741913766
42
-0.41421356237306345
10
-2.5249999999999027
20
71.496392741913894
10
-2.5249999999999018
20
58.99639266210221
42
-0.41421354690077
10
-3.2750000401922508
20
58.246392741913915
10
-15.774999999999899
20
58.246392741913908
42
-0.4142135623730942
10
-16.524999999999906
20
58.996392741913901
10
-16.524999999999899
20
71.496392782106199
42
-0.41421354667703408
10
-15.774999999999899
20
72.246392741913922
0
LWPOLYLINE
5
161
100
AcDbEntity
8
0
100
AcDbPolyline
90
8
70
1
43
0.0
10
-231.34375000000006
20
92.796392741913905
10
-225.84375
20
92.796392741913905
42
-0.41421356237312978
10
-225.09375000000006
20
92.046392741913934
10
-225.09375000000006
20
75.846392741913917
42
-0.41421356237309159
10
-225.84375
20
75.096392741913903
10
-231.34375000000006
20
75.096392741913917
42
-0.41421356237303958
10
-232.09375
20
75.846392741913917
10
-232.09375
20
92.046392741913934
42
-0.4142135623730534
0
LWPOLYLINE
5
162
100
AcDbEntity
8
0
100
AcDbPolyline
90
8
70
1
43
0.0
10
-197.78750000000002
20
39.946392741913797
42
-0.41421356237306034
10
-198.53750000000005
20
39.196392741913861
10
-211.03750007981205
20
39.196392741913812
42
-0.41421353120456489
10
-211.78750000000002
20
39.946392741913797
10
-211.78750000000008
20
52.446392741913797
42
-0.41421356237311585
10
-211.03749999999997
20
53.196392741913883
10
-198.53750000000002
20
53.19639274191389
42
-0.41421356237303258
10
-197.78750000000002
20
52.446392741913897
0
LWPOLYLINE
5
163
100
AcDbEntity
8
0
100
AcDbPolyline
90
8
70
1
43
0.0
10
-15.774999999999899
20
34.146392741913807
10
-3.2749999999999013
20
34.146392741913807
42
-0.41421356237309354
10
-2.5249999999998902
20
33.3963927419138
10
-2.5249999999998973
20
20.896392662102109
42
-0.4142135312046919
10
-3.2749999999999
20
20.146392741913811
10
-15.774999999999899
20
20.146392741913811
42
-0.41421356237309159
10
-16.524999999999899
20
20.896392741913804
10
-16.524999999999906
20
33.3963927419138
42
-0.41421356237308898
0
LWPOLYLINE
5
164
100
AcDbEntity
8
0
100
AcDbPolyline
90
8
70
1
43
0.0
10
-304.65625000000006
20
71.496392821725479
42
-0.41421353120468973
10
-303.90625
20
72.246392741913866
10
-291.40625
20
72.246392741913894
42
-0.41421356237309503
10
-290.65625
20
71.496392741913894
10
-290.65625
20
58.996392741913901
42
-0.41421356237309503
10
-291.40625
20
58.246392741913908
10
-303.90625
20
58.246392741913873
42
-0.41421356237311241
10
-304.65625
20
58.996392741913901
0
LINE
5
165
100
AcDbEntity
8
0
100
AcDbLine
10
-330.10000000000002
20
91.29639274191382
30
-1.0269562977782698e-14
11
-317.59999995980809
21
91.296392741913849
31
-2.2254136783361744e-07
0
LWPOLYLINE
5
166
100
AcDbEntity
8
0
100
AcDbPolyline
90
8
70
1
43
0.0
10
-77.093749999999915
20
91.296392741913792
42
-0.41421357806917963
10
-76.343749999999886
20
90.546392701721487
10
-76.343749999999901
20
78.046392741913792
42
-0.41421356237309853
10
-77.093749999999915
20
77.29639274191382
10
-89.5937500798115
20
77.29639274191382
42
-0.41421353120472787
10
-90.343749999999886
20
78.046392741913792
10
-90.343749999999943
20
90.546392741913792
42
-0.41421356237310897
10
-89.593749999999915
20
91.29639274191382
0
LWPOLYLINE
5
167
100
AcDbEntity
8
0
100
AcDbPolyline
90
8
70
1
43
0.0
10
-16.524999999999899
20
1.8463927419138402
10
-16.524999999999899
20
14.346392807079802
42
-0.41421353692418611
10
-15.774999999999899
20
15.096392741913807
10
-3.2749999999998902
20
15.09639274191378
42
-0.41421356237309503
10
-2.5249999999999102
20
14.3463927419138
10
-2.5249999999998982
20
1.8463927419138293
42
-0.4142135623730947
10
-3.2749999999999
20
1.096392741913828
10
-15.774999999999899
20
1.0963927419138306
42
-0.41421356237309798
0
ARC
5
168
100
AcDbEntity
8
0
100
AcDbCircle
10
-317.60000000000002
20
90.546392741913905
30
-1.0269562977782698e-14
40
0.74999999999995737
210
0
220
0
230
1
100
AcDbArc
50
0
51
89.999996929562329
0
LINE
5
169
100
AcDbEntity
8
0
100
AcDbLine
10
-316.85000000000008
20
90.546392741913905
30
-1.0269562977782698e-14
11
-316.85000000000002
21
78.046392741913792
31
-1.8985097716139879e-07
0
LINE
5
170
100
AcDbEntity
8
0
100
AcDbLine
10
-330.85000000000014
20
78.046392741913905
30
-1.0269562977782698e-14
11
-330.85000000000002
21
90.546392741913792
31
-2.2069096911048194e-07
0
LINE
5
171
100
AcDbEntity
8
0
100
AcDbLine
10
-317.60000000000002
20
77.29639274191382
30
-1.8800057816070748e-07
11
-330.10000000000002
21
77.296392741913792
31
-1.8800057816070748e-07
0
ARC
5
172
100
AcDbEntity
8
0
100
AcDbCircle
10
-317.60000000000002
20
78.046392741911376
30
-1.9563688220049261e-05
40
0.75000000000000755
210
0
220
-2.5066742385485384e-07
230
0.99999999999996869
100
AcDbArc
50
270
51
359.99998551098076
0
ARC
5
173
100
AcDbEntity
8
0
100
AcDbCircle
10
-330.10000000000002
20
90.546392741913721
30
-1.0269562977782698e-14
40
0.75000000000009948
210
0
220
-0
230
1
100
AcDbArc
50
90
51
179.99998313932144
0
ARC
5
174
100
AcDbEntity
8
0
100
AcDbCircle
10
-330.10000000000002
20
78.046392741913905
30
-1.0269562977782698e-14
40
0.75000000000009948
210
0
220
0
230
1
100
AcDbArc
50
180
51
270
0
LWPOLYLINE
5
175
100
AcDbEntity
8
0
100
AcDbPolyline
90
8
70
1
43
0.0
10
-336.64999992018801
20
34.146392741913829
42
-0.41421353120461513
10
-335.89999999999998
20
33.3963927419138
10
-335.89999999999998
20
20.896392741913804
42
-0.41421356237310375
10
-336.64999999999998
20
20.146392741913871
10
-349.150000079812
20
20.146392741913775
42
-0.41421353120465504
10
-349.90000000000009
20
20.896392741913804
10
-349.90000000000009
20
33.3963927419138
42
-0.41421356237311241
10
-349.14999999999998
20
34.146392741913807
0
LWPOLYLINE
5
176
100
AcDbEntity
8
0
100
AcDbPolyline
90
8
70
1
43
0.0
10
-140.34999999999999
20
14.346392782106205
42
-0.41421354667697863
10
-139.60000000000002
20
15.096392741913798
10
-127.10000000000001
20
15.09639274191381
42
-0.4142135623731254
10
-126.34999999999999
20
14.346392741913805
10
-126.35000000000005
20
1.8463927419138293
42
-0.41421356237309853
10
-127.10000000000002
20
1.0963927419138455
10
-139.60000000000002
20
1.0963927419138353
42
-0.41421356237314166
10
-140.34999999999999
20
1.8463927419138304
0
LWPOLYLINE
5
177
100
AcDbEntity
8
0
100
AcDbPolyline
90
8
70
1
43
0.0
10
-153.88749999999999
20
39.196392741913812
42
-0.41421356237308293
10
-154.63749999999999
20
39.946392741913797
10
-154.63750000000005
20
52.446392741913897
42
-0.4142135623730534
10
-153.88749999999999
20
53.196392741913826
10
-141.387499959808
20
53.196392741913812
42
-0.41421354667712856
10
-140.63749999999999
20
52.446392741913797
10
-140.6375000000001
20
39.946392741913797
42
-0.41421356237309853
10
-141.38750000000002
20
39.19639274191389
0
LWPOLYLINE
5
178
100
AcDbEntity
8
0
100
AcDbPolyline
90
8
70
1
43
0.0
10
-165.19999999999999
20
15.096392741913792
42
-0.41421356237303608
10
-164.44999999999999
20
14.3463927419138
10
-164.44999999999996
20
1.8463927419138693
42
-0.41421356237309809
10
-165.19999999999999
20
1.0963927419138331
10
-177.70000007981201
20
1.0963927419138415
42
-0.41421353120455812
10
-178.44999999999999
20
1.8463927419138304
10
-178.45000000000005
20
14.3463927419138
42
-0.41421356237305779
10
-177.69999999999999
20
15.09639274191384
0
LWPOLYLINE
5
179
100
AcDbEntity
8
0
100
AcDbPolyline
90
8
70
1
43
0.0
10
-145.11250000000001
20
58.996392741913901
10
-145.11250000000001
20
71.496392741913894
42
-0.41421356237306733
10
-144.36250000000001
20
72.246392741913766
10
-131.86250000000001
20
72.246392741913866
42
-0.41421356237309503
10
-131.11250000000007
20
71.496392741913894
10
-131.11250000000001
20
58.996392741913901
42
-0.41421356237309159
10
-131.86250000000001
20
58.246392741913915
10
-144.36250000000001
20
58.246392741913901
42
-0.41421356237309503
0
LWPOLYLINE
5
180
100
AcDbEntity
8
0
100
AcDbPolyline
90
8
70
1
43
0.0
10
-71.293749999999875
20
52.446392741913797
42
-0.41421356237313323
10
-70.543749999999903
20
53.19639274191389
10
-53.281249999999893
20
53.196392741913897
42
-0.41421359376527128
10
-52.531249999999901
20
52.446392661529217
10
-52.531249999999908
20
39.946392741913797
42
-0.41421356237309159
10
-53.281249999999893
20
39.196392741913812
10
-70.543749999999903
20
39.196392741913897
42
-0.41421356237311063
10
-71.293749999999903
20
39.946392741913897
0
LWPOLYLINE
5
181
100
AcDbEntity
8
0
100
AcDbPolyline
90
8
70
1
43
0.0
10
-88.249999999999943
20
1.8463927419138004
42
-0.41421356237308965
10
-88.999999999999901
20
1.0963927419138215
10
-101.5
20
1.0963927419138095
42
-0.41421356237309437
10
-102.25000000000001
20
1.8463927419138304
10
-102.25000000000001
20
14.346392741913805
42
-0.41421357806905562
10
-101.49999995980801
20
15.096392741913807
10
-88.999999920188188
20
15.096392741913807
42
-0.41421353120469756
10
-88.249999999999872
20
14.3463927419138
0
LWPOLYLINE
5
182
100
AcDbEntity
8
0
100
AcDbPolyline
90
8
70
1
43
0.0
10
-50.149999999999906
20
1.8463927419138293
42
-0.4142135623730927
10
-50.899999999999892
20
1.0963927419138337
10
-63.399999999999892
20
1.0963927419138284
42
-0.4142135623730942
10
-64.149999999999906
20
1.8463927419138304
10
-64.149999999999906
20
14.346392741913805
42
-0.41421356237309243
10
-63.399999999999892
20
15.0963927419138
10
-50.899999999999892
20
15.096392741913807
42
-0.4142135623730942
10
-50.149999999999899
20
14.3463927419138
0
LWPOLYLINE
5
183
100
AcDbEntity
8
0
100
AcDbPolyline
90
32
70
1
43
0.0
10
-299.63700000000006
20
17.096392741913828
42
-0.41421356237313234
10
-298.887
20
16.3463927419138
10
-298.887
20
15.0963927419138
10
-298.55000000000007
20
15.096392741913828
42
-0.41421356237313234
10
-297.80000000000001
20
14.3463927419138
10
-297.80000000000007
20
1.8463927017214909
42
-0.41421354667698512
10
-298.55000000000007
20
1.0963927419138297
10
-298.887
20
1.09639274191383
10
-298.88699999999994
20
-0.153607258086048
42
-0.41421356237310497
10
-299.63700000000006
20
-0.90360725808611209
10
-305.137
20
-0.90360725808607145
42
-0.41421356237306689
10
-305.88699999999994
20
-0.15360725808618506
10
-305.88700000000006
20
1.09639274191383
10
-322.76299999999998
20
1.09639274191383
10
-322.76299999999998
20
-0.15360725808600997
42
-0.41421356237310819
10
-323.51300000000009
20
-0.90360725808600095
10
-329.01299999999998
20
-0.90360725808603326
42
-0.41421356237300416
10
-329.76300000000009
20
-0.15360725808603101
10
-329.76300000000009
20
1.09639274191383
10
-330.10000000000002
20
1.0963927419138209
42
-0.4142135623730957
10
-330.85000000000014
20
1.8463927419139203
10
-330.85000000000014
20
14.346392806114201
42
-0.41421353730120825
10
-330.10000000000002
20
15.096392741913895
10
-329.76300000000009
20
15.096392741913842
10
-329.76299999999992
20
16.3463927419138
42
-0.41421356237311502
10
-329.01299999999998
20
17.09639274191381
10
-323.51300000000009
20
17.096392741913828
42
-0.41421356237314017
10
-322.76299999999998
20
16.346392741913899
10
-322.76299999999998
20
15.0963927419138
10
-305.88700000000006
20
15.0963927419138
10
-305.88699999999994
20
16.3463927419138
42
-0.41421356237306295
10
-305.137
20
17.096392741913753
0
LWPOLYLINE
5
184
100
AcDbEntity
8
0
100
AcDbPolyline
90
8
70
1
43
0.0
10
-235.60000000000002
20
14.346392741913805
42
-0.41421356237312362
10
-234.84999999999999
20
15.096392741913835
10
-222.34999999999999
20
15.096392741913792
42
-0.41421356237309503
10
-221.59999999999999
20
14.3463927419138
10
-221.59999999999999
20
1.8463927419138293
42
-0.41421356237309515
10
-222.34999999999999
20
1.0963927419138362
10
-234.84999999999999
20
1.0963927419138717
42
-0.41421356237306428
10
-235.60000000000002
20
1.8463927419138304
0
LWPOLYLINE
5
185
100
AcDbEntity
8
0
100
AcDbPolyline
90
8
70
1
43
0.0
10
-302.27499999999998
20
20.896392741913804
10
-302.27499999999998
20
33.3963927419138
42
-0.41421356237309681
10
-301.52499999999998
20
34.1463927419138
10
-289.02499999999998
20
34.146392741913829
42
-0.41421356237307255
10
-288.27499999999998
20
33.3963927419138
10
-288.27499999999998
20
20.896392701721496
42
-0.41421354667703669
10
-289.02499999999998
20
20.1463927419138
10
-301.52500004019208
20
20.146392741913907
42
-0.41421354667709737
0
LWPOLYLINE
5
186
100
AcDbEntity
8
0
100
AcDbPolyline
90
8
70
1
43
0.0
10
-254.93750000000009
20
52.446392741913897
10
-254.93750000000006
20
39.9463927017215
42
-0.41421354667701765
10
-255.6875
20
39.196392741913797
10
-268.1875
20
39.196392741913812
42
-0.41421356237316787
10
-268.9375
20
39.946392741913797
10
-268.9375
20
52.446392741913897
42
-0.41421356237309853
10
-268.1875
20
53.196392741913897
10
-255.68750000000009
20
53.196392741913868
42
-0.41421356237311241
0
LWPOLYLINE
5
187
100
AcDbEntity
8
0
100
AcDbPolyline
90
8
70
1
43
0.0
10
-274.73750000000001
20
39.196392741913797
10
-287.23750000000007
20
39.196392741913812
42
-0.41421356237306384
10
-287.98750000000001
20
39.946392741913797
10
-287.98750000000001
20
52.446392741913897
42
-0.41421356237309853
10
-287.23750000000001
20
53.19639274191389
10
-274.73750000000007
20
53.19639274191389
42
-0.41421356237309503
10
-273.98750000000001
20
52.446392741913897
10
-273.98750000000001
20
39.946392741913797
42
-0.41421356237309503
0
LWPOLYLINE
5
188
100
AcDbEntity
8
0
100
AcDbPolyline
90
8
70
1
43
0.0
10
-145.40000000000001
20
14.3463927419138
10
-145.40000000000003
20
1.8463927419138293
42
-0.4142135623730866
10
-146.15000000000003
20
1.09639274191383
10
-158.650000079812
20
1.0963927419138415
42
-0.41421353120455812
10
-159.40000000000001
20
1.8463927419138304
10
-159.40000000000001
20
14.346392741913805
42
-0.41421356237314799
10
-158.65000000000003
20
15.096392741913881
10
-146.15000000000003
20
15.09639274191381
42
-0.41421356237311413
0
LWPOLYLINE
5
189
100
AcDbEntity
8
0
100
AcDbPolyline
90
8
70
1
43
0.0
10
-184.25
20
1.09639274191383
10
-196.75000007981203
20
1.0963927419138415
42
-0.41421353120455745
10
-197.5
20
1.8463927419138304
10
-197.50000000000003
20
14.3463927419138
42
-0.4142135623730846
10
-196.75
20
15.096392741913874
10
-184.24999992018797
20
15.096392741913787
42
-0.41421353120457871
10
-183.5
20
14.3463927419138
10
-183.5
20
1.8463927419138293
42
-0.41421356237307383
0
LWPOLYLINE
5
190
100
AcDbEntity
8
0
100
AcDbPolyline
90
8
70
1
43
0.0
10
-272.95000000000005
20
15.09639274191386
10
-260.45000000000005
20
15.096392741913867
42
-0.41421356237316265
10
-259.69999999999999
20
14.3463927419137
10
-259.70000000000005
20
1.8463927017214909
42
-0.41421354667700727
10
-260.45000000000005
20
1.09639274191383
10
-272.95000000000005
20
1.0963927419138473
42
-0.4142135623731148
10
-273.69999999999999
20
1.8463927419138402
10
-273.69999999999999
20
14.346392741913805
42
-0.4142135623731098
0
LWPOLYLINE
5
191
100
AcDbEntity
8
0
100
AcDbPolyline
90
8
70
1
43
0.0
10
-92.724999999999923
20
20.896392741913804
10
-92.724999999999923
20
33.3963927419138
42
-0.41421356237308815
10
-91.974999999999881
20
34.146392741913829
10
-79.474999999999895
20
34.146392741913807
42
-0.41421356237310375
10
-78.724999999999895
20
33.3963927419138
10
-78.724999999999895
20
20.896392741913804
42
-0.41421356237309681
10
-79.474999999999909
20
20.146392741913807
10
-91.974999999999881
20
20.146392741913797
42
-0.41421356237309331
0
LWPOLYLINE
5
192
100
AcDbEntity
8
0
100
AcDbPolyline
90
8
70
1
43
0.0
10
-107.30000000000001
20
14.3463927419138
10
-107.30000000000004
20
1.8463926621021298
42
-0.41421353120470727
10
-108.05
20
1.0963927419138182
10
-120.55000007981199
20
1.0963927419138328
42
-0.41421354690067363
10
-121.29999999999998
20
1.8463927821061801
10
-121.30000000000001
20
14.3463928217255
42
-0.4142135469006144
10
-120.54999995980802
20
15.096392741913808
10
-108.05
20
15.096392741913792
42
-0.4142135623730846
0
LWPOLYLINE
5
193
100
AcDbEntity
8
0
100
AcDbPolyline
90
8
70
1
43
0.0
10
-225.32499999999999
20
34.1463927419138
10
-212.82499999999999
20
34.146392741913793
42
-0.41421356237309503
10
-212.07499999999999
20
33.3963927419138
10
-212.07499999999999
20
20.896392741913804
42
-0.41421356237309503
10
-212.82499999999999
20
20.146392741913811
10
-225.32499999999999
20
20.146392741913846
42
-0.41421359376529032
10
-226.07499999999999
20
20.896392822298498
10
-226.07500000000002
20
33.3963927419139
42
-0.41421356237307422
0
LWPOLYLINE
5
194
100
AcDbEntity
8
0
100
AcDbPolyline
90
8
70
1
43
0.0
10
-245.12500000000003
20
20.896392822298498
10
-245.12500000000003
20
33.3963927419139
42
-0.41421356237307599
10
-244.375
20
34.146392741913793
10
-231.875
20
34.146392741913793
42
-0.41421356237309503
10
-231.125
20
33.3963927419138
10
-231.125
20
20.896392741913804
42
-0.41421356237309503
10
-231.875
20
20.146392741913811
10
-244.375
20
20.146392741913765
42
-0.41421359376529382
0
LWPOLYLINE
5
195
100
AcDbEntity
8
0
100
AcDbPolyline
90
8
70
1
43
0.0
10
-160.4375
20
53.196392741913868
42
-0.41421356237303608
10
-159.68749999999994
20
52.446392741913897
10
-159.68750000000003
20
39.946392741913797
42
-0.41421356237309681
10
-160.4375
20
39.19639274191384
10
-172.9375
20
39.196392741913769
42
-0.41421356237310025
10
-173.68750000000003
20
39.946392741913797
10
-173.68750000000003
20
52.446392741913897
42
-0.41421356237309503
10
-172.9375
20
53.196392741913925
0
LWPOLYLINE
5
196
100
AcDbEntity
8
0
100
AcDbPolyline
90
8
70
1
43
0.0
10
-169.962500040192
20
58.246392741913873
10
-182.462500040192
20
58.246392741913873
42
-0.41421354667712856
10
-183.21250000000003
20
58.996392741913901
10
-183.21250000000006
20
71.496392741913894
42
-0.41421356237304652
10
-182.46250000000001
20
72.246392741913908
10
-169.96250000000001
20
72.246392741913894
42
-0.41421356237303608
10
-169.21250000000001
20
71.496392741913894
10
-169.21249999999998
20
58.996392741913901
42
-0.4142135780690166
0
LWPOLYLINE
5
197
100
AcDbEntity
8
0
100
AcDbPolyline
90
8
70
1
43
0.0
10
-246.16250000000002
20
72.246392741913866
42
-0.41421356237304302
10
-245.41250000000005
20
71.496392741913894
10
-245.41250000000002
20
58.996392741913901
42
-0.41421356237309503
10
-246.16250000000002
20
58.246392741913908
10
-258.66250004019201
20
58.246392741913844
42
-0.41421354667721877
10
-259.41250000000014
20
58.996392741914008
10
-259.41250000000002
20
71.496392741913894
42
-0.41421356237309853
10
-258.66250000000002
20
72.246392741913894
0
LWPOLYLINE
5
198
100
AcDbEntity
8
0
100
AcDbPolyline
90
8
70
1
43
0.0
10
-335.89999999999998
20
71.496392741913894
10
-335.89999999999998
20
58.996392741913901
42
-0.41421356237308815
10
-336.64999999999998
20
58.246392741913894
10
-349.14999999999998
20
58.246392741913802
42
-0.41421356237297369
10
-349.90000000000009
20
58.996392741913901
10
-349.90000000000009
20
71.496392741913894
42
-0.41421359376528516
10
-349.14999991961508
20
72.246392741913823
10
-336.64999999999998
20
72.246392741913809
42
-0.41421356237310197
0
LWPOLYLINE
5
199
100
AcDbEntity
8
0
100
AcDbPolyline
90
8
70
1
43
0.0
10
-35.574999999999903
20
1.8463927419138402
10
-35.574999999999903
20
14.346392741913805
42
-0.41421356237309159
10
-34.824999999999903
20
15.096392741913798
10
-22.324999999999907
20
15.096392741913807
42
-0.41421356237309159
10
-21.5749999999999
20
14.3463927419138
10
-21.574999999999903
20
1.8463927419138293
42
-0.41421356237309287
10
-22.324999999999907
20
1.0963927419138333
10
-34.824999999999903
20
1.0963927419138428
42
-0.41421356237310253
0
LWPOLYLINE
5
200
100
AcDbEntity
8
0
100
AcDbPolyline
90
8
70
1
43
0.0
10
-34.824999999999903
20
53.19639274191389
10
-22.324999999999907
20
53.19639274191389
42
-0.41421356237309331
10
-21.574999999999914
20
52.44639274191389
10
-21.574999999999903
20
39.94639274191379
42
-0.41421356237309503
10
-22.324999999999907
20
39.196392741913812
10
-34.824999999999903
20
39.196392741913797
42
-0.41421356237310542
10
-35.574999999999896
20
39.946392741913797
10
-35.574999999999903
20
52.446392741913897
42
-0.41421356237310197
0
LWPOLYLINE
5
201
100
AcDbEntity
8
0
100
AcDbPolyline
90
8
70
1
43
0.0
10
-97.48749999999994
20
39.946392741913897
10
-97.487499999999869
20
52.446392741913897
42
-0.41421356237310542
10
-96.737499999999912
20
53.196392741913883
10
-84.237499999999898
20
53.19639274191389
42
-0.41421357806921083
10
-83.487499999999898
20
52.446392701721507
10
-83.487499999999869
20
39.946392741913797
42
-0.41421356237308293
10
-84.237499999999898
20
39.196392741913805
10
-96.737499999999926
20
39.196392741913868
42
-0.41421356237308815
0
LWPOLYLINE
5
202
100
AcDbEntity
8
0
100
AcDbPolyline
90
8
70
1
43
0.0
10
-107.01250000000002
20
71.496392782106199
42
-0.41421354667702803
10
-106.26250000000002
20
72.246392741913937
10
-93.762499999999903
20
72.246392741913922
42
-0.41421356237306034
10
-93.012499999999989
20
71.496392741913894
10
-93.012499999999932
20
58.996392701721504
42
-0.41421354667703841
10
-93.762499999999903
20
58.24639274191383
10
-106.2625
20
58.246392741913901
42
-0.41421356237309853
10
-107.01250000000003
20
58.996392741913901
0
LWPOLYLINE
5
203
100
AcDbEntity
8
0
100
AcDbPolyline
90
8
70
1
43
0.0
10
-131.33750000000001
20
92.796392741913948
10
-125.83749995980804
20
92.796392741914019
42
-0.41421354667713212
10
-125.08749999999992
20
92.046392741913934
10
-125.08750000000013
20
75.846392741914002
42
-0.41421356237312623
10
-125.83750000000002
20
75.096392741914002
10
-131.33749999999799
20
75.096392741913917
42
-0.41421356237306034
10
-132.08749999999799
20
75.846392741913789
10
-132.08750000000006
20
92.046392741913792
42
-0.41421356237315748
0
LWPOLYLINE
5
204
100
AcDbEntity
8
0
100
AcDbPolyline
90
8
70
1
43
0.0
10
-22.324999999999907
20
77.29639274191382
10
-34.825000079811602
20
77.296392741913792
42
-0.41421353120467935
10
-35.57499999999991
20
78.046392741913792
10
-35.574999999999925
20
90.546392741913792
42
-0.4142135623730846
10
-34.824999999999903
20
91.29639274191382
10
-22.324999999999907
20
91.296392741913792
42
-0.41421356237310197
10
-21.5749999999999
20
90.546392741913792
10
-21.574999999999914
20
78.046392741913792
42
-0.41421356237310025
0
LWPOLYLINE
5
205
100
AcDbEntity
8
0
100
AcDbPolyline
90
8
70
1
43
0.0
10
-264.17500000000007
20
33.3963927419138
42
-0.41421356237312801
10
-263.42500000000001
20
34.146392741913772
10
-250.92500000000001
20
34.146392741913793
42
-0.41421356237309503
10
-250.17500000000001
20
33.3963927419138
10
-250.17500000000001
20
20.896392741913804
42
-0.41421356237309503
10
-250.92500000000001
20
20.1463927419138
10
-263.42500000000001
20
20.146392741913871
42
-0.41421356237303608
10
-264.17500000000007
20
20.896392741913804
0
LWPOLYLINE
5
206
100
AcDbEntity
8
0
100
AcDbPolyline
90
8
70
1
43
0.0
10
-349.90000000000009
20
1.8463927821061801
10
-349.90000000000009
20
14.346392741913805
42
-0.4142135623730942
10
-349.14999999999998
20
15.0963927419138
10
-336.64999999999998
20
15.096392741913755
42
-0.41421356237320867
10
-335.90000000000003
20
14.3463927419138
10
-335.89999999999998
20
1.8463927419138293
42
-0.41421356237308432
10
-336.64999999999998
20
1.0963927419138284
10
-349.150000079812
20
1.0963927419138253
42
-0.41421354690066609
0
ENDSEC
0
SECTION
2
OBJECTS
0
DICTIONARY
5
C
100
AcDbDictionary
3
ACAD_GROUP
350
D
3
ACAD_MLINESTYLE
350
17
0
DICTIONARY
5
D
100
AcDbDictionary
0
DICTIONARY
5
1A
330
C
100
AcDbDictionary
0
DICTIONARY
5
17
100
AcDbDictionary
0
ENDSEC
0
EOF
