0
SECTION
2
HEADER
9
$INSUNITS
70
4
9
$ACADVER
1
AC1014
9
$HANDSEED
5
FFFF
0
ENDSEC
0
SECTION
2
TABLES
0
TABLE
2
VPORT
5
8
100
AcDbSymbolTable
0
ENDTAB
0
TABLE
2
LTYPE
5
5
100
AcDbSymbolTable
0
LTYPE
5
14
100
AcDbSymbolTableRecord
100
AcDbLinetypeTableRecord
2
BYBLOCK
70
0
0
LTYPE
5
15
100
AcDbSymbolTableRecord
100
AcDbLinetypeTableRecord
2
BYLAYER
70
0
0
ENDTAB
0
TABLE
2
LAYER
5
2
100
AcDbSymbolTable
70
2
0
LAYER
5
50
100
AcDbSymbolTableRecord
100
AcDbLayerTableRecord
2
0
70
0
6
CONTINUOUS
0
ENDTAB
0
TABLE
2
STYLE
5
3
100
AcDbSymbolTable
70
1
0
STYLE
5
11
100
AcDbSymbolTableRecord
100
AcDbTextStyleTableRecord
2
STANDARD
70
0
0
ENDTAB
0
TABLE
2
VIEW
5
6
100
AcDbSymbolTable
70
0
0
ENDTAB
0
TABLE
2
UCS
5
7
100
AcDbSymbolTable
70
0
0
ENDTAB
0
TABLE
2
APPID
5
9
100
AcDbSymbolTable
70
2
0
APPID
5
12
100
AcDbSymbolTableRecord
100
AcDbRegAppTableRecord
2
ACAD
70
0
0
ENDTAB
0
TABLE
2
DIMSTYLE
5
A
100
AcDbSymbolTable
70
1
0
ENDTAB
0
TABLE
2
BLOCK_RECORD
5
1
100
AcDbSymbolTable
70
1
0
BLOCK_RECORD
5
1F
100
AcDbSymbolTableRecord
100
AcDbBlockTableRecord
2
*MODEL_SPACE
0
BLOCK_RECORD
5
1B
100
AcDbSymbolTableRecord
100
AcDbBlockTableRecord
2
*PAPER_SPACE
0
ENDTAB
0
ENDSEC
0
SECTION
2
BLOCKS
0
BLOCK
5
20
100
AcDbEntity
100
AcDbBlockBegin
2
*MODEL_SPACE
0
ENDBLK
5
21
100
AcDbEntity
100
AcDbBlockEnd
0
BLOCK
5
1C
100
AcDbEntity
100
AcDbBlockBegin
2
*PAPER_SPACE
0
ENDBLK
5
1D
100
AcDbEntity
100
AcDbBlockEnd
0
ENDSEC
0
SECTION
2
ENTITIES
0
LWPOLYLINE
5
100
100
AcDbEntity
8
0
100
AcDbPolyline
90
20
70
1
43
0.0
10
282.47500000000031
20
-15.089905548851963
10
282.13800000000026
20
-15.089905548851963
10
282.13800000000026
20
-16.339905548851963
42
-0.41421356237309503
10
281.38800000000026
20
-17.089905548851956
10
275.88800000000026
20
-17.089905548851956
42
-0.41421356237309503
10
275.13800000000026
20
-16.339905548851963
10
275.13800000000026
20
-15.089905548851963
10
258.26200000000028
20
-15.089905548851963
10
258.26200000000028
20
-16.339905548851963
42
-0.41421356237309503
10
257.51200000000028
20
-17.089905548851956
10
252.01200000000028
20
-17.089905548851966
42
-0.41421356237305518
10
251.26200000000026
20
-16.339905548851963
10
251.26200000000026
20
-15.089905548851965
10
250.9250000000003
20
-15.089905548851963
42
-0.41421356237309681
10
250.1750000000003
20
-14.339905548851966
10
250.1750000000003
20
-1.8399055488519611
42
-0.41421356237309531
10
250.9250000000003
20
-1.0899055488519678
10
282.47500000000031
20
-1.0899055488519629
42
-0.41421356237305496
10
283.22500000000036
20
-1.8399055488519562
10
283.22500000000036
20
-14.339905548851966
42
-0.41421356237312718
0
LWPOLYLINE
5
101
100
AcDbEntity
8
0
100
AcDbPolyline
90
8
70
1
43
0.0
10
82.225000000000236
20
-77.07029004282758
10
82.225000000000236
20
-90.570290042827622
42
0.41421356237310197
10
82.975000000000222
20
-91.320290042827594
10
88.475000000000222
20
-91.320290042827594
42
0.41421356237310197
10
89.225000000000207
20
-90.570290042827622
10
89.225000000000207
20
-77.07029004282758
42
0.41421356237308815
10
88.475000000000222
20
-76.32029004282758
10
82.975000000000222
20
-76.32029004282758
42
0.41421356237308815
0
LWPOLYLINE
5
102
100
AcDbEntity
8
0
100
AcDbPolyline
90
8
70
1
43
0.0
10
7.2875000000002155
20
-78.039905548852033
42
-0.4142135623730937
10
8.0375000000002181
20
-77.289905548851991
10
20.537500000000225
20
-77.289905548851991
42
-0.41421356237308982
10
21.287500000000229
20
-78.039905548852005
10
21.287500000000211
20
-90.539905548852019
42
-0.41421356237309159
10
20.537500000000225
20
-91.289905548852005
10
8.0375000000002181
20
-91.289905548852005
42
-0.41421356237308332
10
7.2875000000002181
20
-90.539905548852019
0
LWPOLYLINE
5
103
100
AcDbEntity
8
0
100
AcDbPolyline
90
8
70
1
43
0.0
10
353.39999999999657
20
-47.189902562268514
10
353.3999999999898
20
-92.789900083988073
42
-0.41421452916639412
10
351.40000000707352
20
-94.78990669273621
10
315.32500004058545
20
-94.789906692736125
42
-0.9999999833399954
10
315.32500005724546
20
-93.789906692736139
10
351.40000000000066
20
-93.78990669273621
42
0.4142150141158718
10
352.39999999998838
20
-92.789901736179004
10
352.39999999999662
20
-47.189902562268543
42
-0.99999999999999989
0
LWPOLYLINE
5
104
100
AcDbEntity
8
0
100
AcDbPolyline
90
7
70
1
43
0.0
10
313.32500005724518
20
1.4100933072640396
10
181.97500000258128
20
1.4100913449133665
42
-1.0000000105367122
10
181.9750000079566
20
2.4100952696146298
10
294.27500004928919
20
2.410093482694065
10
296.27500010705512
20
2.410097239921277
10
303.80000005039551
20
2.4100933311320167
10
313.32500004434041
20
2.410093307264038
42
-1.0000000105367122
0
LWPOLYLINE
5
105
100
AcDbEntity
8
0
100
AcDbPolyline
90
8
70
1
43
0.0
10
352.39999999999378
20
-45.189902562268507
10
352.3999999999956
20
0.41009661163801781
42
0.41421259454464276
10
351.40000000000066
20
1.4100933072644082
10
315.3250000569999
20
1.4101011491861173
42
-1.0000000210734243
10
315.32500010705536
20
2.4100933072639696
10
351.40000000000066
20
2.4100933072638968
42
-0.41421283650885438
10
353.39999999999435
20
0.41009826377635833
10
353.39999999999372
20
-45.189902562268465
42
-0.99999999999999989
0
LWPOLYLINE
5
106
100
AcDbEntity
8
0
100
AcDbPolyline
90
8
70
1
43
0.0
10
294.27500004108151
20
-94.789902386308725
10
181.97500000000053
20
-94.789901573137229
42
-0.99999999999999989
10
181.97500000000048
20
-93.789906692736182
10
313.32500005674945
20
-93.789906692736125
42
-1.0000000166600047
10
313.3250000410813
20
-94.789906692736139
10
305.80000004951353
20
-94.789902381253071
10
303.80000004951256
20
-94.789902409546002
10
296.27500004309894
20
-94.789902386308725
0
LWPOLYLINE
5
107
100
AcDbEntity
8
0
100
AcDbPolyline
90
8
70
1
43
0.0
10
0.025000000008475333
20
0.41009826382502723
10
0.025000000004469364
20
-45.189905548852053
42
-0.99999999999999989
10
-0.97499999999553588
20
-45.189905548852053
10
-0.97499999999288478
20
0.41009991601208995
42
-0.41421258933641403
10
1.0249999644360244
20
2.4100933072639967
10
37.099999896014836
20
2.4100972282250068
42
-1.0000000166600047
10
37.099999942755929
20
1.410097228225009
10
1.0250000000002979
20
1.4100933072640034
42
0.41421211063073005
0
LWPOLYLINE
5
108
100
AcDbEntity
8
0
100
AcDbPolyline
90
6
70
1
43
0.0
10
179.97500000208618
20
-93.789914937507405
42
-0.99999998174987936
10
179.97500001616436
20
-94.789898447964958
10
58.149999958919942
20
-94.789902386308768
10
56.149999956902462
20
-94.789902386308768
10
39.099999959416046
20
-94.78990669273621
42
-1.0000000166600047
10
39.099999942756035
20
-93.78990669273621
0
LWPOLYLINE
5
109
100
AcDbEntity
8
0
100
AcDbPolyline
90
4
70
1
43
0.0
10
350.90000004229375
20
-95.789901743248421
42
-0.99999997892657599
10
350.90000003536659
20
-96.789901743248393
10
243.88750005658738
20
-96.78990325709492
42
-0.99999999999999989
10
243.88750004243963
20
-95.789903257094863
0
LWPOLYLINE
5
110
100
AcDbEntity
8
0
100
AcDbPolyline
90
6
70
1
43
0.0
10
350.9000000000006
20
3.410093307263979
10
305.80000003890359
20
3.4100933072639754
10
243.88750004488159
20
3.4100942796512976
42
-0.99999998946328783
10
243.88750006058757
20
4.4100942796513376
10
305.80000003890359
20
4.4100933072639839
10
350.9000000000006
20
4.4100933072639776
42
-0.99999999999999989
0
LWPOLYLINE
5
111
100
AcDbEntity
8
0
100
AcDbPolyline
90
6
70
1
43
0.0
10
113.30000002087566
20
4.4100963306366996
42
-1.0000000105367122
10
113.3000000157064
20
3.4100963306366965
10
56.149999821817644
20
3.4100972282249953
10
1.5249998933074949
20
3.4100933428282776
42
-0.99999999999999989
10
1.5249998221789285
20
4.410093342828274
10
56.149999750689133
20
4.4100972282249966
0
LWPOLYLINE
5
112
100
AcDbEntity
8
0
100
AcDbPolyline
90
4
70
1
43
0.0
10
113.33632660937369
20
-95.789905103930053
42
-1.0000000129047841
10
113.33632663405638
20
-96.789905103930067
10
1.5249999965368133
20
-96.789906685662999
42
-0.99999998946328783
10
1.5249999929270441
20
-95.789906685663055
0
LWPOLYLINE
5
113
100
AcDbEntity
8
0
100
AcDbPolyline
90
8
70
1
43
0.0
10
197.27500000000026
20
-76.32029004282758
10
202.77500000000029
20
-76.32029004282758
42
-0.41421356237306733
10
203.52500000000026
20
-77.07029004282758
10
203.52500000000026
20
-90.570290042827594
42
-0.41421356237310197
10
202.77500000000026
20
-91.320290042827565
10
197.27500000000026
20
-91.320290042827594
42
-0.41421356237310197
10
196.52500000000029
20
-90.570290042827594
10
196.52500000000029
20
-77.07029004282758
42
-0.41421356237309853
0
LWPOLYLINE
5
114
100
AcDbEntity
8
0
100
AcDbPolyline
90
20
70
1
43
0.0
10
40.337500000000226
20
-58.989905548852015
10
40.337500000000254
20
-71.489905548852008
42
-0.41421356237310375
10
39.587500000000226
20
-72.239905548852022
10
36.869250000000228
20
-72.239905548852022
10
36.869250000000243
20
-73.489905548851979
42
-0.41421356237310542
10
36.119250000000228
20
-74.239905548851993
10
30.619250000000232
20
-74.239905548851993
42
-0.41421356237308815
10
29.869250000000228
20
-73.489905548851979
10
29.869250000000228
20
-72.239905548852022
10
12.993250000000216
20
-72.239905548852022
10
12.993250000000227
20
-73.489905548851993
42
-0.41421356237309503
10
12.243250000000216
20
-74.239905548852008
10
6.7432500000002173
20
-74.239905548851993
42
-0.41421356237308943
10
5.993250000000212
20
-73.489905548851993
10
5.9932500000002156
20
-72.239905548852022
10
5.6562500000002149
20
-72.239905548852022
42
-0.41421356237309243
10
4.9062500000002194
20
-71.489905548852008
10
4.9062500000002114
20
-58.989905548852022
42
-0.41421356237307905
10
5.6562500000002123
20
-58.239905548852008
10
39.587500000000226
20
-58.239905548851993
42
-0.41421356237309159
0
LWPOLYLINE
5
115
100
AcDbEntity
8
0
100
AcDbPolyline
90
44
70
1
43
0.0
10
281.84375000000034
20
-27.476905548851967
42
-0.41421356237312801
10
281.09375000000028
20
-28.226905548851938
10
278.46250000000026
20
-28.22690554885197
10
278.46250000000026
20
-29.664905548851962
10
280.09375000000028
20
-29.664905548851976
42
-0.41421356237303436
10
280.84375000000028
20
-30.414905548851969
10
280.84375000000028
20
-42.914905548851969
42
-0.41421356237306034
10
280.09375000000034
20
-43.664905548851976
10
279.7567500000003
20
-43.664905548851976
10
279.7567500000003
20
-45.102905548851965
10
281.09375000000028
20
-45.102905548851965
42
-0.4142135623730569
10
281.84375000000034
20
-45.852905548851972
10
281.8437500000004
20
-51.352905548851965
42
-0.41421356237306733
10
281.09375000000028
20
-52.102905548851965
10
279.7567500000003
20
-52.102905548851979
10
279.7567500000003
20
-54.439905548851975
42
-0.41421356237309503
10
279.0067500000003
20
-55.189905548851968
10
273.5067500000003
20
-55.189905548851961
42
-0.41421356237309503
10
272.7567500000003
20
-54.439905548851968
10
272.7567500000003
20
-52.102905548851979
10
271.31875000000031
20
-52.102905548851979
10
271.31875000000031
20
-52.439905548851975
42
-0.41421356237314361
10
270.56875000000042
20
-53.189905548851954
10
255.88075000000029
20
-53.189905548851975
10
255.88075000000032
20
-54.439905548851975
42
-0.41421356237310542
10
255.13075000000029
20
-55.189905548851996
10
249.63075000000032
20
-55.189905548851968
42
-0.41421356237309853
10
248.88075000000032
20
-54.439905548851975
10
248.88075000000032
20
-53.189905548851975
10
246.16250000000034
20
-53.189905548851975
42
-0.41421356237307078
10
245.41250000000034
20
-52.439905548851975
10
245.41250000000034
20
-39.939905548851975
42
-0.41421356237309503
10
246.16250000000034
20
-39.189905548851982
10
266.8437500000004
20
-39.189905548851968
10
266.8437500000004
20
-34.139905548851964
10
265.21250000000026
20
-34.139905548851964
42
-0.414213562373069
10
264.46250000000026
20
-33.389905548851964
10
264.46250000000026
20
-20.889905548851964
42
-0.41421356237309503
10
265.21250000000026
20
-20.139905548851967
10
277.71250000000026
20
-20.139905548851967
42
-0.41421356237306733
10
278.46250000000026
20
-20.889905548851964
10
278.46250000000026
20
-21.226905548851963
10
281.09375000000028
20
-21.226905548851974
42
-0.41421356237305518
10
281.84375000000034
20
-21.976905548851967
0
LWPOLYLINE
5
116
100
AcDbEntity
8
0
100
AcDbPolyline
90
8
70
1
43
0.0
10
216.83750000000029
20
-90.539905548851948
10
216.83750000000029
20
-78.039905548851962
42
-0.41421356237307422
10
217.58750000000026
20
-77.289905548851948
10
230.08750000000026
20
-77.289905548851976
42
-0.41421356237309503
10
230.83750000000026
20
-78.039905548851962
10
230.83750000000026
20
-90.539905548851948
42
-0.41421356237307422
10
230.08750000000026
20
-91.289905548851948
10
217.58750000000026
20
-91.289905548851948
42
-0.41421356237310197
0
LWPOLYLINE
5
117
100
AcDbEntity
8
0
100
AcDbPolyline
90
8
70
1
43
0.0
10
240.65000000000026
20
-90.539905548851948
42
0.41421356237311585
10
241.40000000000029
20
-91.289905548851948
10
253.90000000000029
20
-91.289905548851948
42
0.41421356237310197
10
254.65000000000029
20
-90.539905548851948
10
254.65000000000029
20
-78.039905548851962
42
0.41421356237309503
10
253.90000000000029
20
-77.289905548851976
10
241.40000000000029
20
-77.289905548851976
42
0.41421356237312978
10
240.65000000000026
20
-78.039905548851962
0
LWPOLYLINE
5
118
100
AcDbEntity
8
0
100
AcDbPolyline
90
8
70
1
43
0.0
10
37.099999946859533
20
-93.789906692736182
42
-0.99999998174987936
10
37.099999956902472
20
-94.789906692736153
10
1.0250000000002957
20
-94.78990669273621
42
-0.41421428824483869
10
-0.97499999999359344
20
-92.789901736175082
10
-0.97499999999291154
20
-47.189905548852025
42
-0.99999999999999989
10
0.025000000007098303
20
-47.189905548851989
10
0.025000000005750422
20
-92.789903388372167
42
0.41421452812755188
10
1.0249999929270737
20
-93.789906692736182
0
LWPOLYLINE
5
119
100
AcDbEntity
8
0
100
AcDbPolyline
90
4
70
1
43
0.0
10
-2.9749999999936088
20
-92.289901736175167
10
-2.9749999999976069
20
-0.089896779614218048
42
-0.99999999999999989
10
-1.9749999999834744
20
-0.089896779614357381
10
-1.9750000000081385
20
-92.289901736175409
42
-0.99999999999999989
0
LWPOLYLINE
5
120
100
AcDbEntity
8
0
100
AcDbPolyline
90
6
70
1
43
0.0
10
39.099999945336904
20
1.4100933072640018
42
-1.0000000105367122
10
39.099999950712096
20
2.4100933072640029
10
56.149999892946141
20
2.4100972282250055
10
58.149999950712143
20
2.4100972399212357
10
179.97500001290518
20
2.4100972956133115
42
-0.99999998709521587
10
179.97500000000042
20
1.4100933072639803
0
LWPOLYLINE
5
121
100
AcDbEntity
8
0
100
AcDbPolyline
90
4
70
1
43
0.0
10
241.88750005658659
20
-96.789903285387823
10
115.33632661739642
20
-96.789905075637137
42
-0.99999998174987936
10
115.33632661991032
20
-95.789905075637165
10
241.88750006068864
20
-95.789903285387879
42
-0.99999998174987936
0
LWPOLYLINE
5
122
100
AcDbEntity
8
0
100
AcDbPolyline
90
4
70
1
43
0.0
10
354.39999999998457
20
-92.289896779613684
10
354.40000000000845
20
-0.089901736174589075
42
-0.99999999999999989
10
355.39999999999458
20
-0.089901736175029834
10
355.39999999999878
20
-92.28989677961394
42
-0.99999999999999989
0
LWPOLYLINE
5
123
100
AcDbEntity
8
0
100
AcDbPolyline
90
4
70
1
43
0.0
10
115.30000003141241
20
4.4100962992250334
10
241.88750007112429
20
4.4100943110630162
42
-0.99999998709521587
10
241.88750004488145
20
3.410094311063014
10
115.30000000516964
20
3.4100962992250379
42
-0.99999998946328783
0
LWPOLYLINE
5
124
100
AcDbEntity
8
0
100
AcDbPolyline
90
8
70
1
43
0.0
10
349.1500000000002
20
-91.289905548851934
10
336.65000000000026
20
-91.289905548852005
42
-0.41421356237315055
10
335.90000000000026
20
-90.539905548851948
10
335.90000000000026
20
-78.039905548851962
42
-0.41421356237308815
10
336.65000000000026
20
-77.289905548851934
10
349.1500000000002
20
-77.28990554885192
42
-0.41421356237312623
10
349.90000000000032
20
-78.039905548851934
10
349.90000000000015
20
-90.539905548851948
42
-0.41421356237312279
0
LWPOLYLINE
5
125
100
AcDbEntity
8
0
100
AcDbPolyline
90
54
70
1
43
0.0
10
-4.9749999999996906
20
-51.838635420258186
10
-4.9749999999997225
20
-95.616972370034418
42
0.4142136551996467
10
-0.97499873228097345
20
-99.616972370034219
10
10.049999998433099
20
-99.616968875884396
10
13.846125459516001
20
-99.616968894076606
42
-0.30583361624479599
10
15.700776379722097
20
-100.86845732960113
42
0.73693263103265094
10
22.399225012412639
20
-100.86845736720446
42
-0.30583525788897403
10
24.253874542571911
20
-99.616971957122743
10
112.52112562129632
20
-99.616969366948211
42
-0.30583359232978108
10
114.37577647602551
20
-100.86845764023614
42
0.7369325472069771
10
121.07422487452494
20
-100.86845778088495
42
-0.30583524916368154
10
122.92887438079134
20
-99.616972429990938
10
248.19612584373832
20
-99.616970017131649
42
-0.30583355944830848
10
250.05077660843997
20
-100.86845806735136
42
0.73693244881600728
10
256.7492247421082
20
-100.86845820799724
42
-0.30583521627498711
10
258.60387415834936
20
-99.616973080160619
10
328.17112597485936
20
-99.616970400388922
42
-0.30583354006646901
10
330.02577668649502
20
-100.86845831912142
42
0.73693239081783779
10
336.72422466405203
20
-100.86845845976515
42
-0.30583519689006383
10
338.57887402722838
20
-99.6169734634138
10
342.37500006627039
20
-99.616970468456145
10
353.39999943813035
20
-99.616972017109703
42
0.41421360351508812
10
357.40000000000015
20
-95.61697201710993
10
357.40000000000032
20
-51.842810238733904
42
-0.33309552631111178
10
359.10251051268637
20
-49.570770576325501
42
0.74933133468317892
10
359.10251051268637
20
-42.852451125112118
42
-0.33309552631111156
10
357.4000000000002
20
-40.580411462703694
10
357.39999969059232
20
3.1937589159427899
42
0.41421356475137822
10
353.39999996752044
20
7.1937586065350541
10
341.07887340389738
20
7.1937588931408181
42
-0.30583604605244424
10
339.2242158225921
20
8.4452638006231204
42
0.73692684224102978
10
332.52578277104197
20
8.445263793091689
42
-0.30583768811720541
10
330.6711265969364
20
7.1937618879199539
10
281.42887344166536
20
7.1937587827504812
42
-0.30583605163498084
10
279.57421584507642
20
8.44526372810199
42
0.73692684989206803
10
272.87578284218387
20
8.4452637712384249
42
-0.30583751510802532
10
271.02112655916238
20
7.1937614571431352
10
181.41637350197232
20
7.1937585976637539
42
-0.30583605624380217
10
179.56171589276519
20
8.4452635742804798
42
0.7369268821150754
10
172.86328274245938
20
8.4452636697879235
42
-0.30583771349238315
10
171.00862649886037
20
7.1937615924390403
10
90.928873562278923
20
7.1937584302043645
42
-0.30583604917015134
10
89.074215913267068
20
8.4452635081521148
42
0.73692691095616358
10
82.375782676758931
20
8.4452634889769875
42
-0.30583771153015882
10
80.521126438553026
20
7.193761424988204
10
24.253873604494018
20
7.1937583068132414
42
-0.30583607570360716
10
22.399215942008318
20
8.4452634154473216
42
0.73692693097042983
10
15.700782651627636
20
8.4452634079180342
42
-0.30583771777136293
10
13.846126396337509
20
7.1937613015992774
10
-0.97500000740223802
20
7.193758260123837
42
0.41421356183105668
10
-4.9749999999997288
20
3.1937582601238046
10
-4.9749999999996843
20
-40.584587291142356
42
-0.33329327762866218
10
-6.6751186627231851
20
-42.851752708858335
42
0.74988734806844137
10
-6.6751186627231842
20
-49.571470002542206
42
-0.33329327762866251
0
LWPOLYLINE
5
126
100
AcDbEntity
8
0
100
AcDbPolyline
90
8
70
1
43
0.0
10
297.80000000000041
20
-90.539905548851948
10
297.80000000000041
20
-78.039905548851962
42
-0.41421356237308815
10
298.5500000000003
20
-77.289905548851976
10
311.0500000000003
20
-77.289905548851976
42
-0.41421356237316787
10
311.8000000000003
20
-78.039905548851962
10
311.8000000000003
20
-90.539905548851948
42
-0.41421356237309503
10
311.0500000000003
20
-91.289905548851934
10
298.5500000000003
20
-91.289905548851934
42
-0.4142135623730534
0
LWPOLYLINE
5
127
100
AcDbEntity
8
0
100
AcDbPolyline
90
8
70
1
43
0.0
10
265.21250000000026
20
-77.289905548851976
10
277.71250000000026
20
-77.289905548851976
42
-0.41421356237303608
10
278.46250000000026
20
-78.039905548851962
10
278.46250000000026
20
-90.539905548851948
42
-0.41421356237309503
10
277.71250000000026
20
-91.289905548851948
10
265.21250000000026
20
-91.289905548851948
42
-0.41421356237306733
10
264.46250000000026
20
-90.539905548851948
10
264.46250000000026
20
-78.039905548851962
42
-0.41421356237308815
0
LWPOLYLINE
5
128
100
AcDbEntity
8
0
100
AcDbPolyline
90
8
70
1
43
0.0
10
135.87500000000028
20
-78.039905548852005
42
-0.41421356237310197
10
136.62500000000026
20
-77.289905548852005
10
149.12500000000026
20
-77.289905548851991
42
-0.41421356237309853
10
149.87500000000026
20
-78.039905548851962
10
149.87500000000026
20
-90.539905548852019
42
-0.41421356237308116
10
149.12500000000026
20
-91.289905548852005
10
136.62500000000026
20
-91.289905548852005
42
-0.41421356237308116
10
135.87500000000028
20
-90.539905548852019
0
LWPOLYLINE
5
129
100
AcDbEntity
8
0
100
AcDbPolyline
90
8
70
1
43
0.0
10
44.350000000000229
20
-77.289905548851991
42
-0.41421356237311241
10
45.100000000000222
20
-78.039905548852005
10
45.100000000000229
20
-90.539905548852019
42
-0.41421356237309159
10
44.350000000000236
20
-91.289905548852033
10
31.850000000000232
20
-91.289905548852047
42
-0.41421356237308116
10
31.100000000000239
20
-90.539905548852019
10
31.100000000000229
20
-78.039905548852005
42
-0.41421356237308815
10
31.850000000000232
20
-77.289905548851991
0
LWPOLYLINE
5
130
100
AcDbEntity
8
0
100
AcDbPolyline
90
8
70
1
43
0.0
10
330.85000000000036
20
-78.039905548851962
10
330.85000000000036
20
-90.539905548851948
42
-0.41421356237314361
10
330.10000000000042
20
-91.289905548851934
10
317.60000000000036
20
-91.289905548851934
42
-0.41421356237303958
10
316.85000000000036
20
-90.539905548851948
10
316.85000000000036
20
-78.039905548851962
42
-0.41421356237308815
10
317.60000000000036
20
-77.289905548851976
10
330.10000000000042
20
-77.28990554885192
42
-0.41421356237315748
0
LWPOLYLINE
5
131
100
AcDbEntity
8
0
100
AcDbPolyline
90
8
70
1
43
0.0
10
68.91250000000025
20
-90.539905548852019
42
-0.41421356237308815
10
68.162500000000236
20
-91.289905548851991
10
55.662500000000243
20
-91.289905548852047
42
-0.4142135623730846
10
54.912500000000229
20
-90.539905548852019
10
54.912500000000222
20
-78.039905548852005
42
-0.41421356237308815
10
55.662500000000222
20
-77.289905548851991
10
68.162500000000236
20
-77.289905548851991
42
-0.41421356237311241
10
68.91250000000025
20
-78.039905548852005
0
LWPOLYLINE
5
132
100
AcDbEntity
8
0
100
AcDbPolyline
90
20
70
1
43
0.0
10
243.78125000000026
20
-58.239905548851986
10
282.47500000000031
20
-58.239905548851986
42
-0.41421356237312279
10
283.22500000000036
20
-58.989905548851965
10
283.22500000000036
20
-71.489905548851993
42
-0.41421356237311935
10
282.47500000000031
20
-72.239905548851979
10
274.99425000000031
20
-72.239905548851979
10
274.99425000000031
20
-73.489905548851965
42
-0.41421356237309853
10
274.24425000000031
20
-74.239905548851965
10
268.74425000000031
20
-74.239905548851951
42
-0.41421356237316787
10
267.99425000000031
20
-73.489905548851965
10
267.99425000000031
20
-72.239905548851965
10
251.11825000000027
20
-72.239905548851979
10
251.11825000000039
20
-73.489905548851965
42
-0.41421356237311241
10
250.36825000000027
20
-74.239905548851965
10
244.86825000000027
20
-74.239905548851965
42
-0.41421356237306733
10
244.11825000000027
20
-73.489905548851965
10
244.11825000000027
20
-72.239905548851979
10
243.78125000000026
20
-72.239905548851979
42
-0.41421356237309503
10
243.03125000000026
20
-71.489905548851993
10
243.03125000000026
20
-58.989905548851986
42
-0.41421356237309503
0
LWPOLYLINE
5
133
100
AcDbEntity
8
0
100
AcDbPolyline
90
8
70
1
43
0.0
10
54.912500000000222
20
-39.939905548852003
42
-0.41421356237309681
10
55.662500000000236
20
-39.18990554885201
10
68.162500000000236
20
-39.189905548852003
42
-0.41421356237310719
10
68.91250000000025
20
-39.939905548852003
10
68.91250000000025
20
-52.43990554885201
42
-0.41421356237309853
10
68.162500000000236
20
-53.189905548852003
10
55.662500000000222
20
-53.189905548852003
42
-0.41421356237309853
10
54.912500000000222
20
-52.43990554885201
0
LWPOLYLINE
5
134
100
AcDbEntity
8
0
100
AcDbPolyline
90
8
70
1
43
0.0
10
131.11250000000024
20
-39.939905548852003
42
-0.41421356237312801
10
131.86250000000024
20
-39.189905548851996
10
144.36250000000024
20
-39.189905548852003
42
-0.41421356237310197
10
145.11250000000024
20
-39.939905548852003
10
145.11250000000024
20
-52.439905548852003
42
-0.41421356237311241
10
144.36250000000024
20
-53.189905548852003
10
131.86250000000024
20
-53.189905548852003
42
-0.41421356237308815
10
131.11250000000024
20
-52.439905548852003
0
LWPOLYLINE
5
135
100
AcDbEntity
8
0
100
AcDbPolyline
90
8
70
1
43
0.0
10
202.55000000000027
20
-33.389905548851985
10
202.55000000000027
20
-20.889905548851971
42
-0.41421356237309503
10
203.30000000000027
20
-20.139905548851978
10
215.80000000000027
20
-20.139905548851971
42
-0.41421356237305862
10
216.5500000000003
20
-20.889905548851971
10
216.5500000000003
20
-33.389905548851985
42
-0.41421356237312801
10
215.80000000000027
20
-34.139905548851978
10
203.30000000000027
20
-34.139905548851964
42
-0.41421356237316787
0
LWPOLYLINE
5
136
100
AcDbEntity
8
0
100
AcDbPolyline
90
8
70
1
43
0.0
10
83.487500000000239
20
-71.489905548852008
10
83.487500000000225
20
-58.989905548852015
42
-0.41421356237309853
10
84.237500000000239
20
-58.239905548851993
10
96.737500000000267
20
-58.239905548851993
42
-0.4142135623730846
10
97.487500000000225
20
-58.989905548851993
10
97.487500000000281
20
-71.489905548852008
42
-0.4142135623730569
10
96.737500000000267
20
-72.239905548851993
10
84.237500000000253
20
-72.239905548851979
42
-0.41421356237307771
0
LWPOLYLINE
5
137
100
AcDbEntity
8
0
100
AcDbPolyline
90
8
70
1
43
0.0
10
221.31250000000026
20
-52.439905548851975
42
-0.41421356237309503
10
220.56250000000028
20
-53.189905548851968
10
208.06250000000028
20
-53.189905548851975
42
-0.41421356237309503
10
207.31250000000028
20
-52.439905548851975
10
207.31250000000028
20
-39.939905548851975
42
-0.41421356237309331
10
208.06250000000028
20
-39.189905548851975
10
220.56250000000028
20
-39.189905548851989
42
-0.41421356237316964
10
221.31250000000026
20
-39.939905548851975
0
LWPOLYLINE
5
138
100
AcDbEntity
8
0
100
AcDbPolyline
90
8
70
1
43
0.0
10
160.43750000000028
20
-72.239905548851979
42
-0.41421356237309159
10
159.68750000000028
20
-71.489905548851993
10
159.68750000000026
20
-58.989905548851993
42
-0.41421356237309503
10
160.43750000000028
20
-58.239905548851986
10
172.93750000000028
20
-58.239905548851993
42
-0.41421356237306733
10
173.68750000000028
20
-58.989905548851993
10
173.68750000000028
20
-71.489905548851993
42
-0.41421356237308815
10
172.93750000000028
20
-72.239905548851979
0
LWPOLYLINE
5
139
100
AcDbEntity
8
0
100
AcDbPolyline
90
8
70
1
43
0.0
10
126.35000000000025
20
-33.389905548851985
42
0.41421356237307771
10
127.10000000000022
20
-34.139905548851985
10
139.60000000000022
20
-34.139905548851985
42
0.41421356237309681
10
140.35000000000022
20
-33.389905548851985
10
140.35000000000022
20
-20.889905548851978
42
0.41421356237309159
10
139.60000000000022
20
-20.139905548851974
10
127.10000000000024
20
-20.139905548851985
42
0.41421356237308637
10
126.35000000000026
20
-20.889905548851981
0
LWPOLYLINE
5
140
100
AcDbEntity
8
0
100
AcDbPolyline
90
8
70
1
43
0.0
10
111.77500000000022
20
-1.8399055488519824
10
111.77500000000022
20
-14.339905548851988
42
-0.41421356237309076
10
111.0250000000002
20
-15.089905548851988
10
98.525000000000205
20
-15.089905548851984
42
-0.41421356237309243
10
97.775000000000247
20
-14.339905548851991
10
97.775000000000247
20
-1.8399055488519833
42
-0.41421356237309093
10
98.525000000000205
20
-1.0899055488520011
10
111.0250000000002
20
-1.0899055488519891
42
-0.41421356237310147
0
LWPOLYLINE
5
141
100
AcDbEntity
8
0
100
AcDbPolyline
90
8
70
1
43
0.0
10
193.02500000000026
20
-14.339905548851974
10
193.02500000000026
20
-1.83990554885197
42
-0.41421356237309481
10
193.77500000000026
20
-1.0899055488519778
10
206.27500000000026
20
-1.0899055488519749
42
-0.41421356237305496
10
207.02500000000029
20
-1.839905548851968
10
207.02500000000029
20
-14.339905548851974
42
-0.41421356237312801
10
206.27500000000026
20
-15.089905548851945
10
193.77500000000026
20
-15.089905548851972
42
-0.41421356237309681
0
LWPOLYLINE
5
142
100
AcDbEntity
8
0
100
AcDbPolyline
90
8
70
1
43
0.0
10
50.900000000000212
20
-20.139905548851992
10
63.400000000000219
20
-20.139905548851988
42
-0.41421356237310375
10
64.150000000000219
20
-20.889905548851996
10
64.150000000000219
20
-33.389905548852006
42
-0.41421356237309681
10
63.400000000000233
20
-34.139905548851999
10
50.900000000000219
20
-34.139905548852013
42
-0.41421356237311063
10
50.150000000000219
20
-33.389905548852006
10
50.150000000000219
20
-20.889905548851996
42
-0.41421356237309503
0
LWPOLYLINE
5
143
100
AcDbEntity
8
0
100
AcDbPolyline
90
8
70
1
43
0.0
10
40.625000000000213
20
-1.8399055488519933
42
-0.41421356237309243
10
41.375000000000213
20
-1.0899055488519982
10
53.875000000000213
20
-1.0899055488519891
42
-0.41421356237309437
10
54.625000000000213
20
-1.8399055488519911
10
54.625000000000213
20
-14.339905548851995
42
-0.41421356237309159
10
53.875000000000213
20
-15.089905548851995
10
41.375000000000213
20
-15.089905548852
42
-0.41421356237310897
10
40.625000000000213
20
-14.339905548851998
0
LWPOLYLINE
5
144
100
AcDbEntity
8
0
100
AcDbPolyline
90
8
70
1
43
0.0
10
330.85000000000036
20
-71.489905548851965
42
-0.41421356237310542
10
330.10000000000042
20
-72.239905548851951
10
317.60000000000036
20
-72.239905548851965
42
-0.41421356237303258
10
316.85000000000036
20
-71.489905548851993
10
316.85000000000031
20
-58.989905548851965
42
-0.41421356237307771
10
317.60000000000036
20
-58.239905548851951
10
330.10000000000042
20
-58.239905548851929
42
-0.41421356237315404
10
330.85000000000036
20
-58.989905548851958
0
LWPOLYLINE
5
145
100
AcDbEntity
8
0
100
AcDbPolyline
90
8
70
1
43
0.0
10
21.575000000000205
20
-14.339905548852006
42
0.41421356237309503
10
22.325000000000209
20
-15.089905548852007
10
34.825000000000216
20
-15.089905548851998
42
0.41421356237309503
10
35.575000000000223
20
-14.339905548852004
10
35.575000000000216
20
-1.8399055488519944
42
0.41421356237309193
10
34.825000000000216
20
-1.089905548851992
10
22.325000000000209
20
-1.089905548851996
42
0.41421356237309159
10
21.575000000000205
20
-1.8399055488519969
0
LWPOLYLINE
5
146
100
AcDbEntity
8
0
100
AcDbPolyline
90
8
70
1
43
0.0
10
117.57500000000022
20
-1.0899055488519815
10
130.07500000000022
20
-1.0899055488519864
42
-0.41421356237310153
10
130.82500000000022
20
-1.8399055488519798
10
130.82500000000022
20
-14.339905548851986
42
-0.41421356237308204
10
130.07500000000022
20
-15.089905548851984
10
117.57500000000022
20
-15.089905548851981
42
-0.4142135623730846
10
116.82500000000022
20
-14.339905548851988
10
116.82500000000022
20
-1.8399055488519811
42
-0.41421356237308454
0
LWPOLYLINE
5
147
100
AcDbEntity
8
0
100
AcDbPolyline
90
8
70
1
43
0.0
10
335.90000000000026
20
-1.8399055488519489
42
-0.41421356237309093
10
336.65000000000026
20
-1.0899055488519311
10
349.1500000000002
20
-1.0899055488519176
42
-0.41421356237312779
10
349.90000000000032
20
-1.839905548851946
10
349.90000000000032
20
-14.339905548851952
42
-0.41421356237311158
10
349.1500000000002
20
-15.089905548851947
10
336.65000000000026
20
-15.089905548851984
42
-0.41421356237308982
10
335.90000000000026
20
-14.339905548851956
0
LWPOLYLINE
5
148
100
AcDbEntity
8
0
100
AcDbPolyline
90
8
70
1
43
0.0
10
164.16250000000022
20
-39.939905548851996
10
164.16250000000022
20
-52.439905548852003
42
-0.41421356237311935
10
163.41250000000028
20
-53.189905548852025
10
150.91250000000025
20
-53.189905548851975
42
-0.41421356237310197
10
150.16250000000025
20
-52.439905548852003
10
150.16250000000022
20
-39.939905548851996
42
-0.41421356237310375
10
150.91250000000025
20
-39.189905548851975
10
163.41250000000028
20
-39.189905548851989
42
-0.41421356237307771
0
LWPOLYLINE
5
149
100
AcDbEntity
8
0
100
AcDbPolyline
90
8
70
1
43
0.0
10
197.50000000000028
20
-20.889905548851971
42
0.41421356237312801
10
196.75000000000026
20
-20.139905548852003
10
184.25000000000026
20
-20.139905548851971
42
0.41421356237309503
10
183.50000000000026
20
-20.889905548851971
10
183.50000000000026
20
-33.389905548851985
42
0.41421356237308982
10
184.25000000000026
20
-34.139905548851964
10
196.75000000000026
20
-34.139905548851978
42
0.41421356237305518
10
197.50000000000028
20
-33.389905548851985
0
LWPOLYLINE
5
150
100
AcDbEntity
8
0
100
AcDbPolyline
90
8
70
1
43
0.0
10
173.97500000000031
20
-14.339905548851981
42
0.41421356237308721
10
174.72500000000028
20
-15.089905548851954
10
187.22500000000028
20
-15.089905548851974
42
0.41421356237306817
10
187.97500000000028
20
-14.339905548851974
10
187.97500000000028
20
-1.8399055488519704
42
0.41421356237309592
10
187.22500000000028
20
-1.0899055488519704
10
174.72500000000028
20
-1.0899055488519729
42
0.41421356237306722
10
173.97500000000031
20
-1.8399055488519722
0
LWPOLYLINE
5
151
100
AcDbEntity
8
0
100
AcDbPolyline
90
8
70
1
43
0.0
10
44.350000000000229
20
-34.139905548851999
42
0.41421356237309853
10
45.100000000000229
20
-33.389905548852006
10
45.100000000000222
20
-20.889905548851996
42
0.41421356237309853
10
44.350000000000229
20
-20.139905548851992
10
31.850000000000232
20
-20.139905548852003
42
0.41421356237309681
10
31.100000000000229
20
-20.889905548851999
10
31.100000000000229
20
-33.389905548852006
42
0.41421356237310025
10
31.850000000000232
20
-34.139905548852013
0
LWPOLYLINE
5
152
100
AcDbEntity
8
0
100
AcDbPolyline
90
8
70
1
43
0.0
10
108.05000000000021
20
-20.139905548851985
42
0.41421356237308637
10
107.30000000000021
20
-20.889905548851981
10
107.30000000000021
20
-33.389905548851985
42
0.4142135623730846
10
108.05000000000021
20
-34.139905548851985
10
120.55000000000021
20
-34.139905548851985
42
0.41421356237309681
10
121.30000000000021
20
-33.389905548851985
10
121.30000000000022
20
-20.889905548851981
42
0.41421356237308116
10
120.55000000000021
20
-20.139905548851985
0
LWPOLYLINE
5
153
100
AcDbEntity
8
0
100
AcDbPolyline
90
8
70
1
43
0.0
10
226.36250000000032
20
-52.439905548851975
10
226.36250000000032
20
-39.939905548851975
42
-0.41421356237309503
10
227.11250000000032
20
-39.189905548851968
10
239.61250000000032
20
-39.189905548851947
42
-0.41421356237307255
10
240.36250000000035
20
-39.939905548851975
10
240.36250000000027
20
-52.439905548851975
42
-0.41421356237310897
10
239.61250000000032
20
-53.189905548851975
10
227.11250000000032
20
-53.189905548851975
42
-0.41421356237307078
0
LWPOLYLINE
5
154
100
AcDbEntity
8
0
100
AcDbPolyline
90
8
70
1
43
0.0
10
330.85000000000036
20
-14.339905548851952
10
330.85000000000036
20
-1.8399055488519478
42
0.41421356237311219
10
330.10000000000042
20
-1.0899055488519465
10
317.60000000000036
20
-1.0899055488519511
42
0.4142135623730675
10
316.85000000000036
20
-1.8399055488519522
10
316.85000000000036
20
-14.339905548851956
42
0.41421356237308898
10
317.60000000000036
20
-15.089905548851934
10
330.10000000000042
20
-15.089905548851956
42
0.41421356237315055
0
LWPOLYLINE
5
155
100
AcDbEntity
8
0
100
AcDbPolyline
90
8
70
1
43
0.0
10
311.0500000000003
20
-20.139905548851953
10
298.5500000000003
20
-20.139905548851967
42
0.41421356237305518
10
297.80000000000041
20
-20.889905548851964
10
297.80000000000041
20
-33.389905548851964
42
0.41421356237311413
10
298.5500000000003
20
-34.139905548851971
10
311.0500000000003
20
-34.139905548851964
42
0.41421356237310025
10
311.8000000000003
20
-33.389905548851964
10
311.8000000000003
20
-20.889905548851949
42
0.41421356237309681
0
LWPOLYLINE
5
156
100
AcDbEntity
8
0
100
AcDbPolyline
90
8
70
1
43
0.0
10
126.06250000000024
20
-39.939905548852003
42
0.41421356237310897
10
125.31250000000023
20
-39.189905548851996
10
112.81250000000021
20
-39.189905548851989
42
0.414213562373069
10
112.06250000000024
20
-39.939905548852003
10
112.06250000000024
20
-52.439905548852003
42
0.41421356237310897
10
112.81250000000021
20
-53.18990554885201
10
125.31250000000023
20
-53.189905548852003
42
0.41421356237310197
10
126.06250000000024
20
-52.439905548852003
0
LWPOLYLINE
5
157
100
AcDbEntity
8
0
100
AcDbPolyline
90
8
70
1
43
0.0
10
103.28750000000021
20
-58.239905548851993
10
115.78750000000021
20
-58.239905548851993
42
-0.41421356237309503
10
116.53750000000022
20
-58.989905548851993
10
116.53750000000024
20
-71.489905548852008
42
-0.41421356237308116
10
115.78750000000021
20
-72.239905548852008
10
103.28750000000025
20
-72.239905548851979
42
-0.41421356237309503
10
102.53750000000025
20
-71.489905548852008
10
102.53750000000022
20
-58.989905548851993
42
-0.41421356237308815
0
LWPOLYLINE
5
158
100
AcDbEntity
8
0
100
AcDbPolyline
90
8
70
1
43
0.0
10
87.212500000000205
20
-53.189905548852003
10
74.712500000000233
20
-53.189905548852003
42
-0.41421356237309853
10
73.962500000000233
20
-52.43990554885201
10
73.962500000000219
20
-39.939905548852003
42
-0.41421356237309681
10
74.712500000000233
20
-39.189905548852003
10
87.212500000000205
20
-39.18990554885201
42
-0.4142135623730846
10
87.962500000000176
20
-39.939905548852003
10
87.962500000000205
20
-52.439905548852003
42
-0.41421356237308815
0
LWPOLYLINE
5
159
100
AcDbEntity
8
0
100
AcDbPolyline
90
8
70
1
43
0.0
10
216.83750000000029
20
-71.489905548851993
10
216.83750000000029
20
-58.989905548851986
42
-0.4142135623730846
10
217.58750000000026
20
-58.239905548851951
10
230.08750000000026
20
-58.239905548851993
42
-0.41421356237309503
10
230.83750000000026
20
-58.989905548851986
10
230.83750000000035
20
-71.489905548851993
42
-0.41421356237311585
10
230.08750000000026
20
-72.239905548851979
10
217.58750000000026
20
-72.239905548851965
42
-0.41421356237309503
0
LWPOLYLINE
5
160
100
AcDbEntity
8
0
100
AcDbPolyline
90
8
70
1
43
0.0
10
192.7375000000003
20
-58.989905548851993
10
192.73750000000032
20
-71.489905548851993
42
-0.41421356237309159
10
191.9875000000003
20
-72.239905548852008
10
179.4875000000003
20
-72.239905548851979
42
-0.4142135623730534
10
178.73750000000027
20
-71.489905548851993
10
178.73750000000027
20
-58.989905548851993
42
-0.41421356237309853
10
179.4875000000003
20
-58.239905548851986
10
191.9875000000003
20
-58.239905548851993
42
-0.41421356237306733
0
LWPOLYLINE
5
161
100
AcDbEntity
8
0
100
AcDbPolyline
90
8
70
1
43
0.0
10
77.687500000000242
20
-72.239905548852022
10
65.187500000000242
20
-72.239905548851993
42
-0.41421356237309853
10
64.437500000000242
20
-71.489905548852008
10
64.437500000000227
20
-58.989905548852015
42
-0.41421356237307422
10
65.187500000000242
20
-58.239905548851993
10
77.687500000000242
20
-58.239905548851993
42
-0.41421356237309503
10
78.437500000000256
20
-58.989905548852015
10
78.43750000000027
20
-71.489905548852008
42
-0.41421356237309853
0
LWPOLYLINE
5
162
100
AcDbEntity
8
0
100
AcDbPolyline
90
8
70
1
43
0.0
10
153.88750000000024
20
-58.239905548851993
42
-0.41421356237310197
10
154.63750000000027
20
-58.989905548851993
10
154.63750000000027
20
-71.489905548851993
42
-0.41421356237308815
10
153.88750000000024
20
-72.239905548851979
10
141.38750000000027
20
-72.239905548851979
42
-0.4142135623730846
10
140.63750000000022
20
-71.489905548852008
10
140.63750000000022
20
-58.989905548851993
42
-0.41421356237309503
10
141.38750000000024
20
-58.239905548851993
0
LWPOLYLINE
5
163
100
AcDbEntity
8
0
100
AcDbPolyline
90
8
70
1
43
0.0
10
35.86250000000021
20
-39.939905548852003
42
-0.41421356237309503
10
36.612500000000225
20
-39.189905548852003
10
49.112500000000239
20
-39.189905548852003
42
-0.41421356237309503
10
49.862500000000232
20
-39.939905548852003
10
49.862500000000232
20
-52.43990554885201
42
-0.41421356237310197
10
49.112500000000239
20
-53.189905548852003
10
36.612500000000232
20
-53.189905548852003
42
-0.41421356237309331
10
35.862500000000217
20
-52.43990554885201
0
LWPOLYLINE
5
164
100
AcDbEntity
8
0
100
AcDbPolyline
90
8
70
1
43
0.0
10
69.950000000000244
20
-34.139905548852013
42
-0.41421356237311063
10
69.200000000000244
20
-33.389905548852006
10
69.20000000000023
20
-20.889905548851996
42
-0.41421356237309681
10
69.950000000000244
20
-20.139905548851999
10
82.450000000000202
20
-20.139905548851992
42
-0.4142135623730846
10
83.200000000000202
20
-20.889905548851985
10
83.200000000000202
20
-33.389905548851999
42
-0.4142135623730846
10
82.450000000000202
20
-34.139905548851999
0
LWPOLYLINE
5
165
100
AcDbEntity
8
0
100
AcDbPolyline
90
8
70
1
43
0.0
10
149.87500000000026
20
-14.339905548851986
42
-0.4142135623730846
10
149.12500000000026
20
-15.089905548851988
10
136.62500000000026
20
-15.089905548851981
42
-0.4142135623730846
10
135.87500000000028
20
-14.339905548851986
10
135.87500000000028
20
-1.8399055488519789
42
-0.4142135623730846
10
136.62500000000026
20
-1.0899055488519782
10
149.12500000000026
20
-1.089905548851984
42
-0.41421356237309193
10
149.87500000000026
20
-1.8399055488519769
0
LWPOLYLINE
5
166
100
AcDbEntity
8
0
100
AcDbPolyline
90
8
70
1
43
0.0
10
335.90000000000026
20
-33.389905548851964
10
335.90000000000026
20
-20.889905548851946
42
-0.41421356237308982
10
336.65000000000026
20
-20.139905548851949
10
349.1500000000002
20
-20.139905548851921
42
-0.41421356237312623
10
349.90000000000032
20
-20.889905548851946
10
349.90000000000032
20
-33.389905548851964
42
-0.41421356237311063
10
349.1500000000002
20
-34.139905548851964
10
336.65000000000026
20
-34.139905548851985
42
-0.41421356237308815
0
LWPOLYLINE
5
167
100
AcDbEntity
8
0
100
AcDbPolyline
90
8
70
1
43
0.0
10
202.26250000000027
20
-39.939905548851996
10
202.26250000000027
20
-52.439905548852003
42
-0.41421356237309853
10
201.5125000000003
20
-53.189905548852003
10
189.0125000000003
20
-53.189905548851975
42
-0.41421356237311585
10
188.2625000000003
20
-52.439905548852003
10
188.26250000000027
20
-39.939905548851996
42
-0.41421356237309681
10
189.0125000000003
20
-39.189905548851961
10
201.5125000000003
20
-39.189905548851989
42
-0.414213562373069
0
LWPOLYLINE
5
168
100
AcDbEntity
8
0
100
AcDbPolyline
90
8
70
1
43
0.0
10
234.85000000000028
20
-34.139905548851964
10
222.35000000000028
20
-34.139905548851964
42
-0.41421356237316964
10
221.60000000000028
20
-33.389905548851985
10
221.60000000000028
20
-20.889905548851964
42
-0.41421356237309331
10
222.35000000000028
20
-20.139905548851974
10
234.85000000000028
20
-20.139905548851971
42
-0.4142135623730534
10
235.60000000000031
20
-20.889905548851964
10
235.60000000000031
20
-33.389905548851985
42
-0.41421356237312101
0
LWPOLYLINE
5
169
100
AcDbEntity
8
0
100
AcDbPolyline
90
8
70
1
43
0.0
10
146.15000000000026
20
-34.139905548851985
42
-0.41421356237310025
10
145.40000000000026
20
-33.389905548851985
10
145.40000000000026
20
-20.889905548851978
42
-0.41421356237309331
10
146.15000000000026
20
-20.139905548851988
10
158.65000000000026
20
-20.139905548851985
42
-0.4142135623730846
10
159.40000000000026
20
-20.889905548851978
10
159.40000000000026
20
-33.389905548851985
42
-0.4142135623730846
10
158.65000000000026
20
-34.139905548851985
0
LWPOLYLINE
5
170
100
AcDbEntity
8
0
100
AcDbPolyline
90
8
70
1
43
0.0
10
4.9062500000002114
20
-52.439905548852025
10
4.9062500000002087
20
-39.93990554885201
42
-0.41421356237310375
10
5.6562500000002105
20
-39.189905548852003
10
22.91875000000022
20
-39.18990554885201
42
-0.41421356237309853
10
23.668750000000216
20
-39.93990554885201
10
23.668750000000212
20
-52.439905548852025
42
-0.41421356237310025
10
22.91875000000022
20
-53.189905548852003
10
5.6562500000002123
20
-53.189905548852032
42
-0.41421356237308943
0
LWPOLYLINE
5
171
100
AcDbEntity
8
0
100
AcDbPolyline
90
8
70
1
43
0.0
10
212.82500000000027
20
-1.0899055488519671
10
225.32500000000027
20
-1.0899055488519722
42
-0.41421356237312879
10
226.0750000000003
20
-1.8399055488519651
10
226.0750000000003
20
-14.339905548851972
42
-0.41421356237312801
10
225.32500000000027
20
-15.089905548851972
10
212.82500000000027
20
-15.089905548851965
42
-0.41421356237309503
10
212.07500000000027
20
-14.339905548851972
10
212.07500000000027
20
-1.8399055488519678
42
-0.41421356237309481
0
LWPOLYLINE
5
172
100
AcDbEntity
8
0
100
AcDbPolyline
90
8
70
1
43
0.0
10
168.1750000000003
20
-1.0899055488519731
10
155.6750000000003
20
-1.0899055488519751
42
0.41421356237309614
10
154.9250000000003
20
-1.8399055488519769
10
154.9250000000003
20
-14.339905548851981
42
0.41421356237308982
10
155.6750000000003
20
-15.089905548851974
10
168.1750000000003
20
-15.089905548851974
42
0.41421356237309503
10
168.9250000000003
20
-14.339905548851981
10
168.9250000000003
20
-1.8399055488519742
42
0.4142135623730947
0
LWPOLYLINE
5
173
100
AcDbEntity
8
0
100
AcDbPolyline
90
8
70
1
43
0.0
10
330.10000000000042
20
-20.139905548851921
42
-0.41421356237315404
10
330.85000000000042
20
-20.889905548851949
10
330.85000000000036
20
-33.389905548851964
42
-0.41421356237311413
10
330.10000000000042
20
-34.139905548851964
10
317.60000000000036
20
-34.139905548851964
42
-0.414213562373069
10
316.85000000000036
20
-33.389905548851964
10
316.85000000000036
20
-20.889905548851949
42
-0.41421356237310025
10
317.60000000000036
20
-20.139905548851953
0
LWPOLYLINE
5
174
100
AcDbEntity
8
0
100
AcDbPolyline
90
8
70
1
43
0.0
10
21.287500000000211
20
-33.389905548852006
42
-0.41421356237309331
10
20.537500000000215
20
-34.139905548852013
10
8.0375000000002075
20
-34.139905548852013
42
-0.4142135623730937
10
7.2875000000002101
20
-33.389905548852006
10
7.2875000000002101
20
-20.889905548851999
42
-0.41421356237309331
10
8.0375000000002057
20
-20.139905548852006
10
20.537500000000215
20
-20.139905548851992
42
-0.41421356237308116
10
21.287500000000211
20
-20.889905548851999
0
LWPOLYLINE
5
175
100
AcDbEntity
8
0
100
AcDbPolyline
90
8
70
1
43
0.0
10
297.80000000000041
20
-14.339905548851963
42
0.41421356237311324
10
298.5500000000003
20
-15.089905548851966
10
311.0500000000003
20
-15.089905548851963
42
0.41421356237309592
10
311.8000000000003
20
-14.339905548851963
10
311.8000000000003
20
-1.8399055488519522
42
0.41421356237309437
10
311.0500000000003
20
-1.0899055488519611
10
298.5500000000003
20
-1.0899055488519538
42
0.41421356237305645
10
297.80000000000041
20
-1.8399055488519545
0
LWPOLYLINE
5
176
100
AcDbEntity
8
0
100
AcDbPolyline
90
8
70
1
43
0.0
10
60.425000000000239
20
-1.08990554885199
10
72.925000000000225
20
-1.0899055488519864
42
-0.4142135623731093
10
73.675000000000225
20
-1.839905548851988
10
73.675000000000225
20
-14.339905548851995
42
-0.41421356237309159
10
72.925000000000225
20
-15.089905548851995
10
60.425000000000239
20
-15.089905548852007
42
-0.41421356237309681
10
59.675000000000225
20
-14.339905548851995
10
59.675000000000232
20
-1.8399055488519911
42
-0.41421356237308932
0
LWPOLYLINE
5
177
100
AcDbEntity
8
0
100
AcDbPolyline
90
8
70
1
43
0.0
10
16.525000000000208
20
-1.8399055488519969
42
0.41421356237309709
10
15.775000000000205
20
-1.0899055488519966
10
3.2750000000002033
20
-1.0899055488519989
42
0.41421356237309531
10
2.5250000000002037
20
-1.8399055488519989
10
2.5250000000002055
20
-14.339905548852006
42
0.41421356237309465
10
3.2750000000002055
20
-15.089905548852007
10
15.77500000000021
20
-15.089905548852002
42
0.4142135623730942
10
16.525000000000208
20
-14.339905548852006
0
LWPOLYLINE
5
178
100
AcDbEntity
8
0
100
AcDbPolyline
90
8
70
1
43
0.0
10
91.975000000000207
20
-1.0899055488519849
10
79.475000000000222
20
-1.0899055488519871
42
0.41421356237308898
10
78.725000000000222
20
-1.839905548851988
10
78.725000000000222
20
-14.339905548851995
42
0.41421356237309076
10
79.475000000000222
20
-15.089905548852002
10
91.975000000000207
20
-15.089905548851991
42
0.41421356237308637
10
92.725000000000193
20
-14.339905548851995
10
92.725000000000207
20
-1.8399055488519855
42
0.41421356237308421
0
LWPOLYLINE
5
179
100
AcDbEntity
8
0
100
AcDbPolyline
90
8
70
1
43
0.0
10
231.12500000000026
20
-14.339905548851972
42
0.41421356237312801
10
231.87500000000028
20
-15.089905548851943
10
244.37500000000028
20
-15.089905548851965
42
0.41421356237309592
10
245.12500000000028
20
-14.339905548851966
10
245.12500000000028
20
-1.8399055488519633
42
0.41421356237309503
10
244.37500000000028
20
-1.0899055488519616
10
231.87500000000028
20
-1.0899055488519638
42
0.41421356237305612
10
231.12500000000026
20
-1.8399055488519636
0
LWPOLYLINE
5
180
100
AcDbEntity
8
0
100
AcDbPolyline
90
8
70
1
43
0.0
10
182.46250000000029
20
-39.189905548851989
42
-0.414213562373069
10
183.21250000000026
20
-39.939905548851996
10
183.21250000000026
20
-52.439905548852003
42
-0.41421356237309853
10
182.46250000000029
20
-53.189905548852003
10
169.96250000000029
20
-53.189905548851975
42
-0.41421356237311585
10
169.21250000000029
20
-52.439905548852003
10
169.21250000000026
20
-39.939905548851996
42
-0.41421356237309681
10
169.96250000000029
20
-39.189905548851975
0
LWPOLYLINE
5
181
100
AcDbEntity
8
0
100
AcDbPolyline
90
8
70
1
43
0.0
10
134.83750000000026
20
-58.239905548851993
42
-0.41421356237308815
10
135.58750000000026
20
-58.989905548851993
10
135.58750000000026
20
-71.489905548852008
42
-0.41421356237307771
10
134.83750000000026
20
-72.239905548851993
10
122.33750000000028
20
-72.239905548851979
42
-0.41421356237307422
10
121.58750000000026
20
-71.489905548851993
10
121.58750000000026
20
-58.989905548851993
42
-0.41421356237311241
10
122.33750000000028
20
-58.239905548851993
0
LWPOLYLINE
5
182
100
AcDbEntity
8
0
100
AcDbPolyline
90
8
70
1
43
0.0
10
197.78750000000031
20
-58.989905548851993
42
-0.41421356237309503
10
198.53750000000031
20
-58.239905548852001
10
211.03750000000031
20
-58.239905548851993
42
-0.41421356237303608
10
211.78750000000031
20
-58.989905548851986
10
211.78750000000034
20
-71.489905548851993
42
-0.41421356237309159
10
211.03750000000031
20
-72.239905548851979
10
198.53750000000031
20
-72.239905548851979
42
-0.41421356237306733
10
197.78750000000031
20
-71.489905548851993
0
LWPOLYLINE
5
183
100
AcDbEntity
8
0
100
AcDbPolyline
90
8
70
1
43
0.0
10
88.250000000000227
20
-33.389905548851999
10
88.250000000000227
20
-20.889905548851985
42
-0.41421356237309331
10
89.000000000000213
20
-20.139905548851999
10
101.50000000000021
20
-20.139905548851992
42
-0.41421356237307422
10
102.25000000000023
20
-20.889905548851981
10
102.25000000000023
20
-33.389905548851985
42
-0.41421356237310897
10
101.50000000000021
20
-34.139905548851999
10
89.000000000000213
20
-34.139905548851985
42
-0.41421356237308293
0
LWPOLYLINE
5
184
100
AcDbEntity
8
0
100
AcDbPolyline
90
8
70
1
43
0.0
10
165.20000000000024
20
-20.139905548851971
10
177.70000000000027
20
-20.139905548851978
42
-0.41421356237303436
10
178.45000000000027
20
-20.889905548851971
10
178.45000000000027
20
-33.389905548851985
42
-0.41421356237309853
10
177.70000000000027
20
-34.139905548851985
10
165.20000000000024
20
-34.139905548851978
42
-0.41421356237309503
10
164.45000000000024
20
-33.389905548851985
10
164.45000000000024
20
-20.889905548851971
42
-0.41421356237309503
0
LWPOLYLINE
5
185
100
AcDbEntity
8
0
100
AcDbPolyline
90
8
70
1
43
0.0
10
253.90000000000029
20
-20.139905548851971
42
-0.41421356237309331
10
254.65000000000029
20
-20.889905548851964
10
254.65000000000029
20
-33.389905548851964
42
-0.41421356237309503
10
253.90000000000029
20
-34.139905548851964
10
241.40000000000029
20
-34.139905548851964
42
-0.41421356237312801
10
240.65000000000026
20
-33.389905548851985
10
240.65000000000026
20
-20.889905548851964
42
-0.41421356237312801
10
241.40000000000029
20
-20.139905548851992
0
LWPOLYLINE
5
186
100
AcDbEntity
8
0
100
AcDbPolyline
90
8
70
1
43
0.0
10
93.01250000000023
20
-39.939905548852003
42
-0.41421356237312801
10
93.762500000000216
20
-39.189905548851996
10
106.26250000000022
20
-39.189905548852003
42
-0.41421356237310197
10
107.01250000000023
20
-39.939905548852003
10
107.01250000000023
20
-52.439905548852003
42
-0.41421356237311935
10
106.2625000000002
20
-53.189905548851982
10
93.762500000000216
20
-53.189905548852003
42
-0.41421356237308815
10
93.01250000000023
20
-52.439905548852003
0
LWPOLYLINE
5
187
100
AcDbEntity
8
0
100
AcDbPolyline
90
8
70
1
43
0.0
10
45.387500000000216
20
-58.989905548852015
42
-0.41421356237307422
10
46.137500000000237
20
-58.239905548851993
10
58.637500000000237
20
-58.239905548851993
42
-0.41421356237309503
10
59.387500000000237
20
-58.989905548852015
10
59.387500000000237
20
-71.489905548852008
42
-0.41421356237309503
10
58.637500000000237
20
-72.239905548852022
10
46.137500000000237
20
-72.239905548851993
42
-0.41421356237308815
10
45.387500000000216
20
-71.489905548852008
0
CIRCLE
5
188
100
AcDbEntity
8
0
100
AcDbCircle
10
253.40000000000038
20
-99.836609324265225
30
2.886579864025407e-14
40
1.7500000000000104
210
0
220
0
230
1
0
CIRCLE
5
189
100
AcDbEntity
8
0
100
AcDbCircle
10
19.050000000000203
20
-99.836609324265197
30
2.886579864025407e-14
40
1.7499999999999905
210
0
220
0
230
1
0
CIRCLE
5
190
100
AcDbEntity
8
0
100
AcDbCircle
10
-5.6946341532882494
20
-46.211611355700171
30
1.3322676295501878e-14
40
1.7500000000000004
210
0
220
0
230
1
0
CIRCLE
5
191
100
AcDbEntity
8
0
100
AcDbCircle
10
117.72500000000036
20
-99.836609324265197
30
2.886579864025407e-14
40
1.7499999999999905
210
0
220
0
230
1
0
CIRCLE
5
192
100
AcDbEntity
8
0
100
AcDbCircle
10
335.8750000000004
20
7.4133906435671326
30
6.6613381477509392e-15
40
1.7499999999999705
210
0
220
0
230
1
0
CIRCLE
5
193
100
AcDbEntity
8
0
100
AcDbCircle
10
176.21250000000032
20
7.4133906435671388
30
6.6613381477509392e-15
40
1.7500000000000104
210
0
220
0
230
1
0
CIRCLE
5
194
100
AcDbEntity
8
0
100
AcDbCircle
10
358.11963415328933
20
-46.211610850718785
30
2.2204460492503131e-14
40
1.7499999999999705
210
0
220
0
230
1
0
CIRCLE
5
195
100
AcDbEntity
8
0
100
AcDbCircle
10
276.22500000000048
20
7.4069062040306877
30
-5.3290705182007514e-14
40
1.7500000000000104
210
0
220
0
230
1
0
CIRCLE
5
196
100
AcDbEntity
8
0
100
AcDbCircle
10
85.725000000000122
20
7.406906204030693
30
-5.3290705182007514e-14
40
1.7500000000000104
210
0
220
0
230
1
0
CIRCLE
5
197
100
AcDbEntity
8
0
100
AcDbCircle
10
333.3750000000004
20
-99.836609324265225
30
2.886579864025407e-14
40
1.7500000000000404
210
0
220
0
230
1
0
CIRCLE
5
198
100
AcDbEntity
8
0
100
AcDbCircle
10
19.050000000000114
20
7.4069062040306965
30
-5.1070259132757201e-14
40
1.7500000000000004
210
0
220
0
230
1
0
CIRCLE
5
199
100
AcDbEntity
8
0
100
AcDbCircle
10
26.193750000000222
20
-27.139905548852003
30
0
40
2.0000000000000018
210
0
220
0
230
1
0
ENDSEC
0
SECTION
2
OBJECTS
0
DICTIONARY
5
C
100
AcDbDictionary
3
ACAD_GROUP
350
D
3
ACAD_MLINESTYLE
350
17
0
DICTIONARY
5
D
100
AcDbDictionary
0
DICTIONARY
5
1A
330
C
100
AcDbDictionary
0
DICTIONARY
5
17
100
AcDbDictionary
0
ENDSEC
0
EOF
